<!-- Пока оставляю с пред проекта -->
<svg>
	<defs>
		<symbol xmlns="http://www.w3.org/2000/svg"
				width="22"
				height="13"
				viewBox="0 0 22 13"
				class="eye"
				id="eye">
			<path d="M21.0511 6.1334C20.9136 5.8958 17.6313 0.35 11 0.35C4.36878 0.35 1.08647 5.89581 0.948957 6.13322L0.948948 6.13323C0.884225 6.245 0.850023 6.37123 0.850023 6.49993C0.850023 6.62861 0.884221 6.75483 0.948936 6.8666L1.07875 6.79146L0.948948 6.86662C1.08666 7.10452 4.36897 12.65 11 12.65C17.6313 12.65 20.9136 7.10419 21.0511 6.86678L21.0511 6.86677C21.1158 6.75499 21.15 6.62877 21.15 6.50008C21.15 6.37139 21.1158 6.24517 21.0511 6.1334ZM21.0511 6.1334L20.9213 6.20855L21.0511 6.13338C21.0511 6.13339 21.0511 6.1334 21.0511 6.1334ZM11 11.15C6.22315 11.15 3.36604 7.66701 2.54309 6.4989C3.36272 5.33003 6.20786 1.85 11 1.85C15.7769 1.85 18.634 5.33299 19.457 6.50111C18.6373 7.66998 15.7922 11.15 11 11.15ZM7.10002 6.5C7.10002 8.57366 8.85519 10.25 11 10.25C13.1449 10.25 14.9 8.57366 14.9 6.5C14.9 4.42635 13.1449 2.75 11 2.75C8.85519 2.75 7.10002 4.42635 7.10002 6.5ZM8.65002 6.5C8.65002 5.26526 9.6986 4.25 11 4.25C12.3015 4.25 13.35 5.26526 13.35 6.5C13.35 7.73475 12.3015 8.75 11 8.75C9.6986 8.75 8.65002 7.73475 8.65002 6.5Z"
				  stroke="#EEEEEE"
				  stroke-width="0.3" />
		</symbol>
		<symbol xmlns="http://www.w3.org/2000/svg"
				viewBox="0 0 14 9"
				id="arrow_down"
				class="arrow_down">
			<path d="M13.9678 1.02728C13.9686 1.15889 13.9433 1.28935 13.8936 1.41119C13.8438 1.53303 13.7705 1.64384 13.6778 1.73728L7.6778 7.73728C7.49044 7.92353 7.23699 8.02808 6.9728 8.02808C6.70861 8.02808 6.45516 7.92353 6.2678 7.73728L0.267801 1.73728C0.103974 1.54598 0.0183681 1.29991 0.0280892 1.04823C0.0378104 0.796554 0.142142 0.557815 0.320237 0.379721C0.498331 0.201626 0.737071 0.0972933 0.988747 0.0875721C1.24042 0.0778508 1.4865 0.163457 1.6778 0.327284L6.9678 5.61728L12.2578 0.327283C12.3971 0.186862 12.5749 0.0908908 12.7687 0.0515055C12.9625 0.0121206 13.1636 0.0310902 13.3467 0.106016C13.5297 0.180941 13.6864 0.308458 13.797 0.472441C13.9075 0.636424 13.967 0.82951 13.9678 1.02728Z"
				  fill="white" />
		</symbol>
		<symbol xmlns="http://www.w3.org/2000/svg"
				id="heart">
			<path fill-rule="evenodd"
				  clip-rule="evenodd"
				  d="M11.6734 3.5C10.7262 3.5 9.81782 3.87626 9.14807 4.54602C8.47831 5.21577 8.10205 6.12416 8.10205 7.07133C8.10205 8.21342 8.55365 9.38952 9.34091 10.5628C10.1262 11.7333 11.1969 12.8272 12.3076 13.7777C13.4133 14.724 14.5252 15.4997 15.3637 16.0398C15.6622 16.2322 15.9245 16.3936 16.1376 16.5213C16.3506 16.3936 16.6129 16.2322 16.9115 16.0398C17.75 15.4997 18.8619 14.724 19.9676 13.7777C21.0783 12.8272 22.1489 11.7333 22.9342 10.5628C23.7215 9.38952 24.1731 8.21342 24.1731 7.07133C24.1731 6.12416 23.7968 5.21577 23.1271 4.54602C22.4573 3.87626 21.5489 3.5 20.6018 3.5C19.0463 3.5 17.8049 4.3335 17.2944 5.58063C17.1022 6.05028 16.6451 6.35709 16.1376 6.35709C15.6301 6.35709 15.173 6.05028 14.9807 5.58063C14.4702 4.3335 13.2289 3.5 11.6734 3.5ZM16.1376 17.964C15.545 19.0646 15.5447 19.0644 15.5443 19.0642L15.5411 19.0625L15.5339 19.0586L15.5096 19.0453C15.4891 19.0341 15.46 19.018 15.4229 18.9972C15.3486 18.9556 15.2423 18.8953 15.1084 18.8171C14.8408 18.6609 14.4623 18.433 14.0097 18.1415C13.1072 17.56 11.8977 16.7174 10.6821 15.6771C9.47136 14.641 8.22064 13.3802 7.26492 11.9558C6.31114 10.5343 5.60205 8.87562 5.60205 7.07133C5.60205 5.46111 6.24171 3.91685 7.3803 2.77825C8.5189 1.63966 10.0632 1 11.6734 1C13.4074 1 15.0121 1.66809 16.1376 2.84654C17.2631 1.66809 18.8677 1 20.6018 1C22.212 1 23.7563 1.63966 24.8949 2.77825C26.0334 3.91685 26.6731 5.46111 26.6731 7.07133C26.6731 8.87562 25.964 10.5343 25.0102 11.9558C24.0545 13.3802 22.8038 14.641 21.5931 15.6771C20.3774 16.7174 19.1679 17.56 18.2654 18.1415C17.8129 18.433 17.4344 18.6609 17.1668 18.8171C17.0329 18.8953 16.9265 18.9556 16.8523 18.9972C16.8152 19.018 16.7861 19.0341 16.7655 19.0453L16.7412 19.0586L16.734 19.0625L16.7317 19.0638C16.7314 19.0639 16.7302 19.0646 16.1376 17.964ZM16.1376 17.964L16.7302 19.0646C16.3602 19.2638 15.9143 19.2634 15.5443 19.0642L16.1376 17.964Z" />
		</symbol>
		<symbol xmlns="http://www.w3.org/2000/svg"
				viewBox="0 0 18 18"
				id="search"
				class="search">
			<path d="M17.1423 15.73L13.8993 12.487C14.8882 11.1978 15.4233 9.61783 15.4213 7.993C15.4213 6.008 14.6483 4.1425 13.2448 2.739C12.5565 2.04682 11.7377 1.49805 10.8358 1.12445C9.934 0.750857 8.967 0.559852 7.99083 0.562497C6.00633 0.562497 4.14083 1.3355 2.73683 2.739C-0.159672 5.636 -0.159672 10.35 2.73683 13.247C3.42515 13.9392 4.24394 14.488 5.14579 14.8616C6.04765 15.2352 7.01466 15.4262 7.99083 15.4235C9.63783 15.4235 11.1983 14.884 12.4853 13.901L15.7283 17.1445C15.9233 17.3395 16.1793 17.4375 16.4353 17.4375C16.6913 17.4375 16.9473 17.3395 17.1423 17.1445C17.2352 17.0516 17.3089 16.9414 17.3592 16.82C17.4095 16.6987 17.4354 16.5686 17.4354 16.4372C17.4354 16.3059 17.4095 16.1758 17.3592 16.0545C17.3089 15.9331 17.2352 15.8229 17.1423 15.73ZM4.15133 11.833C2.03383 9.7155 2.03433 6.2705 4.15133 4.153C4.65451 3.64729 5.25298 3.24638 5.9121 2.97346C6.57123 2.70054 7.27794 2.56103 7.99133 2.563C8.70465 2.56104 9.41127 2.70055 10.0703 2.97347C10.7294 3.2464 11.3277 3.6473 11.8308 4.153C12.3367 4.6561 12.7377 5.25455 13.0107 5.91368C13.2837 6.57282 13.4233 7.27956 13.4213 7.993C13.4213 9.4435 12.8563 10.807 11.8308 11.833C10.8053 12.859 9.44183 13.423 7.99083 13.423C6.54083 13.423 5.17683 12.858 4.15083 11.833H4.15133Z"
				  fill="white" />
		</symbol>
		<symbol xmlns="http://www.w3.org/2000/svg"
				viewBox="0 0 18 22"
				class="ring"
				id="ring"
				fill="none">
			<path d="M11.0498 19.1818V19.1318H10.9998H7.36344H7.31344V19.1818C7.31344 19.6773 7.51027 20.1525 7.86062 20.5028C8.21097 20.8532 8.68615 21.05 9.18163 21.05C9.6771 21.05 10.1523 20.8532 10.5026 20.5028C10.853 20.1525 11.0498 19.6773 11.0498 19.1818ZM17.3405 16.8219L17.3405 16.8219C17.4132 16.6466 17.4321 16.4537 17.3951 16.2676C17.358 16.0815 17.2666 15.9106 17.1324 15.7765L15.5953 14.2393V9.18182V9.18176C15.5935 7.6408 15.0369 6.15199 14.0274 4.98772C13.0274 3.83437 11.6491 3.07588 10.1407 2.84776V1.90909C10.1407 1.65472 10.0397 1.41078 9.85981 1.23091C9.67994 1.05105 9.43599 0.95 9.18163 0.95C8.92726 0.95 8.68331 1.05105 8.50345 1.23091C8.32358 1.41078 8.22253 1.65472 8.22253 1.90909V2.84776C6.71411 3.07588 5.33585 3.83437 4.33583 4.98772C3.32635 6.15199 2.76979 7.6408 2.76799 9.18176V9.18182V14.2393L1.23081 15.7765L1.23081 15.7765C1.09672 15.9106 1.00541 16.0815 0.968418 16.2675C0.931428 16.4535 0.950421 16.6463 1.023 16.8215C1.09557 16.9968 1.21847 17.1465 1.37615 17.2519C1.53384 17.3573 1.71923 17.4136 1.90889 17.4136H16.4544C16.644 17.4137 16.8294 17.3575 16.9872 17.2522C17.1449 17.1468 17.2679 16.9971 17.3405 16.8219ZM14.1391 15.4955H4.22415L4.40516 15.3144C4.58503 15.1346 4.68612 14.8907 4.68617 14.6364V9.18182C4.68617 7.98955 5.1598 6.84611 6.00286 6.00305C6.84592 5.15999 7.98936 4.68636 9.18163 4.68636C10.3739 4.68636 11.5173 5.15999 12.3604 6.00305C13.2035 6.84611 13.6771 7.98955 13.6771 9.18182V14.6364C13.6771 14.8907 13.7782 15.1346 13.9581 15.3144C13.9581 15.3144 13.9581 15.3145 13.9581 15.3145L14.1391 15.4955Z"
				  fill="white"
				  stroke="white"
				  stroke-width="0.1" />
		</symbol>
		<symbol xmlns="http://www.w3.org/2000/svg"
				id="burger"
				class="burger"
				viewBox="0 0 18 14">
			<path
				  d="M16.875 14H1.125C0.50366 14 0 13.4776 0 12.8333C0 12.189 0.50366 11.6667 1.125 11.6667H16.875C17.4963 11.6667 18 12.189 18 12.8333C18 13.4776 17.4963 14 16.875 14ZM16.875 8.16665H1.125C0.50366 8.16665 0 7.64434 0 7.00002C0 6.3557 0.50366 5.83335 1.125 5.83335H16.875C17.4963 5.83335 18 6.35566 18 7.00002C18 7.64438 17.4963 8.16665 16.875 8.16665ZM16.875 2.33334H1.125C0.50366 2.33334 0 1.81103 0 1.16667C0 0.522313 0.50366 0 1.125 0H16.875C17.4963 0 18 0.522313 18 1.16667C18 1.81103 17.4963 2.33334 16.875 2.33334Z" />
		</symbol>
		<symbol class="cross"
				viewBox="0 0 1024 1024"
				version="1.1"
				xmlns="http://www.w3.org/2000/svg"
				id="cross">
			<path
				  d="M810.65984 170.65984q18.3296 0 30.49472 12.16512t12.16512 30.49472q0 18.00192-12.32896 30.33088l-268.67712 268.32896 268.67712 268.32896q12.32896 12.32896 12.32896 30.33088 0 18.3296-12.16512 30.49472t-30.49472 12.16512q-18.00192 0-30.33088-12.32896l-268.32896-268.67712-268.32896 268.67712q-12.32896 12.32896-30.33088 12.32896-18.3296 0-30.49472-12.16512t-12.16512-30.49472q0-18.00192 12.32896-30.33088l268.67712-268.32896-268.67712-268.32896q-12.32896-12.32896-12.32896-30.33088 0-18.3296 12.16512-30.49472t30.49472-12.16512q18.00192 0 30.33088 12.32896l268.32896 268.67712 268.32896-268.67712q12.32896-12.32896 30.33088-12.32896z" />
		</symbol>
		<symbol xmlns="http://www.w3.org/2000/svg"
				id="pencil"
				class="pencil">
			<path fill-rule="evenodd"
				  clip-rule="evenodd"
				  d="M12.0392 4.99999L13.3841 3.65512L16.3447 6.61377L14.999 7.9598L12.0392 4.99999ZM9.91789 4.29289L12.2351 1.97568L12.2353 1.97545C12.54 1.67094 12.9532 1.49988 13.384 1.49988C13.8148 1.49988 14.2279 1.67093 14.5327 1.97545L14.5327 1.97545L18.0241 5.46451L18.0245 5.46498C18.329 5.76969 18.5001 6.18286 18.5001 6.61365C18.5001 7.04444 18.329 7.45761 18.0245 7.76232L18.0244 7.76247L15.7422 10.0452C15.7309 10.0577 15.7192 10.07 15.7071 10.0821C15.6951 10.0941 15.6828 10.1058 15.6704 10.117L8.39001 17.3992L8.38953 17.3997C8.08502 17.7038 7.67227 17.8748 7.24187 17.875H7.24141H3.75C3.31903 17.875 2.9057 17.7038 2.60095 17.399C2.2962 17.0943 2.125 16.681 2.125 16.25V12.7586V12.7581C2.1252 12.3277 2.29614 11.915 2.60031 11.6105L2.60071 11.6101L7.41789 6.79287L9.91789 4.29289ZM13.585 9.37418L7.08576 15.875H4.125V12.9142L8.83211 8.20709L10.625 6.4142L13.585 9.37418Z"
				  fill="#BBBBBB" />
		</symbol>
		<symbol xmlns="http://www.w3.org/2000/svg"
				viewBox="0 0 20 20"
				id="exit"
				class="exit">
			<path fill-rule="evenodd"
				  clip-rule="evenodd"
				  d="M3.60095 2.60095C3.9057 2.29621 4.31902 2.125 4.75 2.125H9.125C9.67728 2.125 10.125 2.57272 10.125 3.125C10.125 3.67728 9.67728 4.125 9.125 4.125H5.125V15.875H9.125C9.67728 15.875 10.125 16.3227 10.125 16.875C10.125 17.4273 9.67728 17.875 9.125 17.875H4.75C4.31902 17.875 3.9057 17.7038 3.60095 17.399C3.2962 17.0943 3.125 16.681 3.125 16.25V3.75C3.125 3.31902 3.29621 2.9057 3.60095 2.60095ZM8.125 10C8.125 9.44772 8.57272 9 9.125 9H15.4608L14.0429 7.58211C13.6524 7.19158 13.6524 6.55842 14.0429 6.16789C14.4334 5.77737 15.0666 5.77737 15.4571 6.16789L18.5815 9.2923C18.5839 9.29467 18.5863 9.29705 18.5886 9.29945C18.6813 9.3938 18.7514 9.50195 18.7991 9.61722C18.8477 9.73425 18.8746 9.8625 18.875 9.997C18.875 9.998 18.875 9.999 18.875 10C18.875 10.001 18.875 10.002 18.875 10.003C18.8742 10.2746 18.7651 10.5208 18.5886 10.7005C18.5862 10.703 18.5838 10.7054 18.5814 10.7078L15.4571 13.8321C15.0666 14.2226 14.4334 14.2226 14.0429 13.8321C13.6524 13.4416 13.6524 12.8084 14.0429 12.4179L15.4608 11H9.125C8.57272 11 8.125 10.5523 8.125 10Z"
				  fill="#BBBBBB" />
		</symbol>
		<symbol xmlns="http://www.w3.org/2000/svg"
				id="plus"
				class="plus"
				viewBox="0 0 20 21"
				fill="none">
			<path d="M18.8008 9.30058L11.0229 9.3241V1.69921C11.0232 1.54163 10.9924 1.38554 10.9323 1.23989C10.8721 1.09425 10.7838 0.961911 10.6724 0.850488C10.5609 0.739064 10.4286 0.650744 10.283 0.590598C10.1373 0.530452 9.98122 0.499665 9.82365 0.500003C9.66607 0.499665 9.50998 0.530452 9.36433 0.590598C9.21868 0.650744 9.08635 0.739064 8.97493 0.850488C8.8635 0.961911 8.77518 1.09425 8.71504 1.23989C8.65489 1.38554 8.6241 1.54163 8.62444 1.69921L8.64796 9.3008H1.19921C1.04163 9.30046 0.885539 9.33125 0.739892 9.39139C0.594245 9.45154 0.461911 9.53986 0.350488 9.65128C0.239064 9.7627 0.150744 9.89504 0.090598 10.0407C0.0304521 10.1863 -0.000335392 10.3424 2.75703e-06 10.5C-0.000335493 10.6576 0.0304535 10.8136 0.090602 10.9593C0.150751 11.1049 0.239074 11.2372 0.3505 11.3486C0.461927 11.4601 0.594262 11.5484 0.739908 11.6085C0.885554 11.6686 1.04164 11.6994 1.19921 11.699H8.6362V19.3008C8.63589 19.4584 8.6667 19.6144 8.72685 19.7601C8.78701 19.9057 8.87533 20.038 8.98675 20.1495C9.09817 20.2609 9.23049 20.3492 9.37612 20.4093C9.52176 20.4695 9.67784 20.5003 9.8354 20.5C9.99297 20.5003 10.1491 20.4695 10.2947 20.4093C10.4403 20.3492 10.5726 20.2609 10.6841 20.1495C10.7955 20.038 10.8838 19.9057 10.944 19.7601C11.0041 19.6144 11.0349 19.4584 11.0346 19.3008V11.6992H18.8008C18.9584 11.6995 19.1144 11.6687 19.2601 11.6086C19.4057 11.5484 19.538 11.4601 19.6495 11.3487C19.7609 11.2372 19.8492 11.1049 19.9093 10.9593C19.9695 10.8136 20.0003 10.6576 20 10.5C19.9997 10.182 19.8733 9.87714 19.6485 9.65227C19.4236 9.4274 19.1188 9.30092 18.8008 9.30058Z"
				  fill="white" />
		</symbol>
		<symbol xmlns="http://www.w3.org/2000/svg"
				id="dots"
				class="dots"
				viewBox="0 0 5 19">
			<path
				  d="M0.515564 9.63879C0.515564 10.7572 1.42568 11.6673 2.54406 11.6673C3.66244 11.6673 4.57256 10.7572 4.57256 9.63879C4.57256 8.52041 3.66244 7.61029 2.54406 7.61029C1.42568 7.61029 0.515564 8.52041 0.515564 9.63879ZM0.515564 16.4004C0.515564 17.5188 1.42568 18.4289 2.54406 18.4289C3.66244 18.4289 4.57256 17.5188 4.57256 16.4004C4.57256 15.2821 3.66244 14.3719 2.54406 14.3719C1.42568 14.3719 0.515564 15.2821 0.515564 16.4004ZM0.515564 2.87713C0.515564 3.99551 1.42568 4.90563 2.54406 4.90563C3.66244 4.90563 4.57256 3.99551 4.57256 2.87713C4.57256 1.75875 3.66244 0.848633 2.54406 0.848633C1.42568 0.848633 0.515564 1.75875 0.515564 2.87713Z" />
		</symbol>
		<symbol xmlns="http://www.w3.org/2000/svg"
				id="dotsBig"
				class="dotsBig"
				viewBox="0 0 6 20">
			<path
				  d="M0.75 10C0.75 11.2405 1.7595 12.25 3 12.25C4.2405 12.25 5.25 11.2405 5.25 10C5.25 8.7595 4.2405 7.75 3 7.75C1.7595 7.75 0.75 8.7595 0.75 10ZM0.75 17.5C0.75 18.7405 1.7595 19.75 3 19.75C4.2405 19.75 5.25 18.7405 5.25 17.5C5.25 16.2595 4.2405 15.25 3 15.25C1.7595 15.25 0.75 16.2595 0.75 17.5ZM0.75 2.5C0.75 3.7405 1.7595 4.75 3 4.75C4.2405 4.75 5.25 3.7405 5.25 2.5C5.25 1.2595 4.2405 0.25 3 0.25C1.7595 0.25 0.75 1.2595 0.75 2.5Z" />
		</symbol>
		<symbol xmlns="http://www.w3.org/2000/svg"
				viewBox="0 0 12 13"
				fill="none"
				class="small-cross"
				id="small-cross">
			<path d="M7.09749 6.5L11.7724 1.82505C11.8448 1.75297 11.9022 1.66725 11.9413 1.57284C11.9803 1.47843 12.0003 1.37722 11.9999 1.27505C12.0012 1.17312 11.9817 1.072 11.9426 0.97787C11.9035 0.883736 11.8456 0.798565 11.7724 0.727557C11.7014 0.65442 11.6163 0.596526 11.5221 0.557411C11.428 0.518297 11.3269 0.498782 11.2249 0.500059C11.1228 0.499726 11.0216 0.519661 10.9272 0.558712C10.8328 0.597762 10.747 0.655151 10.675 0.727557L6 5.40251L1.32505 0.727557C1.25297 0.655151 1.16725 0.597762 1.07284 0.558712C0.978431 0.519661 0.877216 0.499726 0.775051 0.500059C0.673123 0.498782 0.572003 0.518297 0.47787 0.557411C0.383736 0.596526 0.298565 0.65442 0.227557 0.727557C0.15442 0.798565 0.0965262 0.883736 0.0574114 0.97787C0.0182965 1.072 -0.00121827 1.17312 5.8871e-05 1.27505C-0.000274238 1.37722 0.0196614 1.47843 0.0587117 1.57284C0.0977619 1.66725 0.155151 1.75297 0.227557 1.82505L4.90251 6.5L0.227557 11.175C0.155151 11.247 0.0977619 11.3328 0.0587117 11.4272C0.0196614 11.5216 -0.000274238 11.6228 5.8871e-05 11.7249C-0.00121827 11.8269 0.0182965 11.928 0.0574114 12.0221C0.0965262 12.1163 0.15442 12.2014 0.227557 12.2724C0.298565 12.3456 0.383736 12.4035 0.47787 12.4426C0.572003 12.4817 0.673123 12.5012 0.775051 12.4999C0.877216 12.5003 0.978431 12.4803 1.07284 12.4413C1.16725 12.4022 1.25297 12.3448 1.32505 12.2724L6 7.59749L10.675 12.2724C10.747 12.3448 10.8328 12.4022 10.9272 12.4413C11.0216 12.4803 11.1228 12.5003 11.2249 12.4999C11.4303 12.4993 11.627 12.4174 11.7722 12.2722C11.9174 12.127 11.9993 11.9303 11.9999 11.7249C12.0003 11.6228 11.9803 11.5216 11.9413 11.4272C11.9022 11.3328 11.8448 11.247 11.7724 11.175L7.09749 6.5Z"
				  fill="#777777" />
		</symbol>
		<symbol xmlns="http://www.w3.org/2000/svg"
				class="subs"
				id="subs"
				viewBox="0 0 44 44">
			<g clip-path="url(#clip0_87_621)">
				<path
					  d="M22.0008 24.8462C20.5513 24.8462 19.1344 24.4164 17.9292 23.6111C16.724 22.8058 15.7847 21.6612 15.23 20.3221C14.6753 18.9829 14.5301 17.5093 14.8129 16.0877C15.0957 14.6661 15.7937 13.3602 16.8186 12.3353C17.8436 11.3103 19.1494 10.6123 20.5711 10.3295C21.9927 10.0468 23.4663 10.1919 24.8054 10.7466C26.1446 11.3013 27.2892 12.2406 28.0945 13.4458C28.8998 14.651 29.3296 16.068 29.3296 17.5175C29.326 19.4601 28.5527 21.322 27.179 22.6957C25.8054 24.0693 23.9434 24.8426 22.0008 24.8462ZM22.0008 13.1175C21.1306 13.1175 20.2799 13.3755 19.5563 13.859C18.8328 14.3425 18.2688 15.0297 17.9358 15.8337C17.6027 16.6377 17.5156 17.5224 17.6854 18.3759C17.8552 19.2294 18.2742 20.0134 18.8896 20.6287C19.5049 21.2441 20.2889 21.6632 21.1424 21.8329C21.996 22.0027 22.8806 21.9156 23.6846 21.5825C24.4886 21.2495 25.1758 20.6856 25.6593 19.962C26.1428 19.2384 26.4008 18.3877 26.4008 17.5175C26.4008 16.3505 25.9373 15.2314 25.1121 14.4062C24.2869 13.581 23.1678 13.1175 22.0008 13.1175ZM36.6721 26.3175C35.5109 26.3175 34.3757 25.9731 33.4102 25.328C32.4447 24.6828 31.6921 23.7659 31.2478 22.6931C30.8034 21.6202 30.6871 20.4397 30.9137 19.3008C31.1402 18.1619 31.6994 17.1157 32.5205 16.2946C33.3416 15.4735 34.3878 14.9143 35.5267 14.6878C36.6656 14.4612 37.8461 14.5775 38.9189 15.0219C39.9917 15.4663 40.9087 16.2188 41.5539 17.1843C42.199 18.1499 42.5433 19.285 42.5433 20.4462C42.5433 22.0034 41.9248 23.4967 40.8237 24.5978C39.7226 25.6989 38.2292 26.3175 36.6721 26.3175ZM36.6721 17.5175C36.0928 17.5175 35.5266 17.6892 35.045 18.0111C34.5633 18.3329 34.1879 18.7903 33.9663 19.3254C33.7446 19.8606 33.6866 20.4495 33.7996 21.0176C33.9126 21.5857 34.1916 22.1076 34.6012 22.5172C35.0107 22.9268 35.5326 23.2057 36.1007 23.3187C36.6688 23.4317 37.2577 23.3737 37.7929 23.152C38.328 22.9304 38.7854 22.555 39.1073 22.0733C39.4291 21.5917 39.6008 21.0255 39.6008 20.4462C39.5972 19.6706 39.2875 18.9277 38.739 18.3793C38.1906 17.8308 37.4477 17.5211 36.6721 17.5175ZM7.32959 26.3175C6.16837 26.3175 5.03322 25.9731 4.0677 25.328C3.10217 24.6828 2.34964 23.7659 1.90526 22.6931C1.46088 21.6202 1.34461 20.4397 1.57115 19.3008C1.7977 18.1619 2.35688 17.1157 3.17799 16.2946C3.9991 15.4735 5.04525 14.9143 6.18417 14.6878C7.32308 14.4612 8.50359 14.5775 9.57642 15.0219C10.6493 15.4663 11.5662 16.2188 12.2114 17.1843C12.8565 18.1499 13.2008 19.285 13.2008 20.4462C13.2008 22.0034 12.5823 23.4967 11.4812 24.5978C10.3801 25.6989 8.88674 26.3175 7.32959 26.3175ZM7.32959 17.5175C6.75034 17.5175 6.18409 17.6892 5.70246 18.0111C5.22083 18.3329 4.84545 18.7903 4.62378 19.3254C4.40211 19.8606 4.34411 20.4495 4.45711 21.0176C4.57012 21.5857 4.84906 22.1076 5.25865 22.5172C5.66824 22.9268 6.1901 23.2057 6.75822 23.3187C7.32634 23.4317 7.91521 23.3737 8.45037 23.152C8.98553 22.9304 9.44294 22.555 9.76476 22.0733C10.0866 21.5917 10.2583 21.0255 10.2583 20.4462C10.2547 19.6706 9.945 18.9277 9.39653 18.3793C8.84807 17.8308 8.10523 17.5211 7.32959 17.5175ZM30.8008 36.3137C30.4291 36.311 30.0722 36.1678 29.8018 35.9127C29.5315 35.6576 29.3676 35.3096 29.3433 34.9387C29.2202 33.6793 28.6322 32.511 27.6941 31.6619C26.7559 30.8127 25.535 30.3436 24.2696 30.3462H19.7321C18.4667 30.3436 17.2458 30.8127 16.3076 31.6619C15.3695 32.511 14.7815 33.6793 14.6583 34.9387C14.5879 35.298 14.3861 35.618 14.0923 35.8364C13.7985 36.0548 13.4338 36.1558 13.0696 36.1197C12.7053 36.0836 12.3675 35.9131 12.1223 35.6413C11.877 35.3695 11.7419 35.016 11.7433 34.65C11.9543 32.681 12.8878 30.8601 14.3634 29.5394C15.839 28.2188 17.7518 27.4921 19.7321 27.5H24.2696C26.2627 27.4942 28.1863 28.2323 29.6638 29.57C31.1414 30.9077 32.0666 32.7486 32.2583 34.7325C32.2772 34.9291 32.2562 35.1274 32.1967 35.3157C32.1373 35.5041 32.0405 35.6785 31.9122 35.8286C31.7839 35.9787 31.6267 36.1015 31.4499 36.1896C31.2731 36.2776 31.0805 36.3292 30.8833 36.3412L30.8008 36.3137ZM42.5296 35.3237C42.1579 35.321 41.801 35.1778 41.5306 34.9227C41.2602 34.6676 41.0964 34.3196 41.0721 33.9487C41.0033 33.2291 40.6671 32.5616 40.1299 32.0778C39.5927 31.5941 38.8937 31.3295 38.1708 31.3362H35.1458C34.8573 31.3375 34.5703 31.3792 34.2933 31.46C34.1016 31.5674 33.8882 31.6304 33.6688 31.6446C33.4495 31.6587 33.2298 31.6234 33.0258 31.5415C32.8219 31.4595 32.6389 31.3329 32.4903 31.1709C32.3417 31.009 32.2313 30.8158 32.1672 30.6055C32.103 30.3953 32.0868 30.1734 32.1197 29.9561C32.1527 29.7387 32.2338 29.5316 32.3573 29.3497C32.4808 29.1679 32.6435 29.0161 32.8334 28.9053C33.0232 28.7946 33.2355 28.7279 33.4546 28.71C34.0037 28.5475 34.5732 28.4641 35.1458 28.4625H38.1708C39.6229 28.4522 41.0263 28.9855 42.1051 29.9574C43.1839 30.9294 43.8601 32.2697 44.0008 33.715C44.0197 33.9116 43.9987 34.1099 43.9392 34.2982C43.8798 34.4866 43.783 34.661 43.6547 34.8111C43.5264 34.9612 43.3692 35.084 43.1924 35.1721C43.0156 35.2601 42.823 35.3117 42.6258 35.3237H42.5296ZM1.47209 35.3237H1.37584C1.17872 35.3117 0.986038 35.2601 0.809277 35.1721C0.632517 35.084 0.475296 34.9612 0.346986 34.8111C0.218676 34.661 0.121902 34.4866 0.0624327 34.2982C0.00296343 34.1099 -0.0179841 33.9116 0.000838691 33.715C0.141337 32.2721 0.815612 30.9337 1.89152 29.9621C2.96743 28.9905 4.3674 28.4557 5.81709 28.4625H8.84209C9.41474 28.4641 9.98422 28.5475 10.5333 28.71C10.7524 28.7279 10.9647 28.7946 11.1546 28.9053C11.3444 29.0161 11.5071 29.1679 11.6306 29.3497C11.7541 29.5316 11.8353 29.7387 11.8682 29.9561C11.9011 30.1734 11.8849 30.3953 11.8208 30.6055C11.7566 30.8158 11.6462 31.009 11.4976 31.1709C11.349 31.3329 11.1661 31.4595 10.9621 31.5415C10.7582 31.6234 10.5384 31.6587 10.3191 31.6446C10.0998 31.6304 9.88636 31.5674 9.69459 31.46C9.41758 31.3792 9.13064 31.3375 8.84209 31.3362H5.81709C5.09426 31.3295 4.3952 31.5941 3.85803 32.0778C3.32086 32.5616 2.98465 33.2291 2.91584 33.9487C2.89173 34.3173 2.72986 34.6633 2.46238 34.9181C2.19491 35.1728 1.84141 35.3176 1.47209 35.3237Z" />
			</g>
			<defs>
				<clipPath id="clip0_87_621">
					<rect width="44"
						  height="44"
						  fill="white" />
				</clipPath>
			</defs>
		</symbol>
		<symbol xmlns="http://www.w3.org/2000/svg"
				id="camera"
				class="camera"
				viewBox="0 0 44 44">
			<g clip-path="url(#clip0_87_628)">
				<path
					  d="M42.822 11.4269C42.4646 11.2177 42.058 11.1074 41.6439 11.1074C41.2297 11.1074 40.8231 11.2177 40.4657 11.4269L33.7562 15.3007V13.8046C33.7545 12.245 33.1341 10.7498 32.0313 9.64703C30.9285 8.54423 29.4333 7.92389 27.8737 7.92212H5.88242C4.32284 7.92389 2.82764 8.54423 1.72485 9.64703C0.622064 10.7498 0.00175139 12.245 0 13.8046L0 30.1953C0.00175139 31.7549 0.622064 33.2501 1.72485 34.3529C2.82764 35.4557 4.32284 36.076 5.88242 36.0778H27.8733C29.433 36.0762 30.9283 35.4559 32.0312 34.3531C33.1341 33.2503 33.7545 31.755 33.7562 30.1953V28.6991L40.4662 32.5731C40.8243 32.7798 41.2306 32.8886 41.6441 32.8885C42.0576 32.8884 42.4639 32.7795 42.822 32.5728C43.1801 32.366 43.4775 32.0686 43.6843 31.7105C43.891 31.3524 43.9999 30.9461 44 30.5326V13.4673C44.0025 13.0533 43.8946 12.646 43.6876 12.2874C43.4806 11.9288 43.1818 11.6318 42.822 11.4269ZM31.0056 30.1957C31.0046 31.0262 30.6743 31.8224 30.087 32.4096C29.4998 32.9969 28.7036 33.3272 27.8731 33.3282H5.88242C5.05187 33.3272 4.25562 32.9968 3.66837 32.4095C3.08112 31.8222 2.75084 31.0259 2.75 30.1953V13.8046C2.75093 12.9741 3.08125 12.1779 3.66849 11.5907C4.25573 11.0034 5.05193 10.6731 5.88242 10.6721H27.8733C28.7039 10.6729 29.5002 11.0032 30.0876 11.5905C30.6749 12.1778 31.0053 12.974 31.0062 13.8046L31.0056 30.1957ZM41.25 29.8505L33.7562 25.5234V18.4765L41.25 14.1494V29.8505Z" />
			</g>
			<defs>
				<clipPath id="clip0_87_628">
					<rect width="44"
						  height="44"
						  fill="white" />
				</clipPath>
			</defs>
		</symbol>
		<symbol xmlns="http://www.w3.org/2000/svg"
				viewBox="0 0 24 24"
				id="facebook"
				class="facebook">
			<g clip-path="url(#clip0_106_2854)">
				<path
					  d="M12 2C6.477 2 2 6.477 2 12C2 16.991 5.657 21.128 10.438 21.879V14.89H7.898V12H10.438V9.797C10.438 7.291 11.93 5.907 14.215 5.907C15.309 5.907 16.453 6.102 16.453 6.102V8.562H15.193C13.95 8.562 13.563 9.333 13.563 10.124V12H16.336L15.893 14.89H13.563V21.879C18.343 21.129 22 16.99 22 12C22 6.477 17.523 2 12 2Z" />
			</g>
			<defs>
				<clipPath id="clip0_106_2854">
					<rect width="24"
						  height="24"
						  fill="white" />
				</clipPath>
			</defs>
		</symbol>
		<symbol xmlns="http://www.w3.org/2000/svg"
				id="inst"
				class="inst"
				viewBox="0 0 24 24">
			<g clip-path="url(#clip0_106_2876)">
				<path
					  d="M12 2C14.717 2 15.056 2.01 16.122 2.06C17.187 2.11 17.912 2.277 18.55 2.525C19.21 2.779 19.766 3.123 20.322 3.678C20.8305 4.1779 21.224 4.78259 21.475 5.45C21.722 6.087 21.89 6.813 21.94 7.878C21.987 8.944 22 9.283 22 12C22 14.717 21.99 15.056 21.94 16.122C21.89 17.187 21.722 17.912 21.475 18.55C21.2247 19.2178 20.8311 19.8226 20.322 20.322C19.822 20.8303 19.2173 21.2238 18.55 21.475C17.913 21.722 17.187 21.89 16.122 21.94C15.056 21.987 14.717 22 12 22C9.283 22 8.944 21.99 7.878 21.94C6.813 21.89 6.088 21.722 5.45 21.475C4.78233 21.2245 4.17753 20.8309 3.678 20.322C3.16941 19.8222 2.77593 19.2175 2.525 18.55C2.277 17.913 2.11 17.187 2.06 16.122C2.013 15.056 2 14.717 2 12C2 9.283 2.01 8.944 2.06 7.878C2.11 6.812 2.277 6.088 2.525 5.45C2.77524 4.78218 3.1688 4.17732 3.678 3.678C4.17767 3.16923 4.78243 2.77573 5.45 2.525C6.088 2.277 6.812 2.11 7.878 2.06C8.944 2.013 9.283 2 12 2ZM12 7C10.6739 7 9.40215 7.52678 8.46447 8.46447C7.52678 9.40215 7 10.6739 7 12C7 13.3261 7.52678 14.5979 8.46447 15.5355C9.40215 16.4732 10.6739 17 12 17C13.3261 17 14.5979 16.4732 15.5355 15.5355C16.4732 14.5979 17 13.3261 17 12C17 10.6739 16.4732 9.40215 15.5355 8.46447C14.5979 7.52678 13.3261 7 12 7ZM18.5 6.75C18.5 6.41848 18.3683 6.10054 18.1339 5.86612C17.8995 5.6317 17.5815 5.5 17.25 5.5C16.9185 5.5 16.6005 5.6317 16.3661 5.86612C16.1317 6.10054 16 6.41848 16 6.75C16 7.08152 16.1317 7.39946 16.3661 7.63388C16.6005 7.8683 16.9185 8 17.25 8C17.5815 8 17.8995 7.8683 18.1339 7.63388C18.3683 7.39946 18.5 7.08152 18.5 6.75ZM12 9C12.7956 9 13.5587 9.31607 14.1213 9.87868C14.6839 10.4413 15 11.2044 15 12C15 12.7956 14.6839 13.5587 14.1213 14.1213C13.5587 14.6839 12.7956 15 12 15C11.2044 15 10.4413 14.6839 9.87868 14.1213C9.31607 13.5587 9 12.7956 9 12C9 11.2044 9.31607 10.4413 9.87868 9.87868C10.4413 9.31607 11.2044 9 12 9Z" />
			</g>
			<defs>
				<clipPath id="clip0_106_2876">
					<rect width="24"
						  height="24"
						  fill="white" />
				</clipPath>
			</defs>
		</symbol>
		<symbol xmlns="http://www.w3.org/2000/svg"
				viewBox="0 0 24 24"
				id="twitter"
				class="twitter">
			<g clip-path="url(#clip0_106_2886)">
				<path d="M22.1623 5.65593C21.3989 5.99362 20.5893 6.2154 19.7603 6.31393C20.634 5.79136 21.288 4.96894 21.6003 3.99993C20.7803 4.48793 19.8813 4.82993 18.9443 5.01493C18.3149 4.34151 17.4807 3.89489 16.5713 3.74451C15.6618 3.59413 14.7282 3.74842 13.9156 4.18338C13.1029 4.61834 12.4567 5.30961 12.0774 6.14972C11.6981 6.98983 11.607 7.93171 11.8183 8.82893C10.1554 8.74558 8.52863 8.31345 7.04358 7.56059C5.55854 6.80773 4.24842 5.75097 3.1983 4.45893C2.82659 5.09738 2.63125 5.82315 2.6323 6.56193C2.6323 8.01193 3.3703 9.29293 4.4923 10.0429C3.82831 10.022 3.17893 9.84271 2.5983 9.51993V9.57193C2.5985 10.5376 2.93267 11.4735 3.54414 12.221C4.15562 12.9684 5.00678 13.4814 5.9533 13.6729C5.33691 13.84 4.6906 13.8646 4.0633 13.7449C4.33016 14.5762 4.8503 15.3031 5.55089 15.824C6.25147 16.3449 7.09742 16.6337 7.9703 16.6499C7.10278 17.3313 6.10947 17.8349 5.04718 18.1321C3.98488 18.4293 2.87442 18.5142 1.7793 18.3819C3.69099 19.6114 5.91639 20.264 8.1893 20.2619C15.8823 20.2619 20.0893 13.8889 20.0893 8.36193C20.0893 8.18193 20.0843 7.99993 20.0763 7.82193C20.8952 7.23009 21.6019 6.49695 22.1633 5.65693L22.1623 5.65593Z"
					  fill="#BBBBBB" />
			</g>
			<defs>
				<clipPath id="clip0_106_2886">
					<rect width="24"
						  height="24" />
				</clipPath>
			</defs>
		</symbol>
		<symbol xmlns="http://www.w3.org/2000/svg"
				id="return-arrow"
				class="return-arrow"
				viewBox="0 0 8 14">
			<path
				  d="M6.99982 14C6.86821 14.0008 6.73775 13.9756 6.61591 13.9258C6.49407 13.876 6.38326 13.8027 6.28982 13.71L0.289816 7.71003C0.103565 7.52266 -0.000976562 7.26921 -0.000976562 7.00503C-0.000976562 6.74084 0.103565 6.48739 0.289816 6.30003L6.28982 0.300027C6.48112 0.136201 6.72719 0.0505949 6.97887 0.0603161C7.23055 0.0700372 7.46928 0.174369 7.64738 0.352464C7.82547 0.530558 7.92981 0.769298 7.93953 1.02097C7.94925 1.27265 7.86364 1.51873 7.69982 1.71003L2.40982 7.00003L7.69982 12.29C7.84024 12.4293 7.93621 12.6071 7.97559 12.8009C8.01498 12.9947 7.99601 13.1958 7.92108 13.3789C7.84616 13.5619 7.71864 13.7186 7.55466 13.8292C7.39067 13.9397 7.19759 13.9992 6.99982 14Z" />
		</symbol>
		<symbol xmlns="http://www.w3.org/2000/svg"
				id="like"
				class="like"
				viewBox="0 0 18 19">
			<path
				  d="M15.6715 6.0371H12.4527L12.7219 4.61377C12.8573 3.90078 12.8236 3.16348 12.6237 2.4676C12.4238 1.77172 12.0641 1.13889 11.5765 0.625515C11.3497 0.386181 11.0723 0.20717 10.7672 0.103223C10.462 -0.000723663 10.1379 -0.0266339 9.82146 0.0276258C9.505 0.0818856 9.20528 0.214763 8.94696 0.415318C8.68864 0.615873 8.47911 0.878369 8.33564 1.18119L6.63136 4.78661C6.35053 5.36559 5.96434 5.88039 5.49491 6.30154C5.41926 6.21793 5.32834 6.15138 5.22765 6.10593C5.12696 6.06048 5.01859 6.03706 4.90909 6.0371H0.818182C0.601187 6.0371 0.393079 6.12814 0.23964 6.29021C0.086201 6.45228 0 6.67209 0 6.90129V18.1358C0 18.365 0.086201 18.5848 0.23964 18.7469C0.393079 18.909 0.601187 19 0.818182 19H4.90909C5.0732 18.9992 5.23328 18.9462 5.36854 18.8481C5.50379 18.7499 5.60797 18.611 5.66755 18.4495L7.10509 18.9551C7.18843 18.9846 7.27573 18.9998 7.36364 19H13.4002C13.9392 18.9983 14.4704 18.8648 14.9524 18.6099C15.4343 18.355 15.8538 17.9857 16.1779 17.5309C17.3567 15.864 17.9957 13.8403 18 11.7598V8.49659C17.9996 7.84443 17.7541 7.21912 17.3175 6.75797C16.8809 6.29682 16.2889 6.03755 15.6715 6.0371ZM4.09091 17.2716H1.63636V7.76548H4.09091V17.2716ZM16.3636 11.7598C16.3607 13.467 15.8368 15.1277 14.8696 16.4956C14.6978 16.7367 14.4754 16.9324 14.2198 17.0673C13.9643 17.2023 13.6826 17.2728 13.3969 17.2733H7.49618L5.72727 16.6494V8.24857C6.7401 7.6033 7.56194 6.67178 8.1 5.5592L9.80182 1.95378C9.82935 1.89591 9.86948 1.84577 9.91892 1.80746C9.96836 1.76915 10.0257 1.74376 10.0862 1.73339C10.1467 1.72302 10.2087 1.72795 10.2671 1.74778C10.3255 1.76761 10.3786 1.80178 10.422 1.84748C10.7186 2.15986 10.9374 2.54497 11.0587 2.96841C11.1801 3.39186 11.2003 3.84045 11.1175 4.27414L10.6527 6.72845C10.6285 6.85402 10.6309 6.98373 10.66 7.10816C10.689 7.2326 10.7439 7.34866 10.8207 7.44792C10.8974 7.54719 10.9941 7.62718 11.1037 7.6821C11.2134 7.73703 11.3332 7.76551 11.4545 7.76548H15.6715C15.855 7.76548 16.0311 7.84251 16.1609 7.97962C16.2907 8.11673 16.3636 8.30269 16.3636 8.49659V11.7598Z" />
		</symbol>

		<symbol xmlns="http://www.w3.org/2000/svg"
				id="dislike"
				class="dislike"
				viewBox="0 0 18 19">
			<path
				  d="M2.32855 12.9629H5.54727L5.27809 14.3862C5.1427 15.0992 5.17644 15.8365 5.3763 16.5324C5.57616 17.2283 5.93593 17.8611 6.42355 18.3745C6.65035 18.6138 6.92772 18.7928 7.23284 18.8968C7.53796 19.0007 7.86209 19.0266 8.17854 18.9724C8.495 18.9181 8.79472 18.7852 9.05304 18.5847C9.31136 18.3841 9.52089 18.1216 9.66436 17.8188L11.3686 14.2134C11.6495 13.6344 12.0357 13.1196 12.5051 12.6985C12.5807 12.7821 12.6717 12.8486 12.7724 12.8941C12.873 12.9395 12.9814 12.9629 13.0909 12.9629H17.1818C17.3988 12.9629 17.6069 12.8719 17.7604 12.7098C17.9138 12.5477 18 12.3279 18 12.0987V0.864195C18 0.634996 17.9138 0.415184 17.7604 0.253117C17.6069 0.0910492 17.3988 0 17.1818 0H13.0909C12.9268 0.000831604 12.7667 0.0537701 12.6315 0.151941C12.4962 0.250111 12.392 0.388973 12.3325 0.550491L10.8949 0.044939C10.8116 0.0153866 10.7243 0.000211716 10.6364 0H4.59982C4.06085 0.00166893 3.52957 0.135185 3.04764 0.390076C2.56571 0.644966 2.14623 1.01431 1.82209 1.46913C0.643274 3.13598 0.00433922 5.15967 0 7.24021V10.5034C0.000432968 11.1556 0.245901 11.7809 0.682495 12.242C1.11909 12.7032 1.71111 12.9624 2.32855 12.9629ZM13.9091 1.72839H16.3636V11.2345H13.9091V1.72839ZM1.63636 7.24021C1.63929 5.53301 2.16321 3.87228 3.13036 2.50443C3.30219 2.26334 3.52461 2.06762 3.78016 1.93266C4.0357 1.79771 4.31739 1.72719 4.60309 1.72666H10.5038L12.2727 2.35061V10.7514C11.2599 11.3967 10.4381 12.3282 9.9 13.4408L8.19818 17.0462C8.17065 17.1041 8.13052 17.1542 8.08108 17.1925C8.03164 17.2309 7.97431 17.2562 7.91378 17.2666C7.85326 17.277 7.79127 17.2721 7.7329 17.2522C7.67453 17.2324 7.62145 17.1982 7.578 17.1525C7.28139 16.8401 7.06264 16.455 6.94128 16.0316C6.81993 15.6081 6.79975 15.1595 6.88255 14.7259L7.34727 12.2715C7.37154 12.146 7.36906 12.0163 7.34002 11.8918C7.31097 11.7674 7.25608 11.6513 7.17933 11.5521C7.10258 11.4528 7.00589 11.3728 6.89625 11.3179C6.78662 11.263 6.66679 11.2345 6.54545 11.2345H2.32855C2.14497 11.2345 1.96891 11.1575 1.8391 11.0204C1.70929 10.8833 1.63636 10.6973 1.63636 10.5034V7.24021Z" />
		</symbol>
		<symbol xmlns="http://www.w3.org/2000/svg"
				viewBox="0 0 20 17"
				id="comments"
				class="comments">
			<path d="M7.10169 5.50002H12.8983M12.8983 8.50004H7.10169M12.8983 1H7.10169C3.73177 1 1 3.68625 1 7.00003C1 10.3137 3.73177 13.0001 7.10169 13.0001H8.32203C9.16453 13.0001 9.84746 13.6716 9.84746 14.5001V16C16.1764 12.0404 18.9603 11.042 18.9995 7.08546C18.9998 7.05707 19 7.02861 19 7.00003C19 3.68629 16.2682 1 12.8983 1Z"
				  stroke-width="2"
				  stroke-miterlimit="10"
				  stroke-linecap="round"
				  stroke-linejoin="round" />
		</symbol>

	</defs>
</svg>