<!-- Пока оставляю с пред проекта -->
<svg>
	<defs>
		<svg xmlns="http://www.w3.org/2000/svg"
			 id="basket"
			 class="basket"
			 viewBox="0 0 21 20">
			<path fill-rule="evenodd"
				  clip-rule="evenodd"
				  d="M1.00611 1.30708e-07C0.739275 1.30708e-07 0.483366 0.105363 0.294684 0.292909C0.106001 0.480456 0 0.734823 0 1.00005C0 1.26528 0.106001 1.51965 0.294684 1.7072C0.483366 1.89475 0.739275 2.00011 1.00611 2.00011H1.481C1.70177 2.00006 1.91642 2.0722 2.09187 2.20539C2.26733 2.33858 2.39383 2.52543 2.4519 2.73715L2.87044 4.26323L5.03056 12.1337V14.0008C5.03056 14.6948 5.267 15.3328 5.66442 15.8409C5.37997 16.1596 5.1822 16.5453 5.08988 16.9614C4.99756 17.3775 5.01376 17.8101 5.13693 18.2182C5.2601 18.6264 5.48615 18.9964 5.79364 19.2933C6.10113 19.5901 6.47985 19.804 6.89385 19.9145C7.30784 20.025 7.74338 20.0285 8.15912 19.9246C8.57485 19.8208 8.95699 19.6131 9.26927 19.3212C9.58154 19.0293 9.81358 18.6629 9.94336 18.2568C10.0731 17.8507 10.0964 17.4184 10.0108 17.0009H13.1298C13.0516 17.3827 13.0643 17.7773 13.1668 18.1533C13.2693 18.5293 13.4588 18.8763 13.7202 19.1666C13.9815 19.4569 14.3075 19.6825 14.6722 19.8254C15.0368 19.9682 15.43 20.0244 15.8203 19.9895C16.2107 19.9545 16.5874 19.8293 16.9205 19.624C17.2535 19.4186 17.5337 19.1387 17.7386 18.8066C17.9435 18.4746 18.0676 18.0995 18.1008 17.7113C18.134 17.3231 18.0755 16.9326 17.9299 16.5709C18.0346 16.4209 18.096 16.2453 18.1074 16.0632C18.1189 15.881 18.0799 15.6992 17.9948 15.5374C17.9097 15.3757 17.7817 15.2402 17.6247 15.1456C17.4676 15.051 17.2875 15.0009 17.1039 15.0008H8.04991C7.78307 15.0008 7.52716 14.8954 7.33848 14.7079C7.1498 14.5204 7.0438 14.266 7.0438 14.0008V13.0007H17.3424C17.7839 13.0008 18.2132 12.8565 18.5641 12.5901C18.915 12.3238 19.168 11.9501 19.2842 11.5266L20.9292 5.5263C21.0106 5.2294 21.022 4.91784 20.9625 4.61585C20.903 4.31386 20.7742 4.02959 20.5861 3.78516C20.398 3.54073 20.1557 3.34274 19.8781 3.20659C19.6004 3.07043 19.2949 2.99979 18.9853 3.00016H4.61001L4.39369 2.21012C4.21932 1.57516 3.83972 1.01482 3.31338 0.615441C2.78704 0.216061 2.14317 -0.000194089 1.481 1.30708e-07H1.00611ZM15.5947 17.0009C15.4613 17.0009 15.3334 17.0536 15.239 17.1474C15.1447 17.2411 15.0917 17.3683 15.0917 17.5009C15.0917 17.6336 15.1447 17.7607 15.239 17.8545C15.3334 17.9483 15.4613 18.001 15.5947 18.001C15.7282 18.001 15.8561 17.9483 15.9505 17.8545C16.0448 17.7607 16.0978 17.6336 16.0978 17.5009C16.0978 17.3683 16.0448 17.2411 15.9505 17.1474C15.8561 17.0536 15.7282 17.0009 15.5947 17.0009ZM17.3414 11.0006H6.80535L5.15834 5.00027H18.9864L17.3414 11.0006ZM7.54585 17.0009C7.41243 17.0009 7.28447 17.0536 7.19013 17.1474C7.09579 17.2411 7.04279 17.3683 7.04279 17.5009C7.04279 17.6336 7.09579 17.7607 7.19013 17.8545C7.28447 17.9483 7.41243 18.001 7.54585 18.001C7.67927 18.001 7.80722 17.9483 7.90156 17.8545C7.9959 17.7607 8.0489 17.6336 8.0489 17.5009C8.0489 17.3683 7.9959 17.2411 7.90156 17.1474C7.80722 17.0536 7.67927 17.0009 7.54585 17.0009Z" />
		</svg>
		<svg xmlns="http://www.w3.org/2000/svg"
			 class="validated-sign"
			 id="validated-sign"
			 viewBox="0 0 20 20">
			<circle cx="10"
					cy="10"
					r="10"
					fill="#36DD65" />
			<path d="M8.58348 11.4804L6.64256 9.37582C6.26884 8.97059 5.65401 8.97059 5.28029 9.37582C4.90657 9.78105 4.90657 10.4477 5.28029 10.8529L7.90235 13.6961C8.27607 14.1013 8.8909 14.1013 9.26462 13.6961L14.7197 7.78105C15.0934 7.37582 15.0934 6.70915 14.7197 6.30392C14.346 5.89869 13.7312 5.89869 13.3574 6.30392L8.58348 11.4804Z"
				  fill="white" />
		</svg>
		<svg xmlns="http://www.w3.org/2000/svg"
			 class="not-validated-sign"
			 id="not-validated-sign"
			 viewBox="0 0 21 20">
			<ellipse cx="10.5"
					 cy="10"
					 rx="10.5"
					 ry="10"
					 fill="#E74836" />
			<path d="M7.34961 7L14.1746 13.5"
				  stroke="white"
				  stroke-width="2"
				  stroke-linecap="round" />
			<path d="M14.1758 7L7.35078 13.5"
				  stroke="white"
				  stroke-width="2"
				  stroke-linecap="round" />
		</svg>
		<svg xmlns="http://www.w3.org/2000/svg"
			 class="available-sign"
			 id="available-sign"
			 viewBox="0 0 20 20">
			<path d="M15 6L8.125 13L5 9.81818"
				  stroke="white"
				  stroke-width="2.5"
				  stroke-linecap="round"
				  stroke-linejoin="round" />
		</svg>
		<svg xmlns="http://www.w3.org/2000/svg"
			 class="ending-sign"
			 id="ending-sign"
			 viewBox="0 0 14 14">
			<path d="M7 14C3.13401 14 0 10.866 0 7C0 3.13401 3.13401 0 7 0C10.866 0 14 3.13401 14 7C13.9958 10.8642 10.8642 13.9958 7 14ZM6.3 9.1V10.5H7.7V9.1H6.3ZM6.3 3.5V7.7H7.7V3.5H6.3Z"
				  fill="white" />
		</svg>
		<svg xmlns="http://www.w3.org/2000/svg"
			 class="out-of-stock-sign"
			 id="out-of-stock-sign"
			 viewBox="0 0 18 18">
			<path d="M13.5 4.5L5.54464 12.4579L5.39999 12.6"
				  stroke="white"
				  stroke-width="2.5"
				  stroke-linecap="round"
				  stroke-linejoin="round" />
			<path d="M5.39999 4.5L13.3579 12.4554L13.5 12.6"
				  stroke="white"
				  stroke-width="2.5"
				  stroke-linecap="round"
				  stroke-linejoin="round" />
		</svg>
		<svg xmlns="http://www.w3.org/2000/svg"
			 class="spinner"
			 id='spinner'
			 viewBox="0 0 122 122">
			<path d="M111.833 61C111.833 89.0745 89.0745 111.833 61 111.833C32.9255 111.833 10.1667 89.0745 10.1667 61C10.1667 32.9255 32.9255 10.1667 61 10.1667C89.0745 10.1667 111.833 32.9255 111.833 61ZM27.9583 61C27.9583 79.2484 42.7516 94.0416 61 94.0416C79.2484 94.0416 94.0416 79.2484 94.0416 61C94.0416 42.7516 79.2484 27.9583 61 27.9583C42.7516 27.9583 27.9583 42.7516 27.9583 61Z"
				  fill="url(#paint0_angular_339_543)" />
			<path d="M61 10.1667C67.6755 10.1667 74.2857 11.4815 80.4531 14.0361C86.6204 16.5907 92.2243 20.3351 96.9446 25.0554C101.665 29.7757 105.409 35.3796 107.964 41.5469C110.518 47.7143 111.833 54.3245 111.833 61L94.0416 61C94.0417 56.6609 93.187 52.3643 91.5265 48.3555C89.866 44.3467 87.4322 40.7042 84.364 37.636C81.2958 34.5678 77.6533 32.134 73.6445 30.4735C69.6357 28.813 65.3391 27.9583 61 27.9583L61 10.1667Z"
				  fill="url(#paint1_angular_339_543)" />
			<defs>
				<radialGradient id="paint0_angular_339_543"
								cx="0"
								cy="0"
								r="1"
								gradientUnits="userSpaceOnUse"
								gradientTransform="translate(61 61) scale(50.8333)">
					<stop offset="0.9999"
						  stop-color="#36DD65" />
					<stop offset="1"
						  stop-color="#00AFAA"
						  stop-opacity="0.01" />
				</radialGradient>
				<radialGradient id="paint1_angular_339_543"
								cx="0"
								cy="0"
								r="1"
								gradientUnits="userSpaceOnUse"
								gradientTransform="translate(61 61) rotate(-90) scale(50.8333)">
					<stop offset="0.9999"
						  stop-color="#36DD65" />
					<stop offset="1"
						  stop-color="#00AFAA"
						  stop-opacity="0.01" />
				</radialGradient>
			</defs>
		</svg>


		<svg xmlns="http://www.w3.org/2000/svg"
			 class="tel-sign"
			 id="tel-sign"
			 viewBox="0 0 24 24">
			<g clip-path="url(#clip0_702_2313)">
				<path
					  d="M20 12.5C18.75 12.5 17.55 12.3 16.43 11.93C16.08 11.82 15.69 11.9 15.41 12.17L13.21 14.37C10.38 12.93 8.06 10.62 6.62 7.79L8.82 5.58C9.1 5.31 9.18 4.92 9.07 4.57C8.7 3.45 8.5 2.25 8.5 1C8.5 0.45 8.05 0 7.5 0H4C3.45 0 3 0.45 3 1C3 10.39 10.61 18 20 18C20.55 18 21 17.55 21 17V13.5C21 12.95 20.55 12.5 20 12.5Z" />
			</g>
			<defs>
				<clipPath id="clip0_702_2313">
					<rect width="24"
						  height="24"
						  fill="white" />
				</clipPath>
			</defs>
		</svg>

		<svg xmlns="http://www.w3.org/2000/svg"
			 class="mini-catalog-sign"
			 id="mini-catalog-sign"
			 viewBox="0 0 16 16">
			<rect x="10"
				  width="6"
				  height="6"
				  fill="white" />
			<rect x="10"
				  y="10"
				  width="6"
				  height="6"
				  fill="white" />
			<rect width="6"
				  height="6"
				  fill="white" />
			<rect y="10"
				  width="6"
				  height="6"
				  fill="white" />
		</svg>

		<svg xmlns="http://www.w3.org/2000/svg"
			 class="header-search-sign"
			 id="header-search-sign"
			 viewBox="0 0 24 24">
			<g clip-path="url(#clip0_0_136)">
				<path
					  d="M15.5 14H14.71L14.43 13.73C15.41 12.59 16 11.11 16 9.5C16 5.91 13.09 3 9.5 3C5.91 3 3 5.91 3 9.5C3 13.09 5.91 16 9.5 16C11.11 16 12.59 15.41 13.73 14.43L14 14.71V15.5L19 20.49L20.49 19L15.5 14ZM9.5 14C7.01 14 5 11.99 5 9.5C5 7.01 7.01 5 9.5 5C11.99 5 14 7.01 14 9.5C14 11.99 11.99 14 9.5 14Z" />
			</g>
			<defs>
				<clipPath id="clip0_0_136">
					<rect width="24"
						  height="24" />
				</clipPath>
			</defs>
		</svg>

		<svg xmlns="http://www.w3.org/2000/svg"
			 class="header-heart-sign"
			 id="header-heart-sign"
			 viewBox="0 0 21 18">
			<path d="M7.97573e-08 5.40065C-0.000249342 3.95106 0.584514 2.56224 1.62272 1.54668C2.66094 0.531108 4.06539 -0.0259171 5.52011 0.000927184C7.24371 -0.00819235 8.88836 0.720065 10.0366 2.00082C11.1848 0.720065 12.8294 -0.00819235 14.553 0.000927184C16.0077 -0.0259171 17.4122 0.531108 18.4504 1.54668C19.4886 2.56224 20.0734 3.95106 20.0731 5.40065C20.0731 10.7564 13.6708 14.8002 10.0366 18C6.41035 14.7732 7.97573e-08 10.7604 7.97573e-08 5.40065Z"
				  fill="#36DD65" />
		</svg>

		<svg xmlns="http://www.w3.org/2000/svg"
			 class="header-basket-sign"
			 id="header-basket-sign"
			 viewBox="0 0 21 20">
			<path fill-rule="evenodd"
				  clip-rule="evenodd"
				  d="M1.00366 1.30701e-07C0.737475 1.30701e-07 0.482189 0.105357 0.293966 0.292893C0.105743 0.48043 0 0.734784 0 1C0 1.26522 0.105743 1.51957 0.293966 1.70711C0.482189 1.89464 0.737475 2 1.00366 2H1.47739C1.69762 1.99996 1.91175 2.07208 2.08678 2.20527C2.2618 2.33845 2.388 2.5253 2.44593 2.737L2.86345 4.263L5.01831 12.133V14C5.01831 14.694 5.25417 15.332 5.65062 15.84C5.36687 16.1587 5.16958 16.5444 5.07748 16.9605C4.98539 17.3766 5.00154 17.8092 5.12441 18.2173C5.24728 18.6253 5.47279 18.9954 5.77953 19.2922C6.08627 19.5891 6.46407 19.8029 6.87706 19.9134C7.29004 20.0239 7.72452 20.0274 8.13925 19.9235C8.55397 19.8197 8.93518 19.612 9.24669 19.3201C9.5582 19.0282 9.78968 18.6619 9.91915 18.2558C10.0486 17.8498 10.0718 17.4175 9.98644 17H13.0978C13.0198 17.3817 13.0325 17.7763 13.1348 18.1523C13.237 18.5283 13.426 18.8753 13.6868 19.1656C13.9475 19.4559 14.2727 19.6814 14.6364 19.8243C15.0002 19.9672 15.3924 20.0233 15.7818 19.9884C16.1712 19.9534 16.547 19.8282 16.8793 19.6229C17.2115 19.4175 17.491 19.1377 17.6954 18.8056C17.8998 18.4736 18.0236 18.0985 18.0567 17.7103C18.0898 17.3222 18.0315 16.9317 17.8863 16.57C17.9907 16.42 18.0519 16.2445 18.0633 16.0623C18.0747 15.8801 18.0359 15.6983 17.951 15.5366C17.8661 15.3749 17.7384 15.2394 17.5818 15.1448C17.4251 15.0502 17.2454 15.0001 17.0623 15H8.0303C7.76412 15 7.50883 14.8946 7.32061 14.7071C7.13238 14.5196 7.02664 14.2652 7.02664 14V13H17.3001C17.7406 13.0001 18.1689 12.8558 18.5189 12.5895C18.869 12.3231 19.1214 11.9494 19.2372 11.526L20.8782 5.526C20.9594 5.22912 20.9708 4.91757 20.9114 4.6156C20.8521 4.31363 20.7236 4.02937 20.536 3.78496C20.3483 3.54054 20.1066 3.34256 19.8297 3.20641C19.5527 3.07027 19.2479 2.99963 18.9391 3H4.59878L4.38299 2.21C4.20905 1.57508 3.83037 1.01477 3.30531 0.615407C2.78025 0.216049 2.13795 -0.000194078 1.47739 1.30701e-07H1.00366ZM15.5568 17C15.4237 17 15.296 17.0527 15.2019 17.1464C15.1078 17.2402 15.0549 17.3674 15.0549 17.5C15.0549 17.6326 15.1078 17.7598 15.2019 17.8535C15.296 17.9473 15.4237 18 15.5568 18C15.6899 18 15.8175 17.9473 15.9116 17.8535C16.0057 17.7598 16.0586 17.6326 16.0586 17.5C16.0586 17.3674 16.0057 17.2402 15.9116 17.1464C15.8175 17.0527 15.6899 17 15.5568 17ZM17.2991 11H6.78877L5.14578 5H18.9401L17.2991 11V11ZM7.52747 17C7.39437 17 7.26673 17.0527 7.17262 17.1464C7.07851 17.2402 7.02564 17.3674 7.02564 17.5C7.02564 17.6326 7.07851 17.7598 7.17262 17.8535C7.26673 17.9473 7.39437 18 7.52747 18C7.66056 18 7.78821 17.9473 7.88232 17.8535C7.97643 17.7598 8.0293 17.6326 8.0293 17.5C8.0293 17.3674 7.97643 17.2402 7.88232 17.1464C7.78821 17.0527 7.66056 17 7.52747 17Z"
				  fill="white" />
		</svg>
		<svg xmlns="http://www.w3.org/2000/svg"
			 class="home-icon"
			 id="home-icon"
			 viewBox="0 0 16 15">
			<path opacity="0.5"
				  d="M0 7.73639L7.4344 0.236299C7.7468 -0.0787662 8.2532 -0.0787662 8.5656 0.236299L16 7.73639H14.4V14.1929C14.4 14.6387 14.0418 15 13.6 15H9.6V9.35052H6.4V15H2.4C1.95817 15 1.6 14.6387 1.6 14.1929V7.73639H0Z"
				  fill="black" />
		</svg>
		<svg xmlns="http://www.w3.org/2000/svg" class="dropdown-arrow-right" id="dropdown-arrow-right" viewBox="0 0 7 10" fill="none">
  			<path d="M1 1L5 5L1 9" stroke="black" stroke-width="1.6" stroke-linecap="round"/>
		</svg>

		<svg xmlns="http://www.w3.org/2000/svg" class="popup-cross-sign" id="popup-cross-sign" viewBox="0 0 15 16" >
			<path d="M1 1L14 14.5" stroke="black" stroke-width="2" stroke-linecap="round"/>
			<path d="M14 1L1 14.5" stroke="black" stroke-width="2" stroke-linecap="round"/>
		</svg>

		<svg xmlns="http://www.w3.org/2000/svg"  class="header-history-sign" id="header-history-sign" viewBox="0 0 13 13">
			<path d="M10.3869 2.04218C9.12645 1.16016 7.53849 0.754745 5.90515 1.04275C2.63847 1.61875 0.466245 4.72819 1.04189 7.99283C1.61753 11.2575 4.72225 13.4364 7.98893 12.8604C10.7457 12.3744 12.7121 10.0856 12.9205 7.42145L11.3832 7.69251C11.0807 9.52032 9.65742 11.0431 7.72846 11.3832C5.28214 11.8146 2.94372 10.1783 2.51263 7.7335C2.08155 5.28871 3.71931 2.95131 6.16562 2.51996C7.39248 2.30363 8.57616 2.6204 9.51631 3.28474L7.55587 6.08267L12.7293 5.17045L11.8177 0.000206301L10.3869 2.04218Z" fill="#8C8C8C"/>
		</svg>
	</defs>
</svg>