<!-- Пока оставляю с пред проекта -->
<svg>
	<defs>
		<svg xmlns="http://www.w3.org/2000/svg"
			 id="basket"
			 class="basket"
			 viewBox="0 0 21 20">
			<path fill-rule="evenodd"
				  clip-rule="evenodd"
				  d="M1.00611 1.30708e-07C0.739275 1.30708e-07 0.483366 0.105363 0.294684 0.292909C0.106001 0.480456 0 0.734823 0 1.00005C0 1.26528 0.106001 1.51965 0.294684 1.7072C0.483366 1.89475 0.739275 2.00011 1.00611 2.00011H1.481C1.70177 2.00006 1.91642 2.0722 2.09187 2.20539C2.26733 2.33858 2.39383 2.52543 2.4519 2.73715L2.87044 4.26323L5.03056 12.1337V14.0008C5.03056 14.6948 5.267 15.3328 5.66442 15.8409C5.37997 16.1596 5.1822 16.5453 5.08988 16.9614C4.99756 17.3775 5.01376 17.8101 5.13693 18.2182C5.2601 18.6264 5.48615 18.9964 5.79364 19.2933C6.10113 19.5901 6.47985 19.804 6.89385 19.9145C7.30784 20.025 7.74338 20.0285 8.15912 19.9246C8.57485 19.8208 8.95699 19.6131 9.26927 19.3212C9.58154 19.0293 9.81358 18.6629 9.94336 18.2568C10.0731 17.8507 10.0964 17.4184 10.0108 17.0009H13.1298C13.0516 17.3827 13.0643 17.7773 13.1668 18.1533C13.2693 18.5293 13.4588 18.8763 13.7202 19.1666C13.9815 19.4569 14.3075 19.6825 14.6722 19.8254C15.0368 19.9682 15.43 20.0244 15.8203 19.9895C16.2107 19.9545 16.5874 19.8293 16.9205 19.624C17.2535 19.4186 17.5337 19.1387 17.7386 18.8066C17.9435 18.4746 18.0676 18.0995 18.1008 17.7113C18.134 17.3231 18.0755 16.9326 17.9299 16.5709C18.0346 16.4209 18.096 16.2453 18.1074 16.0632C18.1189 15.881 18.0799 15.6992 17.9948 15.5374C17.9097 15.3757 17.7817 15.2402 17.6247 15.1456C17.4676 15.051 17.2875 15.0009 17.1039 15.0008H8.04991C7.78307 15.0008 7.52716 14.8954 7.33848 14.7079C7.1498 14.5204 7.0438 14.266 7.0438 14.0008V13.0007H17.3424C17.7839 13.0008 18.2132 12.8565 18.5641 12.5901C18.915 12.3238 19.168 11.9501 19.2842 11.5266L20.9292 5.5263C21.0106 5.2294 21.022 4.91784 20.9625 4.61585C20.903 4.31386 20.7742 4.02959 20.5861 3.78516C20.398 3.54073 20.1557 3.34274 19.8781 3.20659C19.6004 3.07043 19.2949 2.99979 18.9853 3.00016H4.61001L4.39369 2.21012C4.21932 1.57516 3.83972 1.01482 3.31338 0.615441C2.78704 0.216061 2.14317 -0.000194089 1.481 1.30708e-07H1.00611ZM15.5947 17.0009C15.4613 17.0009 15.3334 17.0536 15.239 17.1474C15.1447 17.2411 15.0917 17.3683 15.0917 17.5009C15.0917 17.6336 15.1447 17.7607 15.239 17.8545C15.3334 17.9483 15.4613 18.001 15.5947 18.001C15.7282 18.001 15.8561 17.9483 15.9505 17.8545C16.0448 17.7607 16.0978 17.6336 16.0978 17.5009C16.0978 17.3683 16.0448 17.2411 15.9505 17.1474C15.8561 17.0536 15.7282 17.0009 15.5947 17.0009ZM17.3414 11.0006H6.80535L5.15834 5.00027H18.9864L17.3414 11.0006ZM7.54585 17.0009C7.41243 17.0009 7.28447 17.0536 7.19013 17.1474C7.09579 17.2411 7.04279 17.3683 7.04279 17.5009C7.04279 17.6336 7.09579 17.7607 7.19013 17.8545C7.28447 17.9483 7.41243 18.001 7.54585 18.001C7.67927 18.001 7.80722 17.9483 7.90156 17.8545C7.9959 17.7607 8.0489 17.6336 8.0489 17.5009C8.0489 17.3683 7.9959 17.2411 7.90156 17.1474C7.80722 17.0536 7.67927 17.0009 7.54585 17.0009Z"
				  fill="white" />
		</svg>
	</defs>
</svg>