<!-- Пока оставляю с пред проекта -->
<svg>
	<defs>
		<svg xmlns="http://www.w3.org/2000/svg"
			 id="basket-icon"
			 class="basket-icon"
			 viewBox="0 0 21 20">
			<path fill-rule="evenodd"
				  clip-rule="evenodd"
				  d="M1.00611 1.30708e-07C0.739275 1.30708e-07 0.483366 0.105363 0.294684 0.292909C0.106001 0.480456 0 0.734823 0 1.00005C0 1.26528 0.106001 1.51965 0.294684 1.7072C0.483366 1.89475 0.739275 2.00011 1.00611 2.00011H1.481C1.70177 2.00006 1.91642 2.0722 2.09187 2.20539C2.26733 2.33858 2.39383 2.52543 2.4519 2.73715L2.87044 4.26323L5.03056 12.1337V14.0008C5.03056 14.6948 5.267 15.3328 5.66442 15.8409C5.37997 16.1596 5.1822 16.5453 5.08988 16.9614C4.99756 17.3775 5.01376 17.8101 5.13693 18.2182C5.2601 18.6264 5.48615 18.9964 5.79364 19.2933C6.10113 19.5901 6.47985 19.804 6.89385 19.9145C7.30784 20.025 7.74338 20.0285 8.15912 19.9246C8.57485 19.8208 8.95699 19.6131 9.26927 19.3212C9.58154 19.0293 9.81358 18.6629 9.94336 18.2568C10.0731 17.8507 10.0964 17.4184 10.0108 17.0009H13.1298C13.0516 17.3827 13.0643 17.7773 13.1668 18.1533C13.2693 18.5293 13.4588 18.8763 13.7202 19.1666C13.9815 19.4569 14.3075 19.6825 14.6722 19.8254C15.0368 19.9682 15.43 20.0244 15.8203 19.9895C16.2107 19.9545 16.5874 19.8293 16.9205 19.624C17.2535 19.4186 17.5337 19.1387 17.7386 18.8066C17.9435 18.4746 18.0676 18.0995 18.1008 17.7113C18.134 17.3231 18.0755 16.9326 17.9299 16.5709C18.0346 16.4209 18.096 16.2453 18.1074 16.0632C18.1189 15.881 18.0799 15.6992 17.9948 15.5374C17.9097 15.3757 17.7817 15.2402 17.6247 15.1456C17.4676 15.051 17.2875 15.0009 17.1039 15.0008H8.04991C7.78307 15.0008 7.52716 14.8954 7.33848 14.7079C7.1498 14.5204 7.0438 14.266 7.0438 14.0008V13.0007H17.3424C17.7839 13.0008 18.2132 12.8565 18.5641 12.5901C18.915 12.3238 19.168 11.9501 19.2842 11.5266L20.9292 5.5263C21.0106 5.2294 21.022 4.91784 20.9625 4.61585C20.903 4.31386 20.7742 4.02959 20.5861 3.78516C20.398 3.54073 20.1557 3.34274 19.8781 3.20659C19.6004 3.07043 19.2949 2.99979 18.9853 3.00016H4.61001L4.39369 2.21012C4.21932 1.57516 3.83972 1.01482 3.31338 0.615441C2.78704 0.216061 2.14317 -0.000194089 1.481 1.30708e-07H1.00611ZM15.5947 17.0009C15.4613 17.0009 15.3334 17.0536 15.239 17.1474C15.1447 17.2411 15.0917 17.3683 15.0917 17.5009C15.0917 17.6336 15.1447 17.7607 15.239 17.8545C15.3334 17.9483 15.4613 18.001 15.5947 18.001C15.7282 18.001 15.8561 17.9483 15.9505 17.8545C16.0448 17.7607 16.0978 17.6336 16.0978 17.5009C16.0978 17.3683 16.0448 17.2411 15.9505 17.1474C15.8561 17.0536 15.7282 17.0009 15.5947 17.0009ZM17.3414 11.0006H6.80535L5.15834 5.00027H18.9864L17.3414 11.0006ZM7.54585 17.0009C7.41243 17.0009 7.28447 17.0536 7.19013 17.1474C7.09579 17.2411 7.04279 17.3683 7.04279 17.5009C7.04279 17.6336 7.09579 17.7607 7.19013 17.8545C7.28447 17.9483 7.41243 18.001 7.54585 18.001C7.67927 18.001 7.80722 17.9483 7.90156 17.8545C7.9959 17.7607 8.0489 17.6336 8.0489 17.5009C8.0489 17.3683 7.9959 17.2411 7.90156 17.1474C7.80722 17.0536 7.67927 17.0009 7.54585 17.0009Z" />
		</svg>
		<svg xmlns="http://www.w3.org/2000/svg"
			 class="validated-sign"
			 id="validated-sign"
			 viewBox="0 0 20 20">
			<circle cx="10"
					cy="10"
					r="10"
					fill="#36DD65" />
			<path d="M8.58348 11.4804L6.64256 9.37582C6.26884 8.97059 5.65401 8.97059 5.28029 9.37582C4.90657 9.78105 4.90657 10.4477 5.28029 10.8529L7.90235 13.6961C8.27607 14.1013 8.8909 14.1013 9.26462 13.6961L14.7197 7.78105C15.0934 7.37582 15.0934 6.70915 14.7197 6.30392C14.346 5.89869 13.7312 5.89869 13.3574 6.30392L8.58348 11.4804Z"
				  fill="white" />
		</svg>
		<svg xmlns="http://www.w3.org/2000/svg"
			 class="not-validated-sign"
			 id="not-validated-sign"
			 viewBox="0 0 21 20">
			<ellipse cx="10.5"
					 cy="10"
					 rx="10.5"
					 ry="10"
					 fill="#E74836" />
			<path d="M7.34961 7L14.1746 13.5"
				  stroke="white"
				  stroke-width="2"
				  stroke-linecap="round" />
			<path d="M14.1758 7L7.35078 13.5"
				  stroke="white"
				  stroke-width="2"
				  stroke-linecap="round" />
		</svg>
		<svg xmlns="http://www.w3.org/2000/svg" class="available-sign" id="available-sign" viewBox="0 0 10 8" >
			<path d="M3.58348 5.48039L1.64256 3.37582C1.26884 2.97059 0.654008 2.97059 0.280289 3.37582C-0.0934298 3.78105 -0.0934298 4.44771 0.280289 4.85294L2.90235 7.69608C3.27607 8.10131 3.8909 8.10131 4.26462 7.69608L9.71971 1.78105C10.0934 1.37582 10.0934 0.70915 9.71971 0.303922C9.34599 -0.101307 8.73116 -0.101307 8.35745 0.303922L3.58348 5.48039Z" fill="white"/>
		</svg>
		<svg xmlns="http://www.w3.org/2000/svg"
			 class="ending-sign"
			 id="ending-sign"
			 viewBox="0 0 14 14">
			<path d="M7 14C3.13401 14 0 10.866 0 7C0 3.13401 3.13401 0 7 0C10.866 0 14 3.13401 14 7C13.9958 10.8642 10.8642 13.9958 7 14ZM6.3 9.1V10.5H7.7V9.1H6.3ZM6.3 3.5V7.7H7.7V3.5H6.3Z"
				  fill="white" />
		</svg>
		<svg xmlns="http://www.w3.org/2000/svg"
			 class="out-of-stock-sign"
			 id="out-of-stock-sign"
			 viewBox="0 0 18 18">
			<path d="M13.5 4.5L5.54464 12.4579L5.39999 12.6"
				  stroke="white"
				  stroke-width="2.5"
				  stroke-linecap="round"
				  stroke-linejoin="round" />
			<path d="M5.39999 4.5L13.3579 12.4554L13.5 12.6"
				  stroke="white"
				  stroke-width="2.5"
				  stroke-linecap="round"
				  stroke-linejoin="round" />
		</svg>
		<svg xmlns="http://www.w3.org/2000/svg"
			 class="spinner"
			 id='spinner'
			 viewBox="0 0 122 122">
			<path d="M111.833 61C111.833 89.0745 89.0745 111.833 61 111.833C32.9255 111.833 10.1667 89.0745 10.1667 61C10.1667 32.9255 32.9255 10.1667 61 10.1667C89.0745 10.1667 111.833 32.9255 111.833 61ZM27.9583 61C27.9583 79.2484 42.7516 94.0416 61 94.0416C79.2484 94.0416 94.0416 79.2484 94.0416 61C94.0416 42.7516 79.2484 27.9583 61 27.9583C42.7516 27.9583 27.9583 42.7516 27.9583 61Z"
				  fill="url(#paint0_angular_339_543)" />
			<path d="M61 10.1667C67.6755 10.1667 74.2857 11.4815 80.4531 14.0361C86.6204 16.5907 92.2243 20.3351 96.9446 25.0554C101.665 29.7757 105.409 35.3796 107.964 41.5469C110.518 47.7143 111.833 54.3245 111.833 61L94.0416 61C94.0417 56.6609 93.187 52.3643 91.5265 48.3555C89.866 44.3467 87.4322 40.7042 84.364 37.636C81.2958 34.5678 77.6533 32.134 73.6445 30.4735C69.6357 28.813 65.3391 27.9583 61 27.9583L61 10.1667Z"
				  fill="url(#paint1_angular_339_543)" />
			<defs>
				<radialGradient id="paint0_angular_339_543"
								cx="0"
								cy="0"
								r="1"
								gradientUnits="userSpaceOnUse"
								gradientTransform="translate(61 61) scale(50.8333)">
					<stop offset="0.9999"
						  stop-color="#36DD65" />
					<stop offset="1"
						  stop-color="#00AFAA"
						  stop-opacity="0.01" />
				</radialGradient>
				<radialGradient id="paint1_angular_339_543"
								cx="0"
								cy="0"
								r="1"
								gradientUnits="userSpaceOnUse"
								gradientTransform="translate(61 61) rotate(-90) scale(50.8333)">
					<stop offset="0.9999"
						  stop-color="#36DD65" />
					<stop offset="1"
						  stop-color="#00AFAA"
						  stop-opacity="0.01" />
				</radialGradient>
			</defs>
		</svg>


		<svg xmlns="http://www.w3.org/2000/svg"
			 class="tel-sign"
			 id="tel-sign"
			 viewBox="0 0 24 24">
			<g clip-path="url(#clip0_702_2313)">
				<path
					  d="M20 12.5C18.75 12.5 17.55 12.3 16.43 11.93C16.08 11.82 15.69 11.9 15.41 12.17L13.21 14.37C10.38 12.93 8.06 10.62 6.62 7.79L8.82 5.58C9.1 5.31 9.18 4.92 9.07 4.57C8.7 3.45 8.5 2.25 8.5 1C8.5 0.45 8.05 0 7.5 0H4C3.45 0 3 0.45 3 1C3 10.39 10.61 18 20 18C20.55 18 21 17.55 21 17V13.5C21 12.95 20.55 12.5 20 12.5Z" />
			</g>
			<defs>
				<clipPath id="clip0_702_2313">
					<rect width="24"
						  height="24"
						  fill="white" />
				</clipPath>
			</defs>
		</svg>

		<svg xmlns="http://www.w3.org/2000/svg"
			 class="mini-catalog-sign"
			 id="mini-catalog-sign"
			 viewBox="0 0 16 16">
			<rect x="10"
				  width="6"
				  height="6"
				  fill="white" />
			<rect x="10"
				  y="10"
				  width="6"
				  height="6"
				  fill="white" />
			<rect width="6"
				  height="6"
				  fill="white" />
			<rect y="10"
				  width="6"
				  height="6"
				  fill="white" />
		</svg>

		<svg xmlns="http://www.w3.org/2000/svg"
			 class="header-search-sign"
			 id="header-search-sign"
			 viewBox="0 0 24 24">
			<g clip-path="url(#clip0_0_136)">
				<path
					  d="M15.5 14H14.71L14.43 13.73C15.41 12.59 16 11.11 16 9.5C16 5.91 13.09 3 9.5 3C5.91 3 3 5.91 3 9.5C3 13.09 5.91 16 9.5 16C11.11 16 12.59 15.41 13.73 14.43L14 14.71V15.5L19 20.49L20.49 19L15.5 14ZM9.5 14C7.01 14 5 11.99 5 9.5C5 7.01 7.01 5 9.5 5C11.99 5 14 7.01 14 9.5C14 11.99 11.99 14 9.5 14Z" />
			</g>
			<defs>
				<clipPath id="clip0_0_136">
					<rect width="24"
						  height="24" />
				</clipPath>
			</defs>
		</svg>

		<svg xmlns="http://www.w3.org/2000/svg"
			 class="header-heart-sign"
			 id="header-heart-sign"
			 viewBox="0 0 21 18">
			<path d="M7.97573e-08 5.40065C-0.000249342 3.95106 0.584514 2.56224 1.62272 1.54668C2.66094 0.531108 4.06539 -0.0259171 5.52011 0.000927184C7.24371 -0.00819235 8.88836 0.720065 10.0366 2.00082C11.1848 0.720065 12.8294 -0.00819235 14.553 0.000927184C16.0077 -0.0259171 17.4122 0.531108 18.4504 1.54668C19.4886 2.56224 20.0734 3.95106 20.0731 5.40065C20.0731 10.7564 13.6708 14.8002 10.0366 18C6.41035 14.7732 7.97573e-08 10.7604 7.97573e-08 5.40065Z"
				  fill="#36DD65" />
		</svg>

		<svg xmlns="http://www.w3.org/2000/svg"
			 class="header-basket-sign"
			 id="header-basket-sign"
			 viewBox="0 0 21 20">
			<path fill-rule="evenodd"
				  clip-rule="evenodd"
				  d="M1.00366 1.30701e-07C0.737475 1.30701e-07 0.482189 0.105357 0.293966 0.292893C0.105743 0.48043 0 0.734784 0 1C0 1.26522 0.105743 1.51957 0.293966 1.70711C0.482189 1.89464 0.737475 2 1.00366 2H1.47739C1.69762 1.99996 1.91175 2.07208 2.08678 2.20527C2.2618 2.33845 2.388 2.5253 2.44593 2.737L2.86345 4.263L5.01831 12.133V14C5.01831 14.694 5.25417 15.332 5.65062 15.84C5.36687 16.1587 5.16958 16.5444 5.07748 16.9605C4.98539 17.3766 5.00154 17.8092 5.12441 18.2173C5.24728 18.6253 5.47279 18.9954 5.77953 19.2922C6.08627 19.5891 6.46407 19.8029 6.87706 19.9134C7.29004 20.0239 7.72452 20.0274 8.13925 19.9235C8.55397 19.8197 8.93518 19.612 9.24669 19.3201C9.5582 19.0282 9.78968 18.6619 9.91915 18.2558C10.0486 17.8498 10.0718 17.4175 9.98644 17H13.0978C13.0198 17.3817 13.0325 17.7763 13.1348 18.1523C13.237 18.5283 13.426 18.8753 13.6868 19.1656C13.9475 19.4559 14.2727 19.6814 14.6364 19.8243C15.0002 19.9672 15.3924 20.0233 15.7818 19.9884C16.1712 19.9534 16.547 19.8282 16.8793 19.6229C17.2115 19.4175 17.491 19.1377 17.6954 18.8056C17.8998 18.4736 18.0236 18.0985 18.0567 17.7103C18.0898 17.3222 18.0315 16.9317 17.8863 16.57C17.9907 16.42 18.0519 16.2445 18.0633 16.0623C18.0747 15.8801 18.0359 15.6983 17.951 15.5366C17.8661 15.3749 17.7384 15.2394 17.5818 15.1448C17.4251 15.0502 17.2454 15.0001 17.0623 15H8.0303C7.76412 15 7.50883 14.8946 7.32061 14.7071C7.13238 14.5196 7.02664 14.2652 7.02664 14V13H17.3001C17.7406 13.0001 18.1689 12.8558 18.5189 12.5895C18.869 12.3231 19.1214 11.9494 19.2372 11.526L20.8782 5.526C20.9594 5.22912 20.9708 4.91757 20.9114 4.6156C20.8521 4.31363 20.7236 4.02937 20.536 3.78496C20.3483 3.54054 20.1066 3.34256 19.8297 3.20641C19.5527 3.07027 19.2479 2.99963 18.9391 3H4.59878L4.38299 2.21C4.20905 1.57508 3.83037 1.01477 3.30531 0.615407C2.78025 0.216049 2.13795 -0.000194078 1.47739 1.30701e-07H1.00366ZM15.5568 17C15.4237 17 15.296 17.0527 15.2019 17.1464C15.1078 17.2402 15.0549 17.3674 15.0549 17.5C15.0549 17.6326 15.1078 17.7598 15.2019 17.8535C15.296 17.9473 15.4237 18 15.5568 18C15.6899 18 15.8175 17.9473 15.9116 17.8535C16.0057 17.7598 16.0586 17.6326 16.0586 17.5C16.0586 17.3674 16.0057 17.2402 15.9116 17.1464C15.8175 17.0527 15.6899 17 15.5568 17ZM17.2991 11H6.78877L5.14578 5H18.9401L17.2991 11V11ZM7.52747 17C7.39437 17 7.26673 17.0527 7.17262 17.1464C7.07851 17.2402 7.02564 17.3674 7.02564 17.5C7.02564 17.6326 7.07851 17.7598 7.17262 17.8535C7.26673 17.9473 7.39437 18 7.52747 18C7.66056 18 7.78821 17.9473 7.88232 17.8535C7.97643 17.7598 8.0293 17.6326 8.0293 17.5C8.0293 17.3674 7.97643 17.2402 7.88232 17.1464C7.78821 17.0527 7.66056 17 7.52747 17Z"
				  fill="white" />
		</svg>
		<svg xmlns="http://www.w3.org/2000/svg"
			 class="home-icon"
			 id="home-icon"
			 viewBox="0 0 16 15">
			<path opacity="0.5"
				  d="M0 7.73639L7.4344 0.236299C7.7468 -0.0787662 8.2532 -0.0787662 8.5656 0.236299L16 7.73639H14.4V14.1929C14.4 14.6387 14.0418 15 13.6 15H9.6V9.35052H6.4V15H2.4C1.95817 15 1.6 14.6387 1.6 14.1929V7.73639H0Z"
				  fill="black" />
		</svg>
		<svg xmlns="http://www.w3.org/2000/svg"
			 class="dropdown-arrow-right"
			 id="dropdown-arrow-right"
			 viewBox="0 0 7 10"
			 fill="none">
			<path d="M1 1L5 5L1 9"
				  stroke="black"
				  stroke-width="1.6"
				  stroke-linecap="round" />
		</svg>
		<svg xmlns="http://www.w3.org/2000/svg"
			 class="arrow-down"
			 id="arrow-down"
			 viewBox="0 0 13 8">
			<path
				  d="M1.66977 -7.62939e-08L6.25977 4.59L10.8498 -7.62939e-08L12.2598 1.42L6.25977 7.42L0.259766 1.42L1.66977 -7.62939e-08Z" />
		</svg>
		<svg xmlns="http://www.w3.org/2000/svg"
			 viewBox="0 0 16 15"
			 id='filter-menu-burger'
			 class='filter-menu-burger'>
			<path d="M4.4 15C3.16329 14.9949 2.07461 14.1943 1.716 13.0264H0V11.4475H1.716C2.12792 10.0841 3.52163 9.25217 4.93656 9.52517C6.35149 9.79817 7.32506 11.0868 7.18628 12.5029C7.04749 13.919 5.84172 14.9996 4.4 15ZM4.4 11.0527C3.73726 11.0527 3.2 11.5829 3.2 12.2369C3.2 12.8909 3.73726 13.4211 4.4 13.4211C5.06274 13.4211 5.6 12.8909 5.6 12.2369C5.6 11.5829 5.06274 11.0527 4.4 11.0527ZM16 13.0264H8V11.4475H16V13.0264ZM11.6 10.2633C10.1583 10.2629 8.95251 9.18228 8.81372 7.76618C8.67494 6.35007 9.64851 5.06145 11.0634 4.78845C12.4784 4.51545 13.8721 5.34733 14.284 6.71074H16V8.28964H14.284C13.9254 9.45763 12.8367 10.2582 11.6 10.2633ZM11.6 6.31601C10.9373 6.31601 10.4 6.84619 10.4 7.50019C10.4 8.15419 10.9373 8.68437 11.6 8.68437C12.2627 8.68437 12.8 8.15419 12.8 7.50019C12.8 6.84619 12.2627 6.31601 11.6 6.31601ZM8 8.28964H0V6.71074H8V8.28964ZM6 5.52656C4.55828 5.52619 3.35251 4.44556 3.21372 3.02945C3.07494 1.61335 4.04851 0.324724 5.46344 0.0517266C6.87837 -0.221271 8.27208 0.610608 8.684 1.97402H16V3.55292H8.684C8.32517 4.72075 7.23662 5.5212 6 5.52656ZM6 1.57929C5.34558 1.58016 4.81254 2.0983 4.80179 2.744C4.79103 3.38971 5.30652 3.92485 5.96055 3.94695C6.61459 3.96906 7.16597 3.46996 7.2 2.82505V3.05399V2.76347C7.2 2.10946 6.66274 1.57929 6 1.57929ZM2.4 3.55292H0V1.97402H2.4V3.55292Z"
				  fill="#8F8F8F" />
		</svg>

		<svg xmlns="http://www.w3.org/2000/svg"
			 class="popup-cross-sign"
			 id="popup-cross-sign"
			 viewBox="0 0 15 16">
			<path d="M1 1L14 14.5"
				  stroke="black"
				  stroke-width="2"
				  stroke-linecap="round" />
			<path d="M14 1L1 14.5"
				  stroke="black"
				  stroke-width="2"
				  stroke-linecap="round" />
		</svg>

		<svg xmlns="http://www.w3.org/2000/svg"
			 class="header-history-sign"
			 id="header-history-sign"
			 viewBox="0 0 13 13">
			<path d="M10.3869 2.04218C9.12645 1.16016 7.53849 0.754745 5.90515 1.04275C2.63847 1.61875 0.466245 4.72819 1.04189 7.99283C1.61753 11.2575 4.72225 13.4364 7.98893 12.8604C10.7457 12.3744 12.7121 10.0856 12.9205 7.42145L11.3832 7.69251C11.0807 9.52032 9.65742 11.0431 7.72846 11.3832C5.28214 11.8146 2.94372 10.1783 2.51263 7.7335C2.08155 5.28871 3.71931 2.95131 6.16562 2.51996C7.39248 2.30363 8.57616 2.6204 9.51631 3.28474L7.55587 6.08267L12.7293 5.17045L11.8177 0.000206301L10.3869 2.04218Z"
				  fill="#8C8C8C" />
		</svg>

		<svg xmlns="http://www.w3.org/2000/svg"
			 class="category-row-battery-icon"
			 id="category-row-battery-icon"
			 viewBox="0 0 45 48">
			<path fill-rule="evenodd"
				  clip-rule="evenodd"
				  d="M7.41988 38.4945C7.32552 40.9461 8.96135 43.4411 12.1269 45.3546C17.9864 48.8965 27.515 48.8794 33.4095 45.3163C37.5957 42.7859 38.8232 39.1477 37.0844 35.9827L37.0395 37.914C37.4908 40.4369 36.1094 43.0635 32.8961 45.0059C27.2822 48.3993 18.2135 48.413 12.6404 45.0442C9.5975 43.2049 8.04467 40.819 8.1473 38.4829L7.41988 38.4945Z"
				  fill="black" />
			<path d="M6.92578 12.4075L7.74581 38.5905"
				  stroke="black"
				  stroke-width="0.7" />
			<path d="M37.4301 12.6167L37.4277 37.8488"
				  stroke="black"
				  stroke-width="0.7" />
			<circle cx="12.8272"
					cy="12.8272"
					r="12.3272"
					transform="matrix(0.866044 0.499967 -0.866044 0.499967 22.2188 0)"
					stroke="black" />
			<path d="M18.5039 33.3955L22.5856 25.2322L21.4724 31.5402H26.6672L18.875 41.1878L22.5856 33.3955H18.5039Z"
				  fill="black" />
		</svg>

		<svg xmlns="http://www.w3.org/2000/svg"
			 class="category-row-hdd-icon"
			 id="category-row-hdd-icon"
			 viewBox="0 0 61 44">
			<path d="M58.9863 21.2517V29.5015"
				  stroke="black"
				  stroke-width="0.6" />
			<path d="M35.4961 34.0732L35.4961 42.5732"
				  stroke="black"
				  stroke-width="0.6" />
			<path d="M1.98633 14.5017L1.99634 24.0732"
				  stroke="black"
				  stroke-width="0.5" />
			<rect y="0.399974"
				  width="40.4038"
				  height="28.4201"
				  rx="2.6"
				  transform="matrix(0.866044 0.499967 -0.866044 0.499967 25.653 0.2)"
				  stroke="black"
				  stroke-width="0.8" />
			<path fill-rule="evenodd"
				  clip-rule="evenodd"
				  d="M2.0361 23.8876C1.97082 23.8507 1.89093 23.8506 1.82558 23.8875C1.68078 23.9692 1.68048 24.1776 1.82504 24.2597L1.93309 24.3211L35.2881 43.269L35.2928 43.2717C35.5598 43.4233 35.8875 43.4202 36.1516 43.2636L59.1586 29.6143C59.2731 29.5464 59.2725 29.3804 59.1576 29.3132C59.1052 29.2826 59.0407 29.2814 58.9871 29.31L57.2868 30.2179L37.2131 42.1269C36.2868 42.6764 35.1371 42.6873 34.2006 42.1553L4.32091 25.1816L2.0361 23.8876Z"
				  fill="black" />
			<path d="M46.2603 21.6212L38.2553 26.2425C37.349 26.7657 35.9374 26.8018 35.1079 26.3229C34.5989 26.0291 33.7134 26.0624 33.1335 26.3972L32.1925 26.9404C31.2862 27.4636 29.8743 27.4999 29.0448 27.021L25.0472 24.7132C24.2176 24.2343 24.2804 23.4192 25.1867 22.896L26.1276 22.3528C26.7076 22.018 26.7653 21.5068 26.2564 21.213L23.2944 19.503C22.7855 19.2092 21.8999 19.2425 21.32 19.5773L20.3791 20.1205C19.4728 20.6437 18.0608 20.68 17.2313 20.2011L11.2756 16.7629C10.4461 16.284 10.5088 15.4689 11.4151 14.9456L26.6913 6.12674C27.5976 5.60353 29.0095 5.5673 29.839 6.04618L35.7947 9.4844C36.6243 9.96328 36.5615 10.7784 35.6552 11.3016L34.7143 11.8448C34.1343 12.1796 34.0766 12.6908 34.5855 12.9846L37.5475 14.6946C38.0564 14.9884 38.942 14.9551 39.5219 14.6203L40.4628 14.0771C41.3691 13.5539 42.7811 13.5176 43.6106 13.9965L47.6082 16.3043C48.4377 16.7832 48.375 17.5983 47.4687 18.1215L46.5277 18.6647C45.9478 18.9995 45.89 19.5107 46.399 19.8045C47.2288 20.2829 47.1663 21.0982 46.2603 21.6212ZM25.7686 23.2316C25.1887 23.5664 25.1306 24.0777 25.6395 24.3715L29.6371 26.6794C30.1461 26.9732 31.0319 26.9396 31.6118 26.6048L32.5527 26.0616C33.4591 25.5384 34.8707 25.5024 35.7002 25.9813C36.2091 26.2751 37.0947 26.2417 37.6746 25.9069L45.6796 21.2857C46.2595 20.9509 46.3173 20.4396 45.8084 20.1458C44.9788 19.667 45.0413 18.852 45.9476 18.3288L46.8885 17.7856C47.4685 17.4508 47.5265 16.9394 47.0176 16.6456L43.0197 14.3376C42.5108 14.0438 41.625 14.0773 41.045 14.4121L40.1041 14.9553C39.1978 15.4785 37.7861 15.5146 36.9566 15.0357L33.9946 13.3258C33.1651 12.8469 33.2276 12.0319 34.1339 11.5087L35.0748 10.9655C35.6547 10.6307 35.7128 10.1193 35.2039 9.82553L29.2482 6.3873C28.7392 6.09349 27.8534 6.12701 27.2735 6.46181L11.9967 15.2811C11.4168 15.6159 11.3587 16.1272 11.8677 16.4211L17.8234 19.8593C18.3323 20.1531 19.2181 20.1196 19.7981 19.7848L20.739 19.2416C21.6453 18.7184 23.057 18.6823 23.8865 19.1612L26.8485 20.8712C27.678 21.35 27.6155 22.165 26.7092 22.6882L25.7686 23.2316Z"
				  fill="black" />
		</svg>

		<svg xmlns="http://www.w3.org/2000/svg"
			 class="category-row-keyboard-icon"
			 id="category-row-keyboard-icon"
			 viewBox="0 0 60 29">
			<path d="M3.05954 0.771729C3.05954 0.771729 1.40625 0.771728 1.40625 2.46064V26.6528C1.40625 26.6528 1.40625 28.3417 3.05954 28.3417H57.0164C57.0164 28.3417 58.6697 28.3417 58.6697 26.6528V2.46064C58.6697 2.46064 58.6697 0.771729 57.0164 0.771729H3.05954Z"
				  stroke="#20221D"
				  stroke-width="1.2" />
			<path d="M16.1976 20.8221L16.2015 20.8219H43.2244C43.2746 20.8219 43.3023 20.8338 43.3178 20.844C43.3341 20.8547 43.3466 20.8698 43.3564 20.889C43.3666 20.9089 43.3724 20.9306 43.3754 20.9485C43.3769 20.9571 43.3776 20.9639 43.3779 20.968L43.3781 20.9715V23.5609C43.3781 23.6087 43.3664 23.6347 43.3565 23.6492C43.3459 23.6649 43.3304 23.6774 43.31 23.6874C43.2891 23.6977 43.2664 23.7036 43.2476 23.7067C43.2385 23.7082 43.2313 23.7089 43.2269 23.7092L43.2234 23.7094L43.2238 23.7094L43.2241 23.7094L43.223 23.7094H16.2002C16.15 23.7094 16.1223 23.6974 16.1068 23.6873C16.0905 23.6766 16.078 23.6614 16.0681 23.6421C16.058 23.6221 16.0522 23.6004 16.0491 23.5824C16.0477 23.5738 16.047 23.5669 16.0467 23.5628L16.0465 23.5593V20.9699C16.0465 20.9223 16.0582 20.8964 16.068 20.8819C16.0786 20.8663 16.094 20.8538 16.1144 20.8438C16.1353 20.8335 16.1581 20.8276 16.1769 20.8246C16.186 20.8231 16.1932 20.8224 16.1976 20.8221Z"
				  stroke="black"
				  stroke-width="0.3" />
			<path d="M45.4188 20.8221L45.4234 20.8219H52.6834C52.7381 20.8219 52.7692 20.8344 52.7868 20.8455C52.805 20.8569 52.8182 20.8725 52.8282 20.8913C52.8385 20.9109 52.8445 20.9321 52.8476 20.9495C52.8491 20.9579 52.8497 20.9646 52.85 20.9685L52.8502 20.9716V23.5609C52.8502 23.6073 52.8384 23.6324 52.8283 23.6468C52.8171 23.6626 52.8004 23.6757 52.7779 23.6864C52.7549 23.6972 52.7301 23.7033 52.7096 23.7065C52.6997 23.7081 52.6918 23.7088 52.6869 23.7091L52.6822 23.7094H45.4223C45.3676 23.7094 45.3366 23.6968 45.3189 23.6857C45.3007 23.6743 45.2876 23.6587 45.2776 23.6398C45.2672 23.6202 45.2612 23.5989 45.2581 23.5814C45.2566 23.5729 45.256 23.5663 45.2557 23.5623L45.2555 23.5592V20.9699C45.2555 20.9236 45.2672 20.8987 45.2774 20.8844C45.2885 20.8686 45.3052 20.8555 45.3277 20.8449C45.3507 20.8341 45.3755 20.8279 45.396 20.8247C45.4059 20.8232 45.4138 20.8224 45.4188 20.8221Z"
				  stroke="black"
				  stroke-width="0.3" />
			<path d="M7.49501 20.822L7.49781 20.8219H14.031C14.0747 20.8219 14.0976 20.8328 14.1101 20.8415C14.124 20.8512 14.1357 20.8656 14.1452 20.8856C14.155 20.9061 14.1607 20.9284 14.1636 20.947C14.165 20.9559 14.1657 20.963 14.166 20.9674L14.1662 20.9712V23.5609C14.1662 23.6106 14.1547 23.6379 14.1451 23.6529C14.1352 23.6685 14.1214 23.6801 14.1041 23.6892C14.086 23.6986 14.0662 23.7041 14.0498 23.7069C14.0419 23.7083 14.0357 23.7089 14.0321 23.7092L14.0293 23.7094H7.4961C7.45251 23.7094 7.42965 23.6985 7.41709 23.6897C7.40324 23.6801 7.39153 23.6655 7.38194 23.6455C7.37214 23.625 7.36649 23.6025 7.36353 23.5839C7.3621 23.575 7.36144 23.5678 7.36115 23.5635L7.36094 23.5595V20.9699C7.36094 20.9203 7.37245 20.8932 7.38196 20.8783C7.39187 20.8627 7.40564 20.8511 7.423 20.8421C7.44107 20.8326 7.46085 20.8272 7.47729 20.8243C7.48517 20.8229 7.49138 20.8223 7.49501 20.822Z"
				  stroke="black"
				  stroke-width="0.3" />
			<path d="M21.7179 15.2439C21.7186 15.2438 21.7191 15.2438 21.7195 15.2438H24.284C24.3235 15.2438 24.3446 15.2551 24.3585 15.2668C24.3752 15.2808 24.3907 15.3035 24.4034 15.3354C24.4159 15.3669 24.4228 15.4006 24.4264 15.4278C24.4282 15.441 24.429 15.4518 24.4294 15.4588L24.4297 15.4661L24.4298 15.467L24.4298 15.4667L24.4298 15.4665L24.4298 15.467V18.705C24.4298 18.8442 24.3788 18.8876 24.3519 18.9046C24.3337 18.9161 24.3145 18.9223 24.2994 18.9255C24.292 18.9271 24.2863 18.9277 24.2833 18.928C24.2826 18.9281 24.2821 18.9281 24.2817 18.9281H21.7172C21.678 18.9281 21.657 18.9168 21.6431 18.9051C21.6265 18.8911 21.6109 18.8684 21.5983 18.8364C21.5858 18.8047 21.5788 18.771 21.5752 18.7437C21.5735 18.7304 21.5726 18.7196 21.5722 18.7125L21.5719 18.7052L21.5719 18.7043L21.5719 18.7046L21.5719 18.7048L21.5719 18.7049C21.5719 18.7049 21.5719 18.705 21.4238 18.705L21.5719 18.705V18.7043V15.4663C21.5719 15.3274 21.6227 15.2841 21.6496 15.2672C21.6677 15.2558 21.6868 15.2495 21.7019 15.2464C21.7092 15.2448 21.7149 15.2441 21.7179 15.2439Z"
				  stroke="black"
				  stroke-width="0.3" />
			<path d="M16.2671 15.2438C16.2671 15.2438 16.2672 15.2438 16.2673 15.2438H19.4747C19.5405 15.2438 19.5798 15.2599 19.6044 15.2764C19.6299 15.2936 19.649 15.3177 19.6633 15.3466C19.6779 15.3761 19.6859 15.4074 19.6901 15.4326C19.6921 15.4448 19.6931 15.4547 19.6935 15.4609L19.6938 15.4671C19.6938 15.4672 19.6939 15.4673 19.6939 15.4674V18.705C19.6939 18.7723 19.6776 18.8129 19.661 18.8381C19.6437 18.8642 19.6198 18.8833 19.5916 18.8976C19.5628 18.9122 19.5322 18.9202 19.5075 18.9244C19.4955 18.9264 19.4859 18.9273 19.4798 18.9278L19.4738 18.9281C19.4738 18.9281 19.4737 18.9281 19.4736 18.9281H16.2662C16.2003 18.9281 16.1608 18.9119 16.1362 18.8954C16.1105 18.8781 16.0915 18.8539 16.0771 18.825C16.0625 18.7954 16.0544 18.7641 16.0503 18.7388C16.0482 18.7266 16.0473 18.7167 16.0468 18.7104L16.0465 18.7042C16.0465 18.7041 16.0465 18.704 16.0465 18.7039V15.4663C16.0465 15.3992 16.0627 15.3588 16.0794 15.3337C16.0966 15.3077 16.1205 15.2886 16.1488 15.2743C16.1778 15.2597 16.2085 15.2517 16.2333 15.2475C16.2453 15.2455 16.255 15.2445 16.2611 15.2441L16.2671 15.2438ZM16.0465 18.7036L16.0465 18.7037L16.0465 18.7036Z"
				  stroke="black"
				  stroke-width="0.3" />
			<mask id="path-7-inside-1_0_667"
				  fill="white">
				<path
					  d="M7.4961 15.0938C7.4961 15.0938 7.21094 15.0938 7.21094 15.4663V18.705C7.21094 18.705 7.21094 19.0781 7.4961 19.0781H14.031C14.031 19.0781 14.3162 19.0781 14.3162 18.705V15.4663C14.3162 15.4663 14.3162 15.0938 14.031 15.0938H7.4961Z" />
			</mask>
			<path d="M7.4961 15.0938V14.7937H7.4961L7.4961 15.0938ZM7.21094 18.705H6.91094V18.705L7.21094 18.705ZM14.031 19.0781L14.031 18.7781H14.031V19.0781ZM14.3162 15.4663H14.6162V15.4663L14.3162 15.4663ZM7.4961 15.0938C7.4961 14.7937 7.4959 14.7938 7.49571 14.7938C7.49564 14.7938 7.49545 14.7938 7.49532 14.7938C7.49505 14.7938 7.49478 14.7938 7.4945 14.7938C7.49395 14.7938 7.49337 14.7938 7.49278 14.7938C7.49159 14.7938 7.49031 14.7938 7.48896 14.7938C7.48625 14.7939 7.4832 14.794 7.47984 14.7941C7.47313 14.7944 7.46512 14.7949 7.45597 14.7958C7.43778 14.7975 7.41449 14.8006 7.38771 14.8064C7.33499 14.8179 7.263 14.8411 7.18944 14.8892C7.02432 14.997 6.91094 15.19 6.91094 15.4663H7.51094C7.51094 15.4117 7.52122 15.3902 7.52272 15.3873C7.52365 15.3855 7.52188 15.3887 7.51759 15.3915C7.51627 15.3923 7.51544 15.3927 7.51535 15.3927C7.51531 15.3927 7.51541 15.3927 7.51538 15.3927C7.51533 15.3927 7.51432 15.3929 7.51172 15.3932C7.51037 15.3933 7.50848 15.3934 7.50595 15.3936C7.50468 15.3936 7.50324 15.3937 7.5016 15.3937C7.50079 15.3937 7.49992 15.3937 7.499 15.3937C7.49855 15.3937 7.49808 15.3937 7.49759 15.3937C7.49735 15.3937 7.4971 15.3937 7.49686 15.3937C7.49673 15.3937 7.49654 15.3937 7.49648 15.3937C7.49629 15.3937 7.4961 15.3938 7.4961 15.0938ZM6.91094 15.4663V18.705H7.51094V15.4663H6.91094ZM7.21094 18.705C6.91094 18.705 6.91094 18.7051 6.91094 18.7052C6.91094 18.7052 6.91094 18.7054 6.91094 18.7054C6.91094 18.7056 6.91094 18.7058 6.91094 18.7059C6.91094 18.7063 6.91094 18.7067 6.91094 18.7071C6.91095 18.7079 6.91096 18.7087 6.91097 18.7097C6.91099 18.7117 6.91104 18.7141 6.9111 18.7168C6.91124 18.7222 6.91149 18.7292 6.91194 18.7374C6.91283 18.7537 6.91453 18.7755 6.9178 18.8012C6.92414 18.8509 6.93731 18.9226 6.96634 18.9986C6.99496 19.0735 7.04495 19.1682 7.13402 19.2459C7.22905 19.3288 7.35267 19.3781 7.4961 19.3781V18.7781C7.49378 18.7781 7.49842 18.7779 7.50703 18.7811C7.51567 18.7843 7.52313 18.7891 7.52846 18.7938C7.53733 18.8015 7.53385 18.8029 7.52682 18.7845C7.52021 18.7672 7.51556 18.7456 7.51299 18.7254C7.5118 18.7161 7.51127 18.7087 7.51105 18.7046C7.51094 18.7026 7.51091 18.7015 7.51091 18.7015C7.51091 18.7015 7.51092 18.7018 7.51092 18.7023C7.51093 18.7026 7.51093 18.703 7.51093 18.7034C7.51093 18.7036 7.51094 18.7039 7.51094 18.7041C7.51094 18.7043 7.51094 18.7044 7.51094 18.7045C7.51094 18.7046 7.51094 18.7047 7.51094 18.7047C7.51094 18.7049 7.51094 18.705 7.21094 18.705ZM7.4961 19.3781H14.031V18.7781H7.4961V19.3781ZM14.031 19.0781C14.031 19.3781 14.0312 19.3781 14.0314 19.3781C14.0315 19.3781 14.0317 19.3781 14.0318 19.3781C14.0321 19.3781 14.0324 19.3781 14.0326 19.3781C14.0332 19.3781 14.0338 19.3781 14.0344 19.3781C14.0355 19.3781 14.0368 19.3781 14.0382 19.378C14.0409 19.378 14.0439 19.3779 14.0473 19.3777C14.054 19.3775 14.0621 19.3769 14.0712 19.3761C14.0894 19.3744 14.1127 19.3712 14.1395 19.3654C14.1923 19.3539 14.2643 19.3307 14.3379 19.2825C14.503 19.1745 14.6162 18.9814 14.6162 18.705H14.0162C14.0162 18.7598 14.0059 18.7815 14.0043 18.7845C14.0033 18.7865 14.0051 18.7833 14.0094 18.7804C14.0107 18.7796 14.0115 18.7792 14.0116 18.7792C14.0117 18.7792 14.0116 18.7792 14.0117 18.7792C14.0117 18.7792 14.0128 18.7789 14.0154 18.7787C14.0167 18.7786 14.0186 18.7784 14.0212 18.7783C14.0224 18.7783 14.0239 18.7782 14.0255 18.7782C14.0263 18.7782 14.0272 18.7781 14.0281 18.7781C14.0286 18.7781 14.0291 18.7781 14.0295 18.7781C14.0298 18.7781 14.03 18.7781 14.0303 18.7781C14.0304 18.7781 14.0306 18.7781 14.0307 18.7781C14.0308 18.7781 14.031 18.7781 14.031 19.0781ZM14.6162 18.705V15.4663H14.0162V18.705H14.6162ZM14.3162 15.4663C14.6162 15.4663 14.6162 15.4662 14.6162 15.4661C14.6162 15.4661 14.6162 15.4659 14.6162 15.4659C14.6162 15.4657 14.6162 15.4655 14.6162 15.4654C14.6162 15.465 14.6162 15.4646 14.6162 15.4642C14.6162 15.4634 14.6162 15.4625 14.6162 15.4616C14.6161 15.4596 14.6161 15.4572 14.616 15.4545C14.6159 15.4491 14.6156 15.4421 14.6152 15.4339C14.6143 15.4176 14.6126 15.3958 14.6093 15.3702C14.603 15.3204 14.5898 15.2488 14.5607 15.1728C14.5321 15.0979 14.4821 15.0034 14.3929 14.9258C14.2979 14.843 14.1743 14.7937 14.031 14.7937V15.3938C14.0334 15.3938 14.0288 15.394 14.0202 15.3908C14.0116 15.3876 14.0042 15.3828 13.9989 15.3782C13.9899 15.3704 13.9934 15.369 14.0004 15.3873C14.007 15.4045 14.0116 15.426 14.0142 15.4461C14.0153 15.4554 14.0159 15.4626 14.0161 15.4667C14.0162 15.4687 14.0162 15.4698 14.0162 15.4698C14.0162 15.4698 14.0162 15.4695 14.0162 15.469C14.0162 15.4687 14.0162 15.4683 14.0162 15.4679C14.0162 15.4677 14.0162 15.4674 14.0162 15.4672C14.0162 15.467 14.0162 15.4669 14.0162 15.4668C14.0162 15.4667 14.0162 15.4666 14.0162 15.4666C14.0162 15.4664 14.0162 15.4663 14.3162 15.4663ZM14.031 14.7937H7.4961V15.3938H14.031V14.7937Z"
				  fill="black"
				  mask="url(#path-7-inside-1_0_667)" />
			<mask id="path-9-inside-2_0_667"
				  fill="white">
				<path
					  d="M26.454 15.0938C26.454 15.0938 26.1582 15.0938 26.1582 15.4663V18.705C26.1582 18.705 26.1582 19.0781 26.454 19.0781H29.0208C29.0208 19.0781 29.3161 19.0781 29.3161 18.705V15.4663C29.3161 15.4663 29.3161 15.0938 29.0208 15.0938H26.454Z" />
			</mask>
			<path d="M26.454 15.0938V14.7937H26.454L26.454 15.0938ZM26.1582 18.705H25.8582V18.705L26.1582 18.705ZM29.0208 19.0781L29.0208 18.7781H29.0208V19.0781ZM29.3161 15.4663L29.0161 15.4663V15.4663H29.3161ZM26.454 15.0938C26.454 14.7937 26.4538 14.7938 26.4536 14.7938C26.4535 14.7938 26.4533 14.7938 26.4532 14.7938C26.4529 14.7938 26.4527 14.7938 26.4524 14.7938C26.4519 14.7938 26.4513 14.7938 26.4507 14.7938C26.4496 14.7938 26.4483 14.7938 26.447 14.7938C26.4444 14.7939 26.4414 14.794 26.438 14.7941C26.4314 14.7944 26.4235 14.7949 26.4144 14.7957C26.3962 14.7973 26.373 14.8003 26.3461 14.806C26.2933 14.8171 26.2207 14.8395 26.1462 14.8865C25.9783 14.9922 25.8582 15.1852 25.8582 15.4663H26.4582C26.4582 15.4134 26.4685 15.3933 26.4696 15.3913C26.4702 15.39 26.4686 15.3925 26.466 15.3942C26.4654 15.3946 26.4667 15.3937 26.4694 15.3932C26.4703 15.393 26.4701 15.3931 26.4681 15.3933C26.4671 15.3934 26.4655 15.3935 26.4632 15.3936C26.4621 15.3936 26.4607 15.3937 26.4592 15.3937C26.4584 15.3937 26.4576 15.3937 26.4567 15.3937C26.4563 15.3937 26.4559 15.3937 26.4554 15.3937C26.4552 15.3937 26.4549 15.3937 26.4547 15.3937C26.4546 15.3937 26.4544 15.3937 26.4543 15.3937C26.4541 15.3937 26.454 15.3938 26.454 15.0938ZM25.8582 15.4663V18.705H26.4582V15.4663H25.8582ZM26.1582 18.705C25.8582 18.705 25.8582 18.7051 25.8582 18.7052C25.8582 18.7052 25.8582 18.7054 25.8582 18.7055C25.8582 18.7056 25.8582 18.7058 25.8582 18.706C25.8582 18.7063 25.8582 18.7067 25.8582 18.7071C25.8582 18.7079 25.8582 18.7089 25.8582 18.7099C25.8583 18.7119 25.8583 18.7143 25.8584 18.7171C25.8585 18.7226 25.8588 18.7296 25.8593 18.738C25.8602 18.7545 25.862 18.7766 25.8654 18.8026C25.8721 18.8529 25.8859 18.9254 25.9163 19.0021C25.9464 19.078 25.9985 19.1725 26.0899 19.2494C26.1867 19.3309 26.3109 19.3781 26.454 19.3781V18.7781C26.4491 18.7781 26.4624 18.7787 26.4761 18.7902C26.4843 18.7972 26.4809 18.7983 26.4741 18.781C26.4675 18.7644 26.4628 18.7436 26.4602 18.724C26.459 18.715 26.4585 18.7079 26.4583 18.704C26.4582 18.7022 26.4582 18.7012 26.4582 18.7012C26.4582 18.7013 26.4582 18.7016 26.4582 18.7022C26.4582 18.7025 26.4582 18.7029 26.4582 18.7033C26.4582 18.7036 26.4582 18.7038 26.4582 18.7041C26.4582 18.7042 26.4582 18.7044 26.4582 18.7045C26.4582 18.7046 26.4582 18.7047 26.4582 18.7047C26.4582 18.7049 26.4582 18.705 26.1582 18.705ZM26.454 19.3781H29.0208V18.7781H26.454V19.3781ZM29.0208 19.0781C29.0208 19.3781 29.021 19.3781 29.0212 19.3781C29.0212 19.3781 29.0214 19.3781 29.0216 19.3781C29.0218 19.3781 29.0221 19.3781 29.0223 19.3781C29.0229 19.3781 29.0234 19.3781 29.024 19.3781C29.0252 19.3781 29.0264 19.3781 29.0278 19.378C29.0304 19.378 29.0334 19.3779 29.0367 19.3778C29.0434 19.3775 29.0513 19.377 29.0605 19.3762C29.0786 19.3745 29.1019 19.3715 29.1288 19.3659C29.1816 19.3547 29.2542 19.3322 29.3287 19.2851C29.4964 19.1791 29.6161 18.986 29.6161 18.705H29.0161C29.0161 18.7582 29.0058 18.7785 29.0046 18.7807C29.0039 18.7821 29.0055 18.7796 29.0082 18.7779C29.0089 18.7774 29.0077 18.7782 29.0051 18.7787C29.0043 18.7789 29.0045 18.7788 29.0065 18.7786C29.0076 18.7785 29.0092 18.7784 29.0115 18.7783C29.0127 18.7782 29.014 18.7782 29.0155 18.7782C29.0163 18.7782 29.0171 18.7781 29.018 18.7781C29.0184 18.7781 29.0189 18.7781 29.0194 18.7781C29.0196 18.7781 29.0198 18.7781 29.0201 18.7781C29.0202 18.7781 29.0204 18.7781 29.0204 18.7781C29.0206 18.7781 29.0208 18.7781 29.0208 19.0781ZM29.6161 18.705V15.4663H29.0161V18.705H29.6161ZM29.3161 15.4663C29.6161 15.4663 29.6161 15.4662 29.6161 15.4661C29.6161 15.4661 29.6161 15.4659 29.6161 15.4659C29.6161 15.4657 29.6161 15.4655 29.6161 15.4653C29.6161 15.465 29.6161 15.4646 29.6161 15.4642C29.6161 15.4634 29.6161 15.4624 29.6161 15.4614C29.616 15.4594 29.616 15.457 29.6159 15.4542C29.6158 15.4487 29.6155 15.4417 29.615 15.4334C29.6141 15.4169 29.6123 15.3948 29.6089 15.3688C29.6023 15.3185 29.5885 15.2462 29.5581 15.1695C29.528 15.0936 29.476 14.9992 29.3846 14.9224C29.2878 14.841 29.1637 14.7937 29.0208 14.7937V15.3938C29.0255 15.3938 29.0121 15.3931 28.9984 15.3815C28.9901 15.3746 28.9935 15.3733 29.0003 15.3906C29.0068 15.4071 29.0115 15.4278 29.0141 15.4474C29.0153 15.4564 29.0158 15.4634 29.016 15.4673C29.0161 15.4692 29.0161 15.4701 29.0161 15.4701C29.0161 15.47 29.0161 15.4697 29.0161 15.4691C29.0161 15.4688 29.0161 15.4684 29.0161 15.4679C29.0161 15.4677 29.0161 15.4675 29.0161 15.4672C29.0161 15.4671 29.0161 15.4669 29.0161 15.4668C29.0161 15.4667 29.0161 15.4666 29.0161 15.4666C29.0161 15.4664 29.0161 15.4663 29.3161 15.4663ZM29.0208 14.7937H26.454V15.3938H29.0208V14.7937Z"
				  fill="black"
				  mask="url(#path-9-inside-2_0_667)" />
			<path d="M31.1926 15.2439C31.1932 15.2438 31.1937 15.2438 31.1941 15.2438H33.7586C33.7981 15.2438 33.8192 15.2551 33.8331 15.2668C33.8498 15.2808 33.8653 15.3035 33.878 15.3354C33.8905 15.3669 33.8974 15.4006 33.9011 15.4278C33.9028 15.441 33.9036 15.4518 33.904 15.4588L33.9044 15.4661L33.9044 15.467L33.9044 15.4667L33.9044 15.4665L33.9044 15.467V18.705C33.9044 18.8442 33.8535 18.8876 33.8265 18.9046C33.8083 18.9161 33.7892 18.9223 33.774 18.9255C33.7666 18.9271 33.7609 18.9277 33.7579 18.928C33.7574 18.928 33.7571 18.9281 33.7568 18.9281C33.7566 18.9281 33.7565 18.9281 33.7563 18.9281H31.1918C31.1526 18.9281 31.1316 18.9168 31.1177 18.9051C31.1011 18.8911 31.0855 18.8684 31.0729 18.8364C31.0604 18.8047 31.0534 18.771 31.0498 18.7437C31.0481 18.7304 31.0472 18.7196 31.0468 18.7125L31.0465 18.7052L31.0465 18.7043L31.0465 18.7046L31.0465 18.7048L31.0465 18.7049C31.0465 18.7049 31.0465 18.705 30.9021 18.705L31.0465 18.705V18.7043V15.4663C31.0465 15.3274 31.0973 15.2841 31.1242 15.2672C31.1423 15.2558 31.1614 15.2495 31.1765 15.2464C31.1838 15.2448 31.1895 15.2441 31.1926 15.2439Z"
				  stroke="black"
				  stroke-width="0.3" />
			<mask id="path-12-inside-3_0_667"
				  fill="white">
				<path
					  d="M35.9286 15.0938C35.9286 15.0938 35.6328 15.0938 35.6328 15.4663V18.705C35.6328 18.705 35.6328 19.0781 35.9286 19.0781H38.4954C38.4954 19.0781 38.7907 19.0781 38.7907 18.705V15.4663C38.7907 15.4663 38.7907 15.0938 38.4954 15.0938H35.9286Z" />
			</mask>
			<path d="M35.9286 15.0938V14.7937H35.9286L35.9286 15.0938ZM35.6328 18.705H35.3328V18.705L35.6328 18.705ZM38.4954 19.0781L38.4954 18.7781H38.4954V19.0781ZM38.7907 15.4663H39.0907V15.4663L38.7907 15.4663ZM35.9286 15.0938C35.9286 14.7937 35.9284 14.7938 35.9282 14.7938C35.9281 14.7938 35.9279 14.7938 35.9278 14.7938C35.9276 14.7938 35.9273 14.7938 35.927 14.7938C35.9265 14.7938 35.9259 14.7938 35.9254 14.7938C35.9242 14.7938 35.923 14.7938 35.9216 14.7938C35.919 14.7939 35.916 14.794 35.9127 14.7941C35.906 14.7944 35.8981 14.7949 35.889 14.7957C35.8709 14.7973 35.8476 14.8003 35.8207 14.806C35.768 14.8171 35.6954 14.8395 35.6208 14.8865C35.453 14.9922 35.3328 15.1852 35.3328 15.4663H35.9328C35.9328 15.4134 35.9431 15.3933 35.9442 15.3913C35.9448 15.39 35.9432 15.3925 35.9406 15.3942C35.94 15.3946 35.9413 15.3937 35.944 15.3932C35.9449 15.393 35.9447 15.3931 35.9427 15.3933C35.9417 15.3934 35.9401 15.3935 35.9378 15.3936C35.9367 15.3936 35.9354 15.3937 35.9338 15.3937C35.933 15.3937 35.9322 15.3937 35.9314 15.3937C35.9309 15.3937 35.9305 15.3937 35.93 15.3937C35.9298 15.3937 35.9295 15.3937 35.9293 15.3937C35.9292 15.3937 35.929 15.3937 35.9289 15.3937C35.9288 15.3937 35.9286 15.3938 35.9286 15.0938ZM35.3328 15.4663V18.705H35.9328V15.4663H35.3328ZM35.6328 18.705C35.3328 18.705 35.3328 18.7051 35.3328 18.7052C35.3328 18.7052 35.3328 18.7054 35.3328 18.7055C35.3328 18.7056 35.3328 18.7058 35.3328 18.706C35.3328 18.7063 35.3328 18.7067 35.3328 18.7071C35.3328 18.7079 35.3328 18.7089 35.3328 18.7099C35.3329 18.7119 35.3329 18.7143 35.333 18.7171C35.3331 18.7226 35.3334 18.7296 35.3339 18.738C35.3348 18.7545 35.3366 18.7766 35.34 18.8026C35.3467 18.8529 35.3605 18.9254 35.3909 19.0021C35.421 19.078 35.4731 19.1725 35.5645 19.2494C35.6613 19.3309 35.7855 19.3781 35.9286 19.3781V18.7781C35.9237 18.7781 35.937 18.7787 35.9507 18.7902C35.9589 18.7972 35.9555 18.7983 35.9487 18.781C35.9421 18.7644 35.9374 18.7436 35.9349 18.724C35.9337 18.715 35.9331 18.7079 35.9329 18.704C35.9328 18.7022 35.9328 18.7012 35.9328 18.7012C35.9328 18.7013 35.9328 18.7016 35.9328 18.7022C35.9328 18.7025 35.9328 18.7029 35.9328 18.7033C35.9328 18.7036 35.9328 18.7038 35.9328 18.7041C35.9328 18.7042 35.9328 18.7044 35.9328 18.7045C35.9328 18.7046 35.9328 18.7047 35.9328 18.7047C35.9328 18.7049 35.9328 18.705 35.6328 18.705ZM35.9286 19.3781H38.4954V18.7781H35.9286V19.3781ZM38.4954 19.0781C38.4954 19.3781 38.4956 19.3781 38.4958 19.3781C38.4958 19.3781 38.496 19.3781 38.4962 19.3781C38.4964 19.3781 38.4967 19.3781 38.497 19.3781C38.4975 19.3781 38.4981 19.3781 38.4986 19.3781C38.4998 19.3781 38.501 19.3781 38.5024 19.378C38.505 19.378 38.508 19.3779 38.5114 19.3778C38.518 19.3775 38.5259 19.377 38.5351 19.3762C38.5532 19.3745 38.5765 19.3715 38.6034 19.3659C38.6562 19.3547 38.7288 19.3322 38.8033 19.2851C38.971 19.1791 39.0907 18.986 39.0907 18.705H38.4907C38.4907 18.7582 38.4804 18.7785 38.4792 18.7807C38.4785 18.7821 38.4801 18.7796 38.4828 18.7779C38.4835 18.7774 38.4823 18.7782 38.4797 18.7787C38.4789 18.7789 38.4792 18.7788 38.4811 18.7786C38.4822 18.7785 38.4838 18.7784 38.4861 18.7783C38.4873 18.7782 38.4886 18.7782 38.4901 18.7782C38.4909 18.7782 38.4917 18.7781 38.4926 18.7781C38.4931 18.7781 38.4935 18.7781 38.494 18.7781C38.4942 18.7781 38.4944 18.7781 38.4947 18.7781C38.4948 18.7781 38.495 18.7781 38.495 18.7781C38.4952 18.7781 38.4954 18.7781 38.4954 19.0781ZM39.0907 18.705V15.4663H38.4907V18.705H39.0907ZM38.7907 15.4663C39.0907 15.4663 39.0907 15.4662 39.0907 15.4661C39.0907 15.4661 39.0907 15.4659 39.0907 15.4658C39.0907 15.4657 39.0907 15.4655 39.0907 15.4653C39.0907 15.465 39.0907 15.4646 39.0907 15.4642C39.0907 15.4634 39.0907 15.4624 39.0907 15.4614C39.0907 15.4594 39.0906 15.457 39.0905 15.4542C39.0904 15.4487 39.0901 15.4417 39.0897 15.4334C39.0887 15.4168 39.0869 15.3948 39.0835 15.3688C39.0769 15.3185 39.0631 15.2461 39.0327 15.1695C39.0026 15.0936 38.9506 14.9992 38.8592 14.9224C38.7625 14.841 38.6383 14.7937 38.4954 14.7937V15.3938C38.5002 15.3938 38.4868 15.3931 38.473 15.3815C38.4647 15.3746 38.4681 15.3733 38.4749 15.3906C38.4814 15.4071 38.4861 15.4278 38.4887 15.4474C38.4899 15.4564 38.4904 15.4634 38.4906 15.4673C38.4907 15.4692 38.4907 15.4701 38.4907 15.4701C38.4907 15.47 38.4907 15.4697 38.4907 15.4691C38.4907 15.4688 38.4907 15.4684 38.4907 15.468C38.4907 15.4677 38.4907 15.4675 38.4907 15.4672C38.4907 15.4671 38.4907 15.4669 38.4907 15.4668C38.4907 15.4667 38.4907 15.4666 38.4907 15.4666C38.4907 15.4664 38.4907 15.4663 38.7907 15.4663ZM38.4954 14.7937H35.9286V15.3938H38.4954V14.7937Z"
				  fill="black"
				  mask="url(#path-12-inside-3_0_667)" />
			<mask id="path-14-inside-4_0_667"
				  fill="white">
				<path
					  d="M40.6644 15.0938C40.6644 15.0938 40.3691 15.0938 40.3691 15.4663V18.705C40.3691 18.705 40.3691 19.0781 40.6644 19.0781H43.2313C43.2313 19.0781 43.527 19.0781 43.527 18.705V15.4663C43.527 15.4663 43.527 15.0938 43.2313 15.0938H40.6644Z" />
			</mask>
			<path d="M40.6644 15.0938V14.7937H40.6644L40.6644 15.0938ZM40.3691 18.705H40.0691V18.705L40.3691 18.705ZM43.2313 19.0781L43.2313 18.7781H43.2313V19.0781ZM43.527 15.4663L43.227 15.4663V15.4663H43.527ZM40.6644 15.0938C40.6644 14.7937 40.6643 14.7938 40.6641 14.7938C40.664 14.7938 40.6638 14.7938 40.6637 14.7938C40.6634 14.7938 40.6632 14.7938 40.6629 14.7938C40.6624 14.7938 40.6618 14.7938 40.6612 14.7938C40.6601 14.7938 40.6588 14.7938 40.6575 14.7938C40.6548 14.7939 40.6518 14.794 40.6485 14.7941C40.6419 14.7944 40.6339 14.7949 40.6248 14.7957C40.6067 14.7973 40.5834 14.8003 40.5566 14.806C40.5038 14.8171 40.4312 14.8396 40.3567 14.8866C40.189 14.9924 40.0691 15.1854 40.0691 15.4663H40.6691C40.6691 15.4133 40.6794 15.3932 40.6805 15.3911C40.6812 15.3898 40.6796 15.3923 40.6769 15.3941C40.6762 15.3945 40.6774 15.3937 40.68 15.3932C40.6809 15.393 40.6806 15.3931 40.6787 15.3933C40.6776 15.3934 40.676 15.3935 40.6737 15.3936C40.6726 15.3936 40.6712 15.3937 40.6697 15.3937C40.6689 15.3937 40.6681 15.3937 40.6672 15.3937C40.6668 15.3937 40.6663 15.3937 40.6659 15.3937C40.6656 15.3937 40.6654 15.3937 40.6652 15.3937C40.665 15.3937 40.6649 15.3937 40.6648 15.3937C40.6646 15.3937 40.6644 15.3938 40.6644 15.0938ZM40.0691 15.4663V18.705H40.6691V15.4663H40.0691ZM40.3691 18.705C40.0691 18.705 40.0691 18.7051 40.0691 18.7052C40.0691 18.7052 40.0691 18.7054 40.0691 18.7055C40.0691 18.7056 40.0691 18.7058 40.0691 18.706C40.0691 18.7063 40.0691 18.7067 40.0691 18.7071C40.0692 18.7079 40.0692 18.7089 40.0692 18.7099C40.0692 18.7119 40.0692 18.7143 40.0693 18.7171C40.0695 18.7226 40.0697 18.7296 40.0702 18.7379C40.0711 18.7545 40.0729 18.7766 40.0763 18.8025C40.083 18.8528 40.0968 18.9253 40.1271 19.0019C40.1571 19.0778 40.2091 19.1723 40.3004 19.2493C40.3972 19.3308 40.5214 19.3781 40.6644 19.3781V18.7781C40.6598 18.7781 40.6733 18.7788 40.687 18.7904C40.6953 18.7973 40.6919 18.7985 40.685 18.7812C40.6784 18.7646 40.6738 18.7437 40.6712 18.724C40.67 18.715 40.6695 18.708 40.6692 18.7041C40.6691 18.7022 40.6691 18.7012 40.6691 18.7012C40.6691 18.7013 40.6691 18.7016 40.6691 18.7022C40.6691 18.7025 40.6691 18.7029 40.6691 18.7034C40.6691 18.7036 40.6691 18.7038 40.6691 18.7041C40.6691 18.7042 40.6691 18.7044 40.6691 18.7045C40.6691 18.7046 40.6691 18.7047 40.6691 18.7047C40.6691 18.7049 40.6691 18.705 40.3691 18.705ZM40.6644 19.3781H43.2313V18.7781H40.6644V19.3781ZM43.2313 19.0781C43.2313 19.3781 43.2315 19.3781 43.2317 19.3781C43.2317 19.3781 43.2319 19.3781 43.232 19.3781C43.2323 19.3781 43.2326 19.3781 43.2328 19.3781C43.2334 19.3781 43.2339 19.3781 43.2345 19.3781C43.2357 19.3781 43.2369 19.3781 43.2382 19.378C43.2409 19.378 43.2439 19.3779 43.2472 19.3778C43.2538 19.3775 43.2618 19.377 43.2709 19.3762C43.289 19.3745 43.3124 19.3715 43.3392 19.3659C43.392 19.3548 43.4647 19.3323 43.5392 19.2852C43.7071 19.1793 43.827 18.9862 43.827 18.705H43.227C43.227 18.7581 43.2167 18.7784 43.2156 18.7805C43.2149 18.7819 43.2164 18.7794 43.2191 18.7778C43.2197 18.7773 43.2184 18.7782 43.2158 18.7787C43.2149 18.7789 43.2151 18.7788 43.2171 18.7786C43.2181 18.7785 43.2197 18.7784 43.222 18.7783C43.2232 18.7782 43.2245 18.7782 43.226 18.7782C43.2268 18.7782 43.2276 18.7781 43.2285 18.7781C43.2289 18.7781 43.2294 18.7781 43.2298 18.7781C43.2301 18.7781 43.2303 18.7781 43.2306 18.7781C43.2307 18.7781 43.2309 18.7781 43.2309 18.7781C43.2311 18.7781 43.2313 18.7781 43.2313 19.0781ZM43.827 18.705V15.4663H43.227V18.705H43.827ZM43.527 15.4663C43.827 15.4663 43.827 15.4662 43.827 15.4661C43.827 15.4661 43.827 15.4659 43.827 15.4659C43.827 15.4657 43.827 15.4655 43.827 15.4653C43.827 15.465 43.827 15.4646 43.827 15.4642C43.827 15.4634 43.827 15.4624 43.827 15.4614C43.827 15.4594 43.8269 15.457 43.8269 15.4542C43.8267 15.4487 43.8264 15.4417 43.826 15.4333C43.825 15.4168 43.8233 15.3947 43.8198 15.3688C43.8132 15.3184 43.7993 15.246 43.7689 15.1694C43.7388 15.0934 43.6866 14.999 43.5952 14.9222C43.4983 14.8409 43.3742 14.7937 43.2313 14.7937V15.3938C43.2363 15.3938 43.223 15.3932 43.2093 15.3817C43.2011 15.3748 43.2044 15.3735 43.2112 15.3907C43.2178 15.4072 43.2224 15.4279 43.225 15.4475C43.2262 15.4564 43.2267 15.4635 43.2269 15.4673C43.227 15.4692 43.2271 15.4702 43.2271 15.4701C43.2271 15.47 43.2271 15.4697 43.2271 15.4691C43.227 15.4688 43.227 15.4684 43.227 15.468C43.227 15.4677 43.227 15.4675 43.227 15.4672C43.227 15.4671 43.227 15.4669 43.227 15.4668C43.227 15.4667 43.227 15.4666 43.227 15.4666C43.227 15.4664 43.227 15.4663 43.527 15.4663ZM43.2313 14.7937H40.6644V15.3938H43.2313V14.7937Z"
				  fill="black"
				  mask="url(#path-14-inside-4_0_667)" />
			<path d="M45.4188 15.2439L45.4216 15.2438H52.6865C52.7328 15.2438 52.7584 15.2566 52.7748 15.2696C52.7934 15.2843 52.8097 15.3072 52.8228 15.3382C52.8358 15.3692 52.843 15.4022 52.8468 15.429C52.8486 15.4419 52.8495 15.4525 52.8499 15.4593L52.8502 15.4664L52.8502 15.4671L52.8502 15.4668L52.8502 15.4666L52.8502 15.4671V18.705C52.8502 18.8401 52.7984 18.8837 52.7667 18.9026C52.746 18.9149 52.724 18.9217 52.7064 18.9252C52.6978 18.9268 52.6912 18.9276 52.6873 18.9279L52.6845 18.9281H45.4196C45.3732 18.9281 45.3475 18.9152 45.3311 18.9022C45.3124 18.8874 45.2961 18.8645 45.283 18.8333C45.2699 18.8023 45.2627 18.7692 45.2589 18.7424C45.2571 18.7294 45.2562 18.7188 45.2558 18.712L45.2555 18.705L45.2555 18.7042L45.2555 18.7045L45.2555 18.7047L45.2555 18.7048C45.2555 18.7049 45.2555 18.705 45.1124 18.705L45.2555 18.705V18.7042V15.4663C45.2555 15.3317 45.3072 15.2882 45.3391 15.2693C45.3599 15.257 45.3819 15.2502 45.3996 15.2467C45.4082 15.245 45.4149 15.2443 45.4188 15.2439Z"
				  stroke="black"
				  stroke-width="0.3" />
			<path d="M19.3485 10.4627L19.3519 10.4625H21.9169C21.9643 10.4625 21.9899 10.474 22.0042 10.4836C22.0194 10.4938 22.0315 10.5086 22.0412 10.5282C22.0512 10.5483 22.057 10.5703 22.06 10.5885C22.0614 10.5972 22.0621 10.6042 22.0624 10.6084L22.0626 10.612V13.2015C22.0626 13.2501 22.0509 13.2767 22.0412 13.2914C22.0309 13.307 22.0162 13.3192 21.9971 13.3288C21.9775 13.3387 21.956 13.3444 21.9382 13.3474C21.9296 13.3489 21.9229 13.3495 21.9188 13.3498L21.9154 13.35H19.3504C19.303 13.35 19.2774 13.3385 19.2632 13.3289C19.248 13.3187 19.2358 13.3038 19.2261 13.2842C19.2161 13.264 19.2103 13.2419 19.2073 13.2237C19.2059 13.2149 19.2052 13.2079 19.2049 13.2037L19.2047 13.2V10.6106C19.2047 10.5621 19.2163 10.5357 19.226 10.521C19.2363 10.5054 19.251 10.4933 19.2701 10.4837C19.2897 10.4738 19.3112 10.4681 19.329 10.4651C19.3376 10.4636 19.3444 10.463 19.3485 10.4627Z"
				  stroke="black"
				  stroke-width="0.3" />
			<path d="M14.6102 10.4627L14.6136 10.4625H17.1786C17.226 10.4625 17.2516 10.474 17.2659 10.4836C17.2811 10.4938 17.2933 10.5086 17.303 10.5282C17.3129 10.5483 17.3187 10.5703 17.3217 10.5885C17.3231 10.5972 17.3238 10.6042 17.3241 10.6084L17.3243 10.612V13.2015C17.3243 13.2501 17.3127 13.2767 17.3029 13.2914C17.2926 13.307 17.2779 13.3192 17.2589 13.3288C17.2392 13.3387 17.2177 13.3444 17.1999 13.3474C17.1914 13.3489 17.1846 13.3495 17.1805 13.3498L17.1771 13.35H14.6121C14.5647 13.35 14.5391 13.3385 14.5249 13.3289C14.5097 13.3187 14.4975 13.3038 14.4878 13.2842C14.4778 13.264 14.472 13.2419 14.469 13.2237C14.4676 13.2149 14.4669 13.2079 14.4666 13.2037L14.4664 13.2V10.6106C14.4664 10.5621 14.478 10.5357 14.4877 10.521C14.498 10.5054 14.5127 10.4933 14.5318 10.4837C14.5515 10.4738 14.5729 10.4681 14.5908 10.4651C14.5993 10.4636 14.6061 10.463 14.6102 10.4627Z"
				  stroke="black"
				  stroke-width="0.3" />
			<path d="M7.51836 10.4627L7.52268 10.4625H12.4267C12.4794 10.4625 12.5088 10.4748 12.5254 10.4854C12.5427 10.4965 12.5555 10.5118 12.5654 10.5308C12.5757 10.5505 12.5815 10.572 12.5846 10.5897C12.5861 10.5982 12.5868 10.6049 12.5871 10.6089L12.5873 10.6122V13.2015C12.5873 13.2486 12.5755 13.2741 12.5655 13.2886C12.5546 13.3043 12.5385 13.3172 12.517 13.3275C12.4951 13.338 12.4712 13.3441 12.4515 13.3472C12.4421 13.3487 12.4345 13.3494 12.4298 13.3498L12.4255 13.35H7.52144C7.46888 13.35 7.4395 13.3377 7.42287 13.3271C7.40559 13.316 7.39275 13.3006 7.38283 13.2815C7.37254 13.2617 7.36666 13.2402 7.36358 13.2225C7.36211 13.214 7.36143 13.2072 7.36113 13.2032L7.36094 13.1999V10.6106C7.36094 10.5636 7.37266 10.5382 7.38266 10.5238C7.39352 10.5082 7.40958 10.4953 7.4311 10.485C7.45306 10.4744 7.47692 10.4684 7.49662 10.4653C7.50611 10.4638 7.5137 10.4631 7.51836 10.4627Z"
				  stroke="black"
				  stroke-width="0.3" />
			<path d="M24.0848 10.4627L24.0882 10.4625H26.6532C26.7006 10.4625 26.7263 10.474 26.7405 10.4836C26.7557 10.4938 26.7679 10.5086 26.7776 10.5282C26.7875 10.5483 26.7933 10.5703 26.7963 10.5885C26.7977 10.5972 26.7984 10.6042 26.7987 10.6084L26.7989 10.612V13.2015C26.7989 13.2501 26.7873 13.2767 26.7775 13.2914C26.7672 13.307 26.7525 13.3192 26.7335 13.3288C26.7138 13.3387 26.6923 13.3444 26.6745 13.3474C26.666 13.3489 26.6592 13.3495 26.6551 13.3498L26.6517 13.35H24.0867C24.0393 13.35 24.0137 13.3385 23.9995 13.3289C23.9843 13.3187 23.9721 13.3038 23.9624 13.2842C23.9524 13.264 23.9466 13.2419 23.9436 13.2237C23.9422 13.2149 23.9415 13.2079 23.9412 13.2037L23.941 13.2V10.6106C23.941 10.5621 23.9526 10.5357 23.9623 10.521C23.9726 10.5054 23.9873 10.4933 24.0064 10.4837C24.0261 10.4738 24.0476 10.4681 24.0654 10.4651C24.0739 10.4636 24.0807 10.463 24.0848 10.4627Z"
				  stroke="black"
				  stroke-width="0.3" />
			<path d="M28.8207 10.4627L28.8242 10.4625H31.3895C31.4369 10.4625 31.4626 10.474 31.4768 10.4836C31.4921 10.4938 31.5042 10.5086 31.5139 10.5282C31.5239 10.5483 31.5296 10.5703 31.5326 10.5885C31.5341 10.5972 31.5347 10.6042 31.535 10.6084L31.5352 10.612V13.2015C31.5352 13.2501 31.5236 13.2767 31.5139 13.2914C31.5036 13.307 31.4888 13.3191 31.4698 13.3288C31.4501 13.3387 31.4286 13.3444 31.4108 13.3474C31.4023 13.3489 31.3955 13.3495 31.3914 13.3498L31.388 13.35H28.8226C28.7754 13.35 28.7499 13.3385 28.7358 13.329C28.7206 13.3187 28.7084 13.3039 28.6987 13.2842C28.6887 13.264 28.683 13.242 28.68 13.2237C28.6785 13.2149 28.6778 13.2079 28.6775 13.2037L28.6773 13.2001V10.6106C28.6773 10.562 28.689 10.5356 28.6986 10.5209C28.7089 10.5054 28.7236 10.4933 28.7426 10.4837C28.7622 10.4738 28.7836 10.4681 28.8014 10.4651C28.8099 10.4636 28.8167 10.463 28.8207 10.4627Z"
				  stroke="black"
				  stroke-width="0.3" />
			<path d="M33.5575 10.4627L33.5609 10.4625H36.1263C36.1736 10.4625 36.1991 10.474 36.2132 10.4835C36.2284 10.4937 36.2405 10.5085 36.2502 10.5281C36.2602 10.5482 36.2659 10.5702 36.269 10.5884C36.2704 10.5972 36.2711 10.6041 36.2714 10.6083L36.2716 10.612V13.2015C36.2716 13.2502 36.2599 13.2767 36.2502 13.2915C36.2399 13.3071 36.2252 13.3192 36.2063 13.3288C36.1866 13.3387 36.1652 13.3444 36.1475 13.3474C36.139 13.3489 36.1322 13.3495 36.1282 13.3498L36.1248 13.35H33.5594C33.512 13.35 33.4864 13.3385 33.4722 13.3289C33.4569 13.3186 33.4448 13.3038 33.4351 13.2842C33.4251 13.264 33.4193 13.2419 33.4163 13.2237C33.4148 13.2149 33.4142 13.2079 33.4139 13.2037L33.4137 13.2V10.6106C33.4137 10.5621 33.4253 10.5357 33.435 10.521C33.4453 10.5055 33.46 10.4933 33.479 10.4837C33.4987 10.4738 33.5202 10.4681 33.5381 10.4651C33.5466 10.4636 33.5534 10.463 33.5575 10.4627Z"
				  stroke="black"
				  stroke-width="0.3" />
			<mask id="path-23-inside-5_0_667"
				  fill="white">
				<path
					  d="M38.3711 10.3125C38.3711 10.3125 38.002 10.3125 38.002 10.6106V13.2015C38.002 13.2015 38.002 13.5 38.3711 13.5H41.5796C41.5796 13.5 41.9493 13.5 41.9493 13.2015V10.6106C41.9493 10.6106 41.9493 10.3125 41.5796 10.3125H38.3711Z" />
			</mask>
			<path d="M38.3711 10.3125L38.3711 10.6125H38.3711V10.3125ZM38.002 13.2015H37.702V13.2015L38.002 13.2015ZM41.5796 13.5L41.5796 13.2H41.5796V13.5ZM41.9493 10.6106L41.6493 10.6106V10.6106H41.9493ZM38.3711 10.3125C38.3711 10.0125 38.371 10.0125 38.3708 10.0125C38.3708 10.0125 38.3707 10.0125 38.3706 10.0125C38.3704 10.0125 38.3702 10.0125 38.3701 10.0125C38.3697 10.0125 38.3693 10.0125 38.3689 10.0125C38.3681 10.0125 38.3671 10.0125 38.3661 10.0125C38.3641 10.0126 38.3616 10.0126 38.3589 10.0127C38.3533 10.0128 38.3463 10.0131 38.3379 10.0136C38.3214 10.0145 38.2993 10.0163 38.2734 10.0198C38.2231 10.0266 38.1508 10.0407 38.0742 10.0716C37.9982 10.1023 37.9043 10.1551 37.8283 10.2472C37.748 10.3445 37.702 10.4685 37.702 10.6106H38.302C38.302 10.6036 38.3021 10.6158 38.291 10.6292C38.2841 10.6375 38.2826 10.6345 38.2988 10.6279C38.3145 10.6216 38.3345 10.617 38.3534 10.6145C38.3621 10.6133 38.3688 10.6128 38.3725 10.6126C38.3743 10.6125 38.3752 10.6125 38.375 10.6125C38.3749 10.6125 38.3746 10.6125 38.3739 10.6125C38.3736 10.6125 38.3732 10.6125 38.3727 10.6125C38.3725 10.6125 38.3722 10.6125 38.372 10.6125C38.3718 10.6125 38.3717 10.6125 38.3715 10.6125C38.3715 10.6125 38.3713 10.6125 38.3713 10.6125C38.3712 10.6125 38.3711 10.6125 38.3711 10.3125ZM37.702 10.6106V13.2015H38.302V10.6106H37.702ZM38.002 13.2015C37.702 13.2015 37.702 13.2017 37.702 13.2018C37.702 13.2019 37.702 13.2021 37.702 13.2022C37.702 13.2025 37.702 13.2027 37.702 13.203C37.702 13.2035 37.702 13.2041 37.702 13.2046C37.702 13.2058 37.702 13.207 37.702 13.2083C37.7021 13.2109 37.7022 13.2139 37.7023 13.2172C37.7026 13.2237 37.703 13.2316 37.7038 13.2407C37.7054 13.2587 37.7084 13.2819 37.7139 13.3087C37.7247 13.3612 37.7467 13.4338 37.7929 13.5085C37.8971 13.677 38.0891 13.8 38.3711 13.8V13.2C38.3199 13.2 38.3012 13.1899 38.3001 13.1893C38.2996 13.189 38.302 13.1909 38.3033 13.193C38.3033 13.1931 38.3023 13.191 38.3015 13.1876C38.3013 13.1863 38.3014 13.1862 38.3015 13.1879C38.3016 13.1888 38.3017 13.1903 38.3018 13.1925C38.3018 13.1936 38.3019 13.1949 38.3019 13.1963C38.3019 13.1971 38.3019 13.1979 38.3019 13.1987C38.3019 13.1992 38.3019 13.1996 38.3019 13.2001C38.302 13.2003 38.302 13.2005 38.302 13.2008C38.302 13.2009 38.302 13.2011 38.302 13.2011C38.302 13.2013 38.302 13.2015 38.002 13.2015ZM38.3711 13.8H41.5796V13.2H38.3711V13.8ZM41.5796 13.5C41.5796 13.8 41.5798 13.8 41.5799 13.8C41.5799 13.8 41.58 13.8 41.5801 13.8C41.5803 13.8 41.5805 13.8 41.5807 13.8C41.581 13.8 41.5814 13.8 41.5818 13.8C41.5827 13.8 41.5836 13.8 41.5846 13.8C41.5866 13.7999 41.5891 13.7999 41.5919 13.7998C41.5974 13.7997 41.6045 13.7994 41.6128 13.7989C41.6294 13.798 41.6515 13.7961 41.6774 13.7927C41.7278 13.7859 41.8002 13.7718 41.8768 13.7409C41.9529 13.7102 42.0468 13.6572 42.1229 13.5651C42.2033 13.4677 42.2493 13.3437 42.2493 13.2015H41.6493C41.6493 13.2085 41.6492 13.1965 41.6602 13.1831C41.667 13.1748 41.6685 13.1779 41.6522 13.1845C41.6364 13.1909 41.6164 13.1955 41.5974 13.198C41.5887 13.1992 41.5819 13.1997 41.5783 13.1999C41.5765 13.2 41.5756 13.2 41.5757 13.2C41.5758 13.2 41.5762 13.2 41.5768 13.2C41.5771 13.2 41.5775 13.2 41.578 13.2C41.5782 13.2 41.5785 13.2 41.5788 13.2C41.5789 13.2 41.579 13.2 41.5792 13.2C41.5793 13.2 41.5794 13.2 41.5794 13.2C41.5795 13.2 41.5796 13.2 41.5796 13.5ZM42.2493 13.2015V10.6106H41.6493V13.2015H42.2493ZM41.9493 10.6106C42.2493 10.6106 42.2493 10.6104 42.2493 10.6102C42.2493 10.6101 42.2493 10.61 42.2493 10.6098C42.2493 10.6096 42.2493 10.6093 42.2493 10.609C42.2493 10.6085 42.2493 10.608 42.2493 10.6074C42.2493 10.6063 42.2493 10.605 42.2493 10.6037C42.2492 10.6011 42.2491 10.5981 42.249 10.5948C42.2487 10.5883 42.2482 10.5804 42.2474 10.5713C42.2458 10.5533 42.2429 10.53 42.2373 10.5033C42.2265 10.4507 42.2044 10.3781 42.1581 10.3034C42.0537 10.1351 41.8615 10.0125 41.5796 10.0125V10.6125C41.6312 10.6125 41.6501 10.6226 41.6513 10.6233C41.6519 10.6236 41.6495 10.6218 41.6482 10.6196C41.6481 10.6195 41.6491 10.6214 41.6498 10.6247C41.65 10.6259 41.6499 10.626 41.6498 10.6242C41.6497 10.6233 41.6496 10.6218 41.6495 10.6196C41.6494 10.6185 41.6494 10.6172 41.6494 10.6157C41.6494 10.615 41.6494 10.6142 41.6493 10.6133C41.6493 10.6129 41.6493 10.6124 41.6493 10.612C41.6493 10.6117 41.6493 10.6115 41.6493 10.6113C41.6493 10.6112 41.6493 10.611 41.6493 10.6109C41.6493 10.6107 41.6493 10.6106 41.9493 10.6106ZM41.5796 10.0125H38.3711V10.6125H41.5796V10.0125Z"
				  fill="black"
				  mask="url(#path-23-inside-5_0_667)" />
			<path d="M43.8212 10.4627L43.8246 10.4625H46.3899C46.4372 10.4625 46.4628 10.474 46.4769 10.4835C46.4921 10.4937 46.5042 10.5085 46.5139 10.5281C46.5239 10.5482 46.5296 10.5702 46.5326 10.5884C46.5341 10.5972 46.5347 10.6041 46.535 10.6083L46.5352 10.612V13.2015C46.5352 13.2502 46.5236 13.2767 46.5139 13.2915C46.5036 13.3071 46.4889 13.3192 46.4699 13.3288C46.4503 13.3387 46.4289 13.3444 46.4112 13.3474C46.4026 13.3489 46.3959 13.3495 46.3918 13.3498L46.3884 13.35H43.8231C43.7757 13.35 43.7501 13.3385 43.7359 13.3289C43.7206 13.3186 43.7085 13.3038 43.6987 13.2842C43.6887 13.264 43.683 13.2419 43.68 13.2237C43.6785 13.2149 43.6778 13.2079 43.6775 13.2037L43.6773 13.2V10.6106C43.6773 10.5621 43.689 10.5357 43.6987 10.521C43.7089 10.5055 43.7236 10.4933 43.7427 10.4837C43.7624 10.4738 43.7839 10.4681 43.8017 10.4651C43.8103 10.4636 43.8171 10.463 43.8212 10.4627Z"
				  stroke="black"
				  stroke-width="0.3" />
			<path d="M48.5535 10.4627L48.5567 10.4625H52.7087C52.7547 10.4625 52.7793 10.4738 52.793 10.4831C52.8077 10.4931 52.8197 10.5078 52.8293 10.5275C52.8392 10.5477 52.8449 10.5698 52.8479 10.5882C52.8494 10.597 52.85 10.604 52.8503 10.6082L52.8505 10.612V13.2015C52.8505 13.2505 52.8389 13.2773 52.8293 13.2922C52.8191 13.3078 52.8047 13.3197 52.7863 13.3291C52.7672 13.3389 52.7464 13.3445 52.7291 13.3475C52.7208 13.3489 52.7142 13.3495 52.7103 13.3498L52.7071 13.35H48.5551C48.5092 13.35 48.4848 13.3387 48.4712 13.3295C48.4565 13.3195 48.4446 13.3048 48.4349 13.2849C48.425 13.2646 48.4193 13.2424 48.4163 13.224C48.4148 13.2152 48.4142 13.2081 48.4139 13.2039L48.4137 13.2001V10.6106C48.4137 10.5616 48.4252 10.5349 48.4349 10.5202C48.445 10.5046 48.4593 10.4927 48.4777 10.4833C48.4967 10.4736 48.5175 10.468 48.5348 10.465C48.543 10.4636 48.5496 10.463 48.5535 10.4627Z"
				  stroke="black"
				  stroke-width="0.3" />
			<path d="M31.1899 5.68144L31.1933 5.68125H33.7591C33.8063 5.68125 33.8318 5.69274 33.846 5.70228C33.8612 5.71251 33.8733 5.72736 33.883 5.747C33.893 5.76719 33.8988 5.78923 33.9018 5.8075C33.9032 5.81627 33.9039 5.82326 33.9042 5.82748L33.9044 5.83115V8.42027C33.9044 8.46897 33.8927 8.4955 33.883 8.51024C33.8727 8.52584 33.8581 8.53797 33.8391 8.54757C33.8195 8.55748 33.7981 8.56318 33.7803 8.56617C33.7718 8.56761 33.765 8.56826 33.761 8.56856L33.7576 8.56875H31.1918C31.1445 8.56875 31.1191 8.55726 31.1049 8.54772C31.0897 8.53749 31.0776 8.52264 31.0678 8.503C31.0579 8.48281 31.0521 8.46077 31.0491 8.4425C31.0477 8.43373 31.047 8.42673 31.0467 8.42252L31.0465 8.41885V5.82973C31.0465 5.78103 31.0581 5.7545 31.0678 5.73976C31.0781 5.72416 31.0928 5.71203 31.1118 5.70243C31.1314 5.69252 31.1528 5.68682 31.1706 5.68383C31.1791 5.68239 31.1859 5.68174 31.1899 5.68144Z"
				  stroke="black"
				  stroke-width="0.3" />
			<path d="M26.4516 5.68144L26.455 5.68125H29.0208C29.068 5.68125 29.0935 5.69274 29.1077 5.70228C29.1229 5.71251 29.135 5.72736 29.1447 5.747C29.1547 5.76719 29.1605 5.78923 29.1635 5.8075C29.1649 5.81627 29.1656 5.82326 29.1659 5.82748L29.1661 5.83115V8.42027C29.1661 8.46897 29.1545 8.4955 29.1447 8.51024C29.1345 8.52584 29.1198 8.53797 29.1008 8.54757C29.0812 8.55748 29.0598 8.56318 29.042 8.56617C29.0335 8.56761 29.0267 8.56826 29.0227 8.56856L29.0193 8.56875H26.4535C26.4063 8.56875 26.3808 8.55726 26.3666 8.54772C26.3514 8.53749 26.3393 8.52264 26.3296 8.503C26.3196 8.48281 26.3138 8.46077 26.3108 8.4425C26.3094 8.43373 26.3087 8.42673 26.3084 8.42252L26.3082 8.41885V5.82973C26.3082 5.78103 26.3198 5.7545 26.3296 5.73976C26.3399 5.72416 26.3545 5.71203 26.3735 5.70243C26.3931 5.69252 26.4145 5.68682 26.4323 5.68383C26.4408 5.68239 26.4476 5.68174 26.4516 5.68144Z"
				  stroke="black"
				  stroke-width="0.3" />
			<path d="M21.7157 5.68144L21.7191 5.68125H24.2845C24.3317 5.68125 24.3572 5.69274 24.3714 5.70228C24.3865 5.71251 24.3987 5.72736 24.4084 5.747C24.4184 5.76719 24.4241 5.78923 24.4271 5.8075C24.4286 5.81627 24.4293 5.82326 24.4296 5.82748L24.4298 5.83115V8.42027C24.4298 8.46897 24.4181 8.4955 24.4084 8.51024C24.3981 8.52584 24.3835 8.53797 24.3645 8.54757C24.3448 8.55748 24.3234 8.56318 24.3057 8.56617C24.2972 8.56761 24.2904 8.56826 24.2864 8.56856L24.283 8.56875H21.7176C21.6702 8.56875 21.6446 8.55724 21.6304 8.54766C21.6151 8.5374 21.603 8.52254 21.5933 8.50292C21.5833 8.48274 21.5775 8.46072 21.5745 8.44247C21.573 8.4337 21.5724 8.42671 21.5721 8.4225L21.5719 8.41884V5.82973C21.5719 5.78108 21.5835 5.75458 21.5932 5.73985C21.6036 5.72425 21.6183 5.7121 21.6373 5.70248C21.657 5.69254 21.6785 5.68683 21.6963 5.68384C21.7048 5.6824 21.7116 5.68174 21.7157 5.68144Z"
				  stroke="black"
				  stroke-width="0.3" />
			<path d="M16.9794 5.68144L16.9828 5.68125H19.5481C19.5954 5.68125 19.6209 5.69274 19.635 5.70228C19.6502 5.71251 19.6624 5.72736 19.6721 5.747C19.6821 5.76719 19.6878 5.78923 19.6908 5.8075C19.6923 5.81627 19.6929 5.82326 19.6932 5.82748L19.6934 5.83115V8.42027C19.6934 8.46897 19.6818 8.4955 19.6721 8.51024C19.6618 8.52584 19.6471 8.53797 19.6281 8.54757C19.6085 8.55748 19.5871 8.56318 19.5694 8.56617C19.5608 8.56761 19.5541 8.56826 19.55 8.56856L19.5466 8.56875H16.9813C16.9339 8.56875 16.9083 8.55724 16.8941 8.54766C16.8788 8.5374 16.8666 8.52254 16.8569 8.50292C16.8469 8.48274 16.8412 8.46072 16.8382 8.44247C16.8367 8.4337 16.836 8.42671 16.8358 8.4225L16.8355 8.41884V5.82973C16.8355 5.78108 16.8472 5.75458 16.8569 5.73985C16.8672 5.72425 16.8819 5.7121 16.901 5.70248C16.9207 5.69254 16.9422 5.68683 16.96 5.68384C16.9685 5.6824 16.9753 5.68174 16.9794 5.68144Z"
				  stroke="black"
				  stroke-width="0.3" />
			<path d="M12.243 5.68144L12.2464 5.68125H14.8114C14.8588 5.68125 14.8844 5.69276 14.8986 5.70234C14.9139 5.71259 14.926 5.72745 14.9357 5.74707C14.9457 5.76726 14.9515 5.78928 14.9545 5.80753C14.9559 5.8163 14.9566 5.82328 14.9569 5.82749L14.9571 5.83116V8.42027C14.9571 8.46893 14.9455 8.49543 14.9357 8.51016C14.9254 8.52576 14.9107 8.53791 14.8917 8.54753C14.872 8.55746 14.8505 8.56317 14.8327 8.56616C14.8242 8.5676 14.8174 8.56826 14.8133 8.56856L14.8099 8.56875H12.2449C12.1975 8.56875 12.1719 8.55724 12.1577 8.54766C12.1425 8.53741 12.1303 8.52255 12.1206 8.50293C12.1106 8.48274 12.1048 8.46072 12.1018 8.44247C12.1004 8.4337 12.0997 8.42672 12.0994 8.42251L12.0992 8.41884V5.82973C12.0992 5.78107 12.1109 5.75457 12.1206 5.73984C12.1309 5.72424 12.1456 5.71209 12.1647 5.70247C12.1843 5.69254 12.2058 5.68683 12.2236 5.68384C12.2322 5.6824 12.2389 5.68174 12.243 5.68144Z"
				  stroke="black"
				  stroke-width="0.3" />
			<path d="M7.50473 5.68144L7.50816 5.68125H10.0731C10.1205 5.68125 10.1461 5.69276 10.1603 5.70234C10.1756 5.71259 10.1877 5.72745 10.1975 5.74707C10.2075 5.76726 10.2132 5.78928 10.2162 5.80753C10.2177 5.8163 10.2183 5.82328 10.2186 5.82749L10.2188 5.83116V8.42027C10.2188 8.46893 10.2072 8.49543 10.1975 8.51016C10.1872 8.52576 10.1725 8.53791 10.1534 8.54753C10.1337 8.55746 10.1122 8.56317 10.0944 8.56616C10.0859 8.5676 10.0791 8.56826 10.075 8.56856L10.0716 8.56875H7.50665C7.45926 8.56875 7.43366 8.55724 7.41943 8.54766C7.40419 8.53741 7.39204 8.52255 7.38231 8.50293C7.37232 8.48274 7.36657 8.46072 7.36355 8.44247C7.36211 8.4337 7.36144 8.42672 7.36114 8.4225L7.36094 8.41884V5.82973C7.36094 5.78107 7.37258 5.75457 7.38231 5.73984C7.39261 5.72424 7.40732 5.71209 7.42638 5.70247C7.44605 5.69254 7.46753 5.68683 7.48533 5.68384C7.49388 5.6824 7.50067 5.68174 7.50473 5.68144Z"
				  stroke="black"
				  stroke-width="0.3" />
			<path d="M35.9262 5.68144L35.9296 5.68125H38.495C38.5424 5.68125 38.568 5.69276 38.5822 5.70234C38.5975 5.7126 38.6096 5.72746 38.6193 5.74708C38.6293 5.76726 38.6351 5.78928 38.6381 5.80753C38.6395 5.8163 38.6402 5.82329 38.6405 5.8275L38.6407 5.83116V8.42027C38.6407 8.46892 38.6291 8.49542 38.6193 8.51015C38.609 8.52575 38.5943 8.5379 38.5753 8.54752C38.5556 8.55746 38.5341 8.56317 38.5163 8.56616C38.5077 8.5676 38.5009 8.56826 38.4969 8.56856L38.4934 8.56875H35.9281C35.8809 8.56875 35.8554 8.55726 35.8412 8.54772C35.826 8.53749 35.8139 8.52264 35.8042 8.503C35.7942 8.48281 35.7884 8.46077 35.7854 8.4425C35.784 8.43373 35.7833 8.42673 35.783 8.42252L35.7828 8.41885V5.82973C35.7828 5.78103 35.7944 5.7545 35.8042 5.73976C35.8145 5.72416 35.8291 5.71203 35.8481 5.70243C35.8677 5.69252 35.8891 5.68682 35.9069 5.68383C35.9154 5.68239 35.9222 5.68174 35.9262 5.68144Z"
				  stroke="black"
				  stroke-width="0.3" />
			<path d="M40.663 5.68144L40.6664 5.68125H43.2313C43.2787 5.68125 43.3043 5.69276 43.3185 5.70234C43.3338 5.7126 43.3459 5.72746 43.3557 5.74708C43.3657 5.76726 43.3714 5.78928 43.3744 5.80753C43.3759 5.8163 43.3765 5.82329 43.3768 5.8275L43.377 5.83116V8.42027C43.377 8.46892 43.3654 8.49542 43.3557 8.51015C43.3454 8.52575 43.3307 8.5379 43.3116 8.54752C43.2919 8.55746 43.2704 8.56317 43.2526 8.56616C43.2441 8.5676 43.2373 8.56826 43.2332 8.56856L43.2298 8.56875H40.6649C40.6175 8.56875 40.5919 8.55724 40.5776 8.54766C40.5624 8.5374 40.5502 8.52254 40.5405 8.50292C40.5305 8.48274 40.5248 8.46072 40.5218 8.44246C40.5203 8.4337 40.5196 8.42671 40.5193 8.4225L40.5191 8.41884V5.82973C40.5191 5.78108 40.5308 5.75458 40.5405 5.73985C40.5508 5.72425 40.5655 5.7121 40.5846 5.70248C40.6043 5.69254 40.6258 5.68683 40.6436 5.68384C40.6521 5.6824 40.6589 5.68174 40.663 5.68144Z"
				  stroke="black"
				  stroke-width="0.3" />
			<path d="M45.3993 5.68144L45.4027 5.68125H47.9676C48.015 5.68125 48.0406 5.69276 48.0549 5.70234C48.0701 5.7126 48.0823 5.72746 48.092 5.74708C48.102 5.76726 48.1077 5.78928 48.1107 5.80753C48.1122 5.8163 48.1129 5.82329 48.1132 5.8275L48.1134 5.83116V8.42027C48.1134 8.46892 48.1017 8.49542 48.092 8.51015C48.0817 8.52575 48.067 8.5379 48.0479 8.54752C48.0282 8.55746 48.0067 8.56317 47.9889 8.56616C47.9804 8.5676 47.9736 8.56826 47.9695 8.56856L47.9661 8.56875H45.4012C45.3538 8.56875 45.3282 8.55724 45.314 8.54766C45.2987 8.5374 45.2866 8.52254 45.2768 8.50292C45.2668 8.48274 45.2611 8.46072 45.2581 8.44246C45.2566 8.4337 45.256 8.42671 45.2557 8.4225L45.2555 8.41884V5.82973C45.2555 5.78108 45.2671 5.75458 45.2768 5.73985C45.2871 5.72425 45.3019 5.7121 45.3209 5.70248C45.3406 5.69254 45.3621 5.68683 45.3799 5.68384C45.3884 5.6824 45.3952 5.68174 45.3993 5.68144Z"
				  stroke="black"
				  stroke-width="0.3" />
			<path d="M50.1376 5.68144L50.141 5.68125H52.7064C52.7536 5.68125 52.7791 5.69274 52.7933 5.70228C52.8084 5.71251 52.8206 5.72736 52.8303 5.747C52.8403 5.76719 52.846 5.78923 52.849 5.8075C52.8505 5.81627 52.8512 5.82326 52.8515 5.82748L52.8517 5.83115V8.42027C52.8517 8.46897 52.84 8.4955 52.8303 8.51024C52.82 8.52584 52.8053 8.53797 52.7863 8.54757C52.7667 8.55748 52.7453 8.56318 52.7276 8.56617C52.7191 8.56761 52.7123 8.56826 52.7082 8.56856L52.7048 8.56875H50.1395C50.0921 8.56875 50.0665 8.55724 50.0523 8.54766C50.037 8.5374 50.0249 8.52254 50.0151 8.50292C50.0051 8.48274 49.9994 8.46072 49.9964 8.44246C49.9949 8.4337 49.9943 8.42671 49.994 8.4225L49.9938 8.41884V5.82973C49.9938 5.78108 50.0054 5.75458 50.0151 5.73985C50.0254 5.72425 50.0401 5.7121 50.0592 5.70248C50.0789 5.69254 50.1004 5.68683 50.1182 5.68384C50.1267 5.6824 50.1335 5.68174 50.1376 5.68144Z"
				  stroke="black"
				  stroke-width="0.3" />
		</svg>

		<svg xmlns="http://www.w3.org/2000/svg"
			 class="category-row-ram-icon"
			 id="category-row-ram-icon"
			 viewBox="0 0 58 36">
			<path d="M45.4548 1.53561C44.6882 1.11649 43.4671 1.11717 42.7019 1.53715L2.18123 23.7779C1.37986 24.2177 1.38993 24.944 2.2034 25.3767L12.0654 30.6234C12.8369 31.0338 14.0479 31.0271 14.8048 30.6081L55.023 8.34677C55.8112 7.91047 55.8073 7.19512 55.0143 6.76158L45.4548 1.53561Z"
				  stroke="black"
				  stroke-width="0.8" />
			<path fill-rule="evenodd"
				  clip-rule="evenodd"
				  d="M1.17995 28.0848C1.25185 28.0441 1.33983 28.0441 1.41174 28.0848L12.393 34.3002C13.0042 34.6462 13.7521 34.6462 14.3633 34.3002L55.2419 11.1628C55.317 11.1202 55.409 11.1202 55.4842 11.1628C55.6506 11.257 55.6506 11.4967 55.4842 11.5909L54.9921 11.8694L14.3862 34.8525C13.775 35.1985 13.0272 35.1985 12.416 34.8526L1.68847 28.7821L1.17996 28.4943C1.02075 28.4042 1.02074 28.1749 1.17995 28.0848Z"
				  fill="black" />
			<path d="M1.41642 24.8917L1.36145 28.3727"
				  stroke="black"
				  stroke-width="0.5" />
			<path d="M13.1426 30.9324V34.8727"
				  stroke="black"
				  stroke-width="0.5" />
			<path d="M55.7842 7.47974L55.3613 11.3727"
				  stroke="black"
				  stroke-width="0.5" />
			<rect y="0.249984"
				  width="7.62372"
				  height="6.46319"
				  transform="matrix(0.866044 0.499967 -0.866044 0.499967 15.8356 18.9758)"
				  stroke="black"
				  stroke-width="0.5" />
			<rect y="0.249984"
				  width="7.62372"
				  height="6.46319"
				  transform="matrix(0.866044 0.499967 -0.866044 0.499967 24.3649 14.001)"
				  stroke="black"
				  stroke-width="0.5" />
			<rect y="0.249984"
				  width="7.62372"
				  height="6.46319"
				  transform="matrix(0.866044 0.499967 -0.866044 0.499967 33.6032 9.02612)"
				  stroke="black"
				  stroke-width="0.5" />
			<rect y="0.249984"
				  width="7.62372"
				  height="6.46319"
				  transform="matrix(0.866044 0.499967 -0.866044 0.499967 42.8435 4.05127)"
				  stroke="black"
				  stroke-width="0.5" />
		</svg>

		<svg xmlns="http://www.w3.org/2000/svg"
			 class="category-row-power-unit-icon"
			 id="category-row-power-unit-icon"
			 viewBox="0 0 69 45">
			<path fill-rule="evenodd"
				  clip-rule="evenodd"
				  d="M14.063 33.0641C14.5881 31.104 13.8507 28.3518 12.4158 26.9169C10.981 25.4819 9.39218 25.9077 8.86706 27.8678C8.34193 29.8278 9.07938 32.58 10.5142 34.015C11.949 35.4499 13.5379 35.0242 14.063 33.0641ZM14.1975 33.1987C14.7499 31.137 13.9742 28.2423 12.4651 26.733C10.956 25.2238 9.28482 25.6716 8.73249 27.7332C8.18017 29.7948 8.95582 32.6896 10.4649 34.1988C11.9741 35.708 13.6452 35.2603 14.1975 33.1987Z"
				  fill="black" />
			<path fill-rule="evenodd"
				  clip-rule="evenodd"
				  d="M12.9966 32.125C13.3243 30.9018 12.8616 29.181 11.9623 28.2816C11.063 27.3823 10.0686 27.6459 9.74092 28.8691C9.41322 30.0922 9.87593 31.8131 10.7752 32.7124C11.6745 33.6118 12.6689 33.3481 12.9966 32.125ZM13.0773 32.2057C13.4214 30.9213 12.9354 29.115 11.9918 28.1713C11.0482 27.2277 10.0043 27.5039 9.66018 28.7883C9.31607 30.0728 9.80206 31.879 10.7457 32.8227C11.6893 33.7664 12.7332 33.4902 13.0773 32.2057Z"
				  fill="black" />
			<path fill-rule="evenodd"
				  clip-rule="evenodd"
				  d="M22.4485 37.5433C22.9987 35.4898 22.2261 32.6065 20.7229 31.1032C19.2198 29.5999 17.5552 30.046 17.0051 32.0994C16.4549 34.1529 17.2275 37.0362 18.7307 38.5395C20.2339 40.0428 21.8984 39.5967 22.4485 37.5433ZM22.5895 37.6843C23.1681 35.5244 22.3555 32.4918 20.7745 30.9106C19.1935 29.3295 17.4428 29.7986 16.8641 31.9584C16.2855 34.1183 17.0981 37.1509 18.6791 38.7321C20.2601 40.3132 22.0109 39.8441 22.5895 37.6843Z"
				  fill="black" />
			<path fill-rule="evenodd"
				  clip-rule="evenodd"
				  d="M21.3297 36.5594C21.673 35.278 21.1883 33.4752 20.2461 32.5329C19.304 31.5907 18.2623 31.8669 17.919 33.1484C17.5757 34.4298 18.0604 36.2326 19.0026 37.1748C19.9447 38.117 20.9864 37.8408 21.3297 36.5594ZM21.4143 36.644C21.7748 35.2983 21.2657 33.406 20.2771 32.4174C19.2885 31.4288 18.1949 31.7181 17.8344 33.0638C17.4739 34.4094 17.983 36.3017 18.9716 37.2903C19.9602 38.279 21.0538 37.9896 21.4143 36.644Z"
				  fill="black" />
			<path fill-rule="evenodd"
				  clip-rule="evenodd"
				  d="M58.6706 16.7368C54.4849 18.9193 49.9209 20.865 46.8198 22.0583C46.5621 22.1574 46.2747 22.0267 46.1769 21.7684C46.0792 21.5102 46.2082 21.2221 46.4659 21.123C49.5396 19.94 54.0653 18.0103 58.2083 15.8501C60.3874 14.7139 62.4512 13.5188 64.1391 12.3398C65.6144 11.3093 66.7668 10.3152 67.4671 9.4082C67.6358 9.18962 67.944 9.12018 68.1769 9.26844C68.4099 9.41669 68.4796 9.72646 68.3135 9.94707C67.5163 11.006 66.2379 12.0936 64.7117 13.1596C62.9756 14.3723 60.8707 15.5897 58.6706 16.7368Z"
				  fill="black" />
			<path fill-rule="evenodd"
				  clip-rule="evenodd"
				  d="M58.6706 16.7368C54.4849 18.9193 49.9209 20.865 46.8198 22.0583C46.5621 22.1574 46.2747 22.0267 46.1769 21.7684C46.0792 21.5102 46.2082 21.2221 46.4659 21.123C49.5396 19.94 54.0653 18.0103 58.2083 15.8501C60.3874 14.7139 62.4512 13.5188 64.1391 12.3398C65.6144 11.3093 66.7668 10.3152 67.4671 9.4082C67.6358 9.18962 67.944 9.12018 68.1769 9.26844C68.4099 9.41669 68.4796 9.72646 68.3135 9.94707C67.5163 11.006 66.2379 12.0936 64.7117 13.1596C62.9756 14.3723 60.8707 15.5897 58.6706 16.7368Z"
				  fill="url(#paint0_linear_0_753)" />
			<path fill-rule="evenodd"
				  clip-rule="evenodd"
				  d="M58.6706 16.7368C54.4849 18.9193 49.9209 20.865 46.8198 22.0583C46.5621 22.1574 46.2747 22.0267 46.1769 21.7684C46.0792 21.5102 46.2082 21.2221 46.4659 21.123C49.5396 19.94 54.0653 18.0103 58.2083 15.8501C60.3874 14.7139 62.4512 13.5188 64.1391 12.3398C65.6144 11.3093 66.7668 10.3152 67.4671 9.4082C67.6358 9.18962 67.944 9.12018 68.1769 9.26844C68.4099 9.41669 68.4796 9.72646 68.3135 9.94707C67.5163 11.006 66.2379 12.0936 64.7117 13.1596C62.9756 14.3723 60.8707 15.5897 58.6706 16.7368Z"
				  fill="url(#paint1_linear_0_753)" />
			<path fill-rule="evenodd"
				  clip-rule="evenodd"
				  d="M51.2917 12.2476L32.143 1.48246C29.7033 0.110848 25.8635 0.062279 23.3238 1.37091L2.91554 11.8868C0.109743 13.3326 -0.0229313 15.8571 2.62579 17.4001L22.4734 28.9625C24.9982 30.4334 29.0872 30.4422 31.6307 28.9823L51.3401 17.6691C53.9426 16.1753 53.9208 13.7256 51.2917 12.2476ZM32.6445 1.17973C29.9337 -0.344276 25.6672 -0.398242 22.8454 1.05579L2.43709 11.5717C0.53185 12.5534 -0.264091 13.9828 0.0767314 15.3374L0.00395862 29.0559C0.0830365 30.0647 0.781909 31.0619 2.11154 31.8365L21.6836 43.2384C24.4892 44.8728 29.0328 44.8825 31.8588 43.2601L51.6399 31.9039C52.8524 31.2078 53.511 30.5 53.7405 29.4133L53.7568 29.3594L53.756 29.3318C53.8045 29.0514 53.7568 28.8125 53.7568 28.4882L53.756 16.0595C54.4084 14.633 53.7522 13.0462 51.7932 11.9449L32.6445 1.17973ZM53.0189 29.3846L53.019 17.0915C52.7041 17.4056 52.3135 17.701 51.8469 17.9688L32.1375 29.282C30.6419 30.1404 28.6654 30.5419 26.72 30.4873V44.0497C28.3912 44.0601 30.0684 43.6973 31.352 42.9604L51.133 31.6042C52.2146 30.9833 52.8428 30.1973 53.0189 29.3846ZM26.3515 44.0413V30.4715C24.7489 30.3788 23.1896 29.9747 21.9627 29.26L2.11515 17.6976C1.49566 17.3367 1.0131 16.9275 0.666351 16.4913L0.820117 29.5314C1.04501 30.2653 1.6439 30.9691 2.62218 31.539L22.1942 42.9409C23.3513 43.615 24.8368 43.982 26.3515 44.0413Z"
				  fill="black" />
			<defs>
				<linearGradient id="paint0_linear_0_753"
								x1="63.531"
								y1="2.76843"
								x2="47.531"
								y2="18.7684"
								gradientUnits="userSpaceOnUse">
					<stop offset="0.229167"
						  stop-color="white" />
					<stop offset="1"
						  stop-color="white"
						  stop-opacity="0" />
				</linearGradient>
				<linearGradient id="paint1_linear_0_753"
								x1="47"
								y1="20.5"
								x2="59.177"
								y2="16.2684"
								gradientUnits="userSpaceOnUse">
					<stop offset="0.486546"
						  stop-color="white" />
					<stop offset="0.573176"
						  stop-opacity="0" />
				</linearGradient>
			</defs>
		</svg>
		<svg xmlns="http://www.w3.org/2000/svg"
			 viewBox="0 0 20 20"
			 id='cross-icon'
			 class='cross-icon'>
			<circle cx="10"
					cy="10"
					r="10"
					fill="#E74836" />
			<path d="M7 7L13.5 13.5"
				  stroke="white"
				  stroke-width="2"
				  stroke-linecap="round" />
			<path d="M13.5 7L7 13.5"
				  stroke="white"
				  stroke-width="2"
				  stroke-linecap="round" />
		</svg>
		<svg xmlns="http://www.w3.org/2000/svg"
			 width="19"
			 height="18"
			 viewBox="0 0 19 18"
			 id='heart-icon'
			 class='heart-icon'>
			<path
				  d="M9.40308 14.4932L9.31108 14.5844L9.20988 14.4932C4.83988 10.5644 1.95108 7.96641 1.95108 5.33198C1.95108 3.50885 3.33108 2.14149 5.17108 2.14149C6.58788 2.14149 7.96788 3.05306 8.45548 4.2928H10.1667C10.6543 3.05306 12.0343 2.14149 13.4511 2.14149C15.2911 2.14149 16.6711 3.50885 16.6711 5.33198C16.6711 7.96641 13.7823 10.5644 9.40308 14.4932ZM13.4511 0.318359C11.8503 0.318359 10.3139 1.05673 9.31108 2.21442C8.30828 1.05673 6.77188 0.318359 5.17108 0.318359C2.33748 0.318359 0.111084 2.51524 0.111084 5.33198C0.111084 8.76859 3.23908 11.5853 7.97708 15.8424L9.31108 17.0456L10.6451 15.8424C15.3831 11.5853 18.5111 8.76859 18.5111 5.33198C18.5111 2.51524 16.2847 0.318359 13.4511 0.318359Z" />
		</svg>


		<svg xmlns="http://www.w3.org/2000/svg"
			 class="features-lightning-sign"
			 id="features-lightning-sign"
			 viewBox="0 0 11 16">
			<path
				  d="M10.2229 8.02638L6.45726 5.84513L8.35726 1.27951C8.77601 0.245133 7.57601 -0.364242 6.94476 0.238883L0.285389 6.54513C-0.133361 7.02951 -0.102111 7.56076 0.451014 7.96076L4.22289 10.1514L2.29789 14.767C1.94164 15.7076 3.03539 16.342 3.73226 15.7608L10.3948 9.45451C10.8041 8.98888 10.7416 8.38263 10.2229 8.02638Z" />
		</svg>

		<svg xmlns="http://www.w3.org/2000/svg"
			 class="features-fire-sign"
			 id="features-fire-sign"
			 viewBox="0 0 24 26">
			<path
				  d="M8.47217 21.9724C8.7066 22.0814 8.95389 21.8453 8.81036 21.6498C8.0313 20.5889 7.29358 18.8036 8.46895 16.5044C10.429 12.6703 11.6217 10.6845 11.6217 10.6845C11.6217 10.6845 12.2561 13.0019 13.9758 15.0624C15.6309 17.0455 16.5368 19.5396 15.0764 21.6174C14.9393 21.8124 15.181 22.0424 15.4139 21.9382C17.2217 21.129 19.2494 19.5058 19.4782 16.2758C19.5626 15.2888 19.4361 13.907 18.8035 12.1633C17.9901 9.95326 16.9902 8.92203 16.4116 8.47918C16.2386 8.34669 15.9694 8.46411 15.9836 8.66492C16.1522 11.0495 15.127 11.6546 14.5434 10.2909C14.3103 9.74621 14.1744 8.80409 14.1744 7.65678C14.1744 5.74671 13.5411 3.78046 12.1448 2.18268C11.7817 1.76717 11.3568 1.37891 10.8694 1.04782C10.6929 0.927929 10.4371 1.04844 10.4533 1.24341C10.5605 2.53827 10.4633 6.24927 6.74252 10.6827C3.36883 14.7953 4.67612 17.9537 5.14 18.8091C6.02691 20.4479 7.26401 21.4103 8.47217 21.9724Z" />
		</svg>

		<svg xmlns="http://www.w3.org/2000/svg"
			 class="features-discount-sign"
			 id="features-discount-sign"
			 viewBox="0 0 17 17">
			<path fill-rule="evenodd"
				  clip-rule="evenodd"
				  d="M9.77731 4.0375C8.90676 4.91074 8.90676 6.33516 9.77731 7.2084C10.2006 7.6334 10.7589 7.86582 11.3576 7.86582C11.9563 7.86582 12.5155 7.6334 12.9389 7.2084C13.3622 6.7834 13.5936 6.22227 13.5936 5.62129C13.5936 5.02031 13.3622 4.45918 12.9389 4.03418C12.0922 3.19082 10.6209 3.1875 9.77731 4.0375ZM10.6396 6.3418C11.0235 6.72695 11.6886 6.72695 12.0725 6.3418C12.2644 6.14922 12.3703 5.89355 12.3734 5.62461C12.3734 5.35234 12.2675 5.09668 12.0756 4.9041C11.8836 4.71152 11.6294 4.60527 11.3576 4.60527C11.0868 4.60527 10.8315 4.71152 10.6396 4.9041C10.2463 5.29922 10.2463 5.94668 10.6396 6.3418Z" />
			<path fill-rule="evenodd"
				  clip-rule="evenodd"
				  d="M16.9668 3.11777V7.48398C16.9969 8.96816 16.2664 10.0473 15.8296 10.5586L15.8026 10.5885L10.2691 16.1467C9.72439 16.6979 8.98666 17 8.19912 17C7.41158 17 6.67489 16.6945 6.12496 16.1434L0.886133 10.884C0.340356 10.3361 0.0363401 9.59902 0.0332273 8.80547C0.0301145 8.00859 0.327905 7.26484 0.876794 6.71367L6.55245 1.0127L6.58151 0.986133C7.009 0.617578 7.93765 0 9.35708 0H14.1228L14.1726 0.00332031C15.7435 0.152734 16.917 1.46426 16.9668 3.11777ZM14.2483 9.14414C14.489 8.85195 14.8667 8.27754 14.8501 7.51719L14.847 7.49063V3.16758C14.8263 2.61309 14.4859 2.19141 14.0097 2.125H9.35293C8.6484 2.125 8.20535 2.39395 7.99056 2.57324L2.37093 8.21777C2.07003 8.51992 2.07314 9.07441 2.38131 9.3832L7.62014 14.6426C7.76852 14.7953 7.97085 14.875 8.19497 14.875C8.42013 14.875 8.62246 14.7953 8.77084 14.6459L14.2483 9.14414Z" />
		</svg>

		<svg xmlns="http://www.w3.org/2000/svg"
			 class="features-fav-sign"
			 id="features-fav-sign"
			 viewBox="0 0 21 19">
			<path class="features-fav-sign"
				  d="M10.5807 15.9862L10.4768 16.0869L10.3624 15.9862C5.42493 11.6457 2.16098 8.77562 2.16098 5.86522C2.16098 3.8511 3.72019 2.34051 5.79914 2.34051C7.39993 2.34051 8.95914 3.34757 9.51007 4.71717H11.4435C11.9944 3.34757 13.5536 2.34051 15.1544 2.34051C17.2334 2.34051 18.7926 3.8511 18.7926 5.86522C18.7926 8.77562 15.5286 11.6457 10.5807 15.9862ZM15.1544 0.326385C13.3457 0.326385 11.6098 1.1421 10.4768 2.42107C9.34375 1.1421 7.60783 0.326385 5.79914 0.326385C2.59756 0.326385 0.0820312 2.7534 0.0820312 5.86522C0.0820312 9.66183 3.61625 12.7736 8.96954 17.4766L10.4768 18.8059L11.984 17.4766C17.3373 12.7736 20.8715 9.66183 20.8715 5.86522C20.8715 2.7534 18.356 0.326385 15.1544 0.326385Z"
				  fill="#0ACF83" />
		</svg>
		<svg viewBox="0 0 38 38"
			 fill="none"
			 id='command'
			 class='command'
			 xmlns="http://www.w3.org/2000/svg">
			<path d="M0 19C0 8.50659 8.50659 0 19 0C29.4934 0 38 8.50659 38 19C38 29.4934 29.4934 38 19 38H0V19Z"
				  fill="#9BEEB2" />
			<ellipse cx="15"
					 cy="16"
					 rx="3"
					 ry="3.5"
					 fill="white" />
			<path d="M20.6875 24.5C20.6875 26 19 25.5 15.625 25.5C12.25 25.5 10.5625 26 10.5625 24.5C10.5625 23 12.25 21 15.625 21C19 21 20.6875 23 20.6875 24.5Z"
				  fill="white" />
			<path fill-rule="evenodd"
				  clip-rule="evenodd"
				  d="M19.5 16C19.5 16.8726 19.2862 17.7367 18.8959 18.4948C19.4374 19.1165 20.1803 19.5 21 19.5C22.6569 19.5 24 17.933 24 16C24 14.067 22.6569 12.5 21 12.5C20.1803 12.5 19.4374 12.8835 18.8959 13.5052C19.2862 14.2633 19.5 15.1274 19.5 16ZM24.4 25.5476C26.425 25.6238 27.4375 25.6619 27.4375 24.5C27.4375 23 25.75 21 22.375 21C21.7154 21 21.1203 21.0764 20.5896 21.2105C21.6066 22.1135 22.1875 23.2847 22.1875 24.5C22.1875 24.8247 22.1395 25.1706 22.0124 25.5019C22.131 25.5007 22.2519 25.5 22.375 25.5C23.1357 25.5 23.8107 25.5254 24.4 25.5476H24.4ZM19 25.5792C20.125 25.5654 20.6875 25.366 20.6875 24.5C20.6875 23.634 20.125 22.6013 19 21.883C17.875 22.6013 17.3125 23.634 17.3125 24.5C17.3125 25.366 17.875 25.5654 19 25.5792Z"
				  fill="white" />
		</svg>
		<svg id='dog'
			 class='dog'
			 viewBox="0 0 38 38"
			 fill="none"
			 xmlns="http://www.w3.org/2000/svg">
			<path d="M0 19C0 8.50659 8.50659 0 19 0C29.4934 0 38 8.50659 38 19C38 29.4934 29.4934 38 19 38H0V19Z"
				  fill="#9BEEB2" />
			<path fill-rule="evenodd"
				  clip-rule="evenodd"
				  d="M18 29C23.5228 29 28 24.5228 28 19C28 13.4772 23.5228 9 18 9C12.4772 9 8 13.4772 8 19C8 24.5228 12.4772 29 18 29ZM24.4 19C24.4 22.5346 21.5346 25.4 18 25.4C14.4654 25.4 11.6 22.5346 11.6 19C11.6 15.4654 14.4654 12.6 18 12.6C21.5346 12.6 24.4 15.4654 24.4 19ZM26 19C26 23.4183 22.4183 27 18 27C13.5817 27 10 23.4183 10 19C10 14.5817 13.5817 11 18 11C22.4183 11 26 14.5817 26 19ZM18 22.6C19.9882 22.6 21.6 20.9882 21.6 19C21.6 17.0118 19.9882 15.4 18 15.4C16.0118 15.4 14.4 17.0118 14.4 19C14.4 20.9882 16.0118 22.6 18 22.6ZM18 24C20.7614 24 23 21.7614 23 19C23 16.2386 20.7614 14 18 14C15.2386 14 13 16.2386 13 19C13 21.7614 15.2386 24 18 24ZM20 19C20 20.1046 19.1046 21 18 21C16.8954 21 16 20.1046 16 19C16 17.8954 16.8954 17 18 17C19.1046 17 20 17.8954 20 19Z"
				  fill="white" />
		</svg>
		<svg id='service'
			 class='service'
			 viewBox="0 0 39 44"
			 fill="none"
			 xmlns="http://www.w3.org/2000/svg">
			<path fill-rule="evenodd"
				  clip-rule="evenodd"
				  d="M21.7207 38.8749C31.4445 37.7727 39 29.5187 39 19.5C39 8.73045 30.2696 0 19.5 0C8.73045 0 0 8.73045 0 19.5C0 29.1413 6.99697 37.1483 16.19 38.7202L19 43.5873L21.7207 38.8749Z"
				  fill="#36DD65" />
			<g clip-path="url(#clip0_1587_376)">
				<path d="M20.692 26.789L19 28.481L17.308 26.789C13.9825 26.021 11.5 23.039 11.5 19.481C11.5 15.341 14.86 11.981 19 11.981C23.14 11.981 26.5 15.341 26.5 19.481C26.5 23.039 24.0175 26.021 20.692 26.789ZM14.5172 22.043C15.6182 23.6855 17.2712 24.731 19.12 24.731C20.968 24.731 22.6217 23.6862 23.722 22.043C22.4738 20.8764 20.8285 20.2286 19.12 20.231C17.4113 20.2284 15.7656 20.8762 14.5172 22.043ZM19 18.731C19.5967 18.731 20.169 18.4939 20.591 18.0719C21.0129 17.65 21.25 17.0777 21.25 16.481C21.25 15.8842 21.0129 15.3119 20.591 14.89C20.169 14.468 19.5967 14.231 19 14.231C18.4033 14.231 17.831 14.468 17.409 14.89C16.9871 15.3119 16.75 15.8842 16.75 16.481C16.75 17.0777 16.9871 17.65 17.409 18.0719C17.831 18.4939 18.4033 18.731 19 18.731Z"
					  fill="white" />
			</g>
			<defs>
				<clipPath id="clip0_1587_376">
					<rect width="18"
						  height="18"
						  fill="white"
						  transform="translate(10 10.481)" />
				</clipPath>
			</defs>
		</svg>
		<svg class="like"
			 id='like'
			 viewBox="0 0 39 44"
			 fill="none"
			 xmlns="http://www.w3.org/2000/svg">
			<rect width="39"
				  height="44"
				  fill="#E5E5E5" />
			<g clip-path="url(#clip0_122_63)">
				<rect width="1920"
					  height="1633"
					  transform="translate(-950 -936)"
					  fill="white" />
				<rect x="-950"
					  y="-96"
					  width="1920"
					  height="273"
					  fill="#F2FDF0" />
				<path fill-rule="evenodd"
					  clip-rule="evenodd"
					  d="M21.7207 38.8749C31.4445 37.7727 39 29.5187 39 19.5C39 8.73045 30.2696 0 19.5 0C8.73045 0 0 8.73045 0 19.5C0 29.1413 6.99697 37.1483 16.19 38.7202L19 43.5873L21.7207 38.8749Z"
					  fill="#36DD65" />
				<g clip-path="url(#clip1_122_63)">
					<path d="M27.6322 19.4033C28.0217 18.9571 28.2166 18.4294 28.2166 17.8202C28.2166 17.2677 28.0145 16.7897 27.6115 16.3857C27.2078 15.9818 26.7297 15.7799 26.1773 15.7799H23.2343C23.2626 15.6808 23.2909 15.5958 23.3192 15.525C23.3472 15.4541 23.3866 15.3761 23.436 15.2911C23.4854 15.2061 23.5209 15.1423 23.5421 15.0999C23.6696 14.8592 23.7672 14.6607 23.8345 14.505C23.9018 14.349 23.9687 14.1366 24.0362 13.8674C24.1036 13.5984 24.1371 13.3291 24.1371 13.06C24.1371 12.89 24.1351 12.7518 24.1317 12.6456C24.1284 12.5394 24.1103 12.38 24.0787 12.1674C24.0467 11.955 24.0041 11.7779 23.9511 11.6363C23.8979 11.4947 23.8128 11.3352 23.6961 11.1582C23.5792 10.9809 23.4376 10.8377 23.271 10.7278C23.1044 10.618 22.892 10.526 22.6335 10.4517C22.3747 10.3773 22.0827 10.3401 21.7566 10.3401C21.5725 10.3401 21.4133 10.4074 21.2786 10.542C21.1369 10.6837 21.0163 10.8607 20.9172 11.0731C20.818 11.2857 20.7489 11.4698 20.7099 11.6257C20.671 11.7815 20.6266 11.9976 20.5773 12.2738C20.5133 12.5715 20.4657 12.7856 20.4336 12.9166C20.4018 13.0476 20.3396 13.2194 20.2476 13.4318C20.1555 13.6445 20.0458 13.8143 19.9183 13.9419C19.6846 14.1756 19.3269 14.6006 18.8451 15.2168C18.4979 15.6701 18.1403 16.0986 17.772 16.5024C17.4036 16.9062 17.1345 17.1152 16.9645 17.1293C16.7875 17.1435 16.6352 17.2161 16.5077 17.3472C16.3802 17.4782 16.3164 17.6323 16.3164 17.8094V24.6199C16.3164 24.8041 16.3837 24.9616 16.5183 25.0927C16.6528 25.2239 16.8122 25.2929 16.9963 25.3C17.2442 25.3071 17.8038 25.4628 18.6751 25.7676C19.2205 25.9515 19.6472 26.0916 19.9553 26.1871C20.2634 26.2826 20.694 26.3854 21.246 26.4953C21.7986 26.6051 22.3085 26.6601 22.7759 26.6601H22.9566H23.7641H24.1466C25.0889 26.646 25.7862 26.3696 26.2397 25.8314C26.6504 25.3426 26.8239 24.7016 26.7604 23.9082C27.0366 23.6462 27.228 23.3134 27.3341 22.9095C27.4543 22.4777 27.4543 22.0633 27.3341 21.6667C27.6598 21.2346 27.8122 20.7494 27.7908 20.2111C27.7917 19.9842 27.7387 19.7151 27.6322 19.4033Z"
						  fill="white" />
					<path d="M14.74 17.1401H11.6801C11.4958 17.1401 11.3365 17.2075 11.2019 17.3421C11.0673 17.4766 11 17.636 11 17.8202V24.6204C11 24.8043 11.0673 24.9638 11.2019 25.0985C11.3366 25.2329 11.496 25.3002 11.6802 25.3002H14.74C14.9242 25.3002 15.0835 25.2329 15.2181 25.0985C15.3527 24.9638 15.42 24.8043 15.42 24.6204V17.8202C15.42 17.636 15.3527 17.4766 15.2181 17.3421C15.0835 17.2074 14.9242 17.1401 14.74 17.1401ZM13.5181 23.7436C13.3835 23.8746 13.2242 23.9401 13.04 23.9401C12.8487 23.9401 12.6876 23.8746 12.5566 23.7436C12.4256 23.6126 12.3601 23.4515 12.3601 23.2602C12.3601 23.076 12.4255 22.9166 12.5566 22.7821C12.6876 22.6475 12.8487 22.5801 13.04 22.5801C13.2242 22.5801 13.3835 22.6475 13.5181 22.7821C13.6527 22.9166 13.72 23.076 13.72 23.2602C13.72 23.4515 13.6529 23.6125 13.5181 23.7436Z"
						  fill="white" />
				</g>
			</g>
			<defs>
				<clipPath id="clip0_122_63">
					<rect width="1920"
						  height="1633"
						  fill="white"
						  transform="translate(-950 -936)" />
				</clipPath>
				<clipPath id="clip1_122_63">
					<rect width="17"
						  height="17"
						  fill="white"
						  transform="translate(11 10)" />
				</clipPath>
			</defs>
		</svg>
		<svg viewBox="0 0 39 44"
			 fill="none"
			 xmlns="http://www.w3.org/2000/svg"
			 class="discont"
			 id='discont'>
			<path fill-rule="evenodd"
				  clip-rule="evenodd"
				  d="M21.7207 38.8749C31.4445 37.7727 39 29.5187 39 19.5C39 8.73045 30.2696 0 19.5 0C8.73045 0 0 8.73045 0 19.5C0 29.1413 6.99697 37.1483 16.19 38.7202L19 43.5873L21.7207 38.8749Z"
				  fill="#36DD65" />
			<path fill-rule="evenodd"
				  clip-rule="evenodd"
				  d="M12 14V17.7977C12 18.5934 12.3161 19.3564 12.8787 19.9191L19.7058 26.7462C20.8774 27.9178 22.7769 27.9178 23.9484 26.7462L27.7462 22.9484C28.9178 21.7769 28.9178 19.8774 27.7462 18.7058L20.9191 11.8787C20.3564 11.3161 19.5934 11 18.7977 11H15C13.3431 11 12 12.3431 12 14ZM17.3603 18.147C18.347 18.147 19.147 17.347 19.147 16.3603C19.147 15.3735 18.347 14.5735 17.3603 14.5735C16.3735 14.5735 15.5735 15.3735 15.5735 16.3603C15.5735 17.347 16.3735 18.147 17.3603 18.147Z"
				  fill="white" />
		</svg>
		<svg xmlns="http://www.w3.org/2000/svg"
			 id='delivery-icon'
			 class='delivery-icon'
			 viewBox="0 0 72 72"
			 fill="none">
			<circle cx="36"
					cy="36"
					r="36"
					fill="#A7E0A3" />
			<path fill-rule="evenodd"
				  clip-rule="evenodd"
				  d="M26.9886 25H22.0001C20.8008 25 20 25.9169 20 27.2921V45.6001C20 46.9753 20.8008 47.8922 22.0001 47.8922H26.9945C27.5941 47.8922 28.1937 47.6629 28.5941 46.9753L34.9812 37.8213C35.5827 36.9045 35.5827 35.7584 34.9812 35.078L28.5883 25.9169C28.1879 25.2292 27.5882 25 26.9886 25ZM26.9886 27.2921L33.3756 36.4461L26.9886 45.6001H22.0001V27.2921H26.9886Z"
				  fill="white" />
			<path d="M36.1746 47.885H43.5636C44.1632 47.885 44.7629 47.6558 45.1633 46.9682L51.5503 37.8214C52.1499 37.1409 52.1499 35.9948 51.5503 35.0781L45.1633 25.9241C44.7629 25.2364 44.1632 25.0072 43.5636 25.0072H36.1746C34.5749 25.0072 33.5748 27.2921 34.5749 28.6674L39.9697 36.4461L34.5749 44.2249C33.5807 45.593 34.5749 47.885 36.1746 47.885Z"
				  fill="white" />
		</svg>
		<svg class='payment-icon'
			 id='payment-icon'
			 viewBox="0 0 72 72"
			 fill="none"
			 xmlns="http://www.w3.org/2000/svg">
			<circle cx="36"
					cy="36"
					r="36"
					fill="#A7E0A3" />
			<path fill-rule="evenodd"
				  clip-rule="evenodd"
				  d="M50.0767 28.0194H22.0051V43.7719H50.0767V28.0194ZM22.0051 26.0503C20.8977 26.0503 20 26.9319 20 28.0194V43.7719C20 44.8594 20.8977 45.7409 22.0051 45.7409H50.0767C51.184 45.7409 52.0818 44.8594 52.0818 43.7719V28.0194C52.0818 26.9319 51.184 26.0503 50.0767 26.0503H22.0051Z"
				  fill="white" />
			<path d="M46.0664 28.0194C46.0664 30.1943 47.8619 31.9575 50.0767 31.9575V28.0194H46.0664Z"
				  fill="white" />
			<path d="M26.0153 28.0194C26.0153 30.1943 24.2199 31.9575 22.0051 31.9575V28.0194H26.0153Z"
				  fill="white" />
			<path d="M46.0664 43.7719C46.0664 41.5969 47.8619 39.8337 50.0767 39.8337V43.7719H46.0664Z"
				  fill="white" />
			<path d="M26.0153 43.7719C26.0153 41.5969 24.2199 39.8337 22.0051 39.8337V43.7719H26.0153Z"
				  fill="white" />
			<path d="M40.0511 35.8956C40.0511 38.0706 38.2557 39.8337 36.0409 39.8337C33.8261 39.8337 32.0307 38.0706 32.0307 35.8956C32.0307 33.7206 33.8261 31.9575 36.0409 31.9575C38.2557 31.9575 40.0511 33.7206 40.0511 35.8956Z"
				  fill="white" />
		</svg>
		<svg xmlns="http://www.w3.org/2000/svg"
			 class="point-icon"
			 id='point-icon'
			 viewBox="0 0 29 29"
			 fill="none">
			<path d="M14.0865 14.0859C12.9472 14.0859 12.0151 13.1911 12.0151 12.0974C12.0151 11.0036 12.9472 10.1088 14.0865 10.1088C15.2258 10.1088 16.1579 11.0036 16.1579 12.0974C16.1579 13.1911 15.2258 14.0859 14.0865 14.0859ZM20.3008 12.2962C20.3008 8.68695 17.5561 6.13164 14.0865 6.13164C10.6169 6.13164 7.87221 8.68695 7.87221 12.2962C7.87221 14.6228 9.89185 17.7051 14.0865 21.384C18.2811 17.7051 20.3008 14.6228 20.3008 12.2962ZM14.0865 4.14307C18.4365 4.14307 22.3722 7.34467 22.3722 12.2962C22.3722 15.5972 19.6069 19.5048 14.0865 24.0288C8.56614 19.5048 5.80078 15.5972 5.80078 12.2962C5.80078 7.34467 9.7365 4.14307 14.0865 4.14307Z"
				  fill="black" />
		</svg>
		<svg xmlns="http://www.w3.org/2000/svg"
			 id='phone-icon'
			 class='phone-icon'
			 viewBox="0 0 29 29"
			 fill="none">
			<path d="M16.3339 17.9497L17.5395 16.7437C17.7018 16.5833 17.9073 16.4734 18.1308 16.4276C18.3544 16.3817 18.5864 16.4017 18.7988 16.4853L20.2681 17.0721C20.4827 17.1593 20.6667 17.308 20.797 17.4997C20.9272 17.6913 20.9979 17.9172 21 18.1489V20.8409C20.9988 20.9986 20.9656 21.1543 20.9026 21.2988C20.8396 21.4433 20.748 21.5735 20.6334 21.6817C20.5188 21.7898 20.3834 21.8737 20.2355 21.9281C20.0877 21.9825 19.9303 22.0065 19.7729 21.9985C9.47744 21.3578 7.40004 12.6357 7.00717 9.29757C6.98893 9.13365 7.00559 8.96772 7.05606 8.8107C7.10653 8.65368 7.18966 8.50913 7.29998 8.38656C7.4103 8.26399 7.54531 8.16618 7.69613 8.09955C7.84695 8.03293 8.01016 7.99901 8.17503 8.00002H10.7745C11.0064 8.00071 11.2329 8.0708 11.4247 8.20129C11.6165 8.33178 11.7649 8.51669 11.8508 8.73225L12.4375 10.2021C12.5237 10.4137 12.5457 10.6461 12.5007 10.8701C12.4557 11.0942 12.3458 11.3001 12.1845 11.462L10.979 12.668C10.979 12.668 11.6732 17.3682 16.3339 17.9497Z"
				  fill="black" />
		</svg>

		<svg xmlns="http://www.w3.org/2000/svg"
			 id='clock-icon'
			 class='clock-icon'
			 viewBox="0 0 19 19"
			 fill="none">
			<path d="M9.5 17.85C4.89707 17.85 1.15 14.1029 1.15 9.5C1.15 4.89707 4.89707 1.15 9.5 1.15C14.1029 1.15 17.85 4.89707 17.85 9.5C17.85 14.1029 14.1029 17.85 9.5 17.85Z"
				  stroke="black"
				  stroke-width="2.3" />
			<path d="M9 6V10H14"
				  stroke="black"
				  stroke-width="2.3"
				  stroke-linecap="round" />
		</svg>
		<svg xmlns="http://www.w3.org/2000/svg"
			 id='mail-icon'
			 class='mail-icon'
			 viewBox="0 0 20 16"
			 fill="none">
			<path d="M18 16H2C0.89543 16 0 15.1046 0 14V1.913C0.0466084 0.842548 0.928533 -0.00101238 2 9.11911e-07H18C19.1046 9.11911e-07 20 0.895432 20 2V14C20 15.1046 19.1046 16 18 16ZM2 3.868V14H18V3.868L10 9.2L2 3.868ZM2.8 2L10 6.8L17.2 2H2.8Z"
				  fill="#2E3A59" />
		</svg>

	</defs>
</svg>