<svg width="23" height="20" viewBox="0 0 23 20" fill="none" xmlns="http://www.w3.org/2000/svg">
<path d="M21.882 20H1.12023C0.720006 20 0.350188 19.7882 0.150079 19.4444C-0.0500289 19.1006 -0.0500263 18.677 0.150086 18.3333L10.5304 0.554574C10.7307 0.211347 11.1002 0 11.5 0C11.8998 0 12.2693 0.211347 12.4696 0.554574L22.8499 18.3333C23.0499 18.6769 23.05 19.1002 22.8502 19.4439C22.6504 19.7876 22.2809 19.9996 21.8809 20H21.882ZM10.3814 14.4442V16.6665H11.4266H11.4994H11.5723H12.6197V14.4442H10.3814ZM10.3814 6.66599V12.2218H12.6219V6.66599H10.3814Z" fill="#5C5C5C"/>
</svg>
