<svg width="61" height="38" viewBox="0 0 61 38" fill="none" xmlns="http://www.w3.org/2000/svg">
<path fill-rule="evenodd" clip-rule="evenodd" d="M61 34C61 36.2091 59.2091 38 57 38L4 38C1.79086 38 -1.16467e-07 36.2091 -2.60136e-07 34C-4.03805e-07 31.7909 1.79086 30 4 30L57 30C59.2091 30 61 31.7909 61 34Z" fill="#36DD65"/>
<path fill-rule="evenodd" clip-rule="evenodd" d="M61 4C61 6.20914 59.2091 8 57 8L4 8C1.79086 8 -1.16467e-07 6.20914 -2.60136e-07 4C-4.03805e-07 1.79086 1.79086 1.85473e-06 4 1.78983e-06L57 2.32701e-07C59.2091 1.67797e-07 61 1.79086 61 4Z" fill="#36DD65"/>
</svg>
