<svg width="55" height="59" viewBox="0 0 55 59" fill="none" xmlns="http://www.w3.org/2000/svg">
<path fill-rule="evenodd" clip-rule="evenodd" d="M24.8462 58.6922C23.7416 58.6922 22.8462 57.7968 22.8462 56.6922V2.30762C22.8462 1.20305 23.7416 0.307617 24.8462 0.307617H28.4616C29.5661 0.307617 30.4616 1.20305 30.4616 2.30762V56.6922C30.4616 57.7968 29.5661 58.6922 28.4616 58.6922H24.8462Z" fill="#36DD65"/>
<path fill-rule="evenodd" clip-rule="evenodd" d="M55 32.1538C55 33.2584 54.1046 34.1538 53 34.1538L2 34.1538C0.895431 34.1538 -3.91405e-08 33.2584 -8.74228e-08 32.1538L-2.0847e-07 29.3846C-2.56752e-07 28.28 0.895432 27.3846 2 27.3846L53 27.3846C54.1046 27.3846 55 28.28 55 29.3846L55 32.1538Z" fill="#36DD65"/>
</svg>
