<svg width="18" height="19" viewBox="0 0 18 19" fill="none" xmlns="http://www.w3.org/2000/svg">
<path fill-rule="evenodd" clip-rule="evenodd" d="M10.7659 1.58953C10.5986 1.56421 10.4305 1.61643 10.2968 1.72877C10.1594 1.84269 10.0735 2.00724 10.0548 2.19157C10.0153 2.56419 10.27 2.90121 10.6225 2.94314C13.0537 3.22953 14.9435 5.2287 15.2168 7.80301C15.2534 8.14794 15.5276 8.40822 15.8547 8.40822C15.8794 8.40822 15.9033 8.40664 15.9279 8.40347C16.099 8.3837 16.2513 8.2943 16.3589 8.1519C16.4657 8.0095 16.5143 7.83228 16.4948 7.65112C16.1542 4.43916 13.7992 1.94633 10.7659 1.58953ZM10.8117 4.34525C10.4547 4.27563 10.1268 4.51613 10.0588 4.884C9.99087 5.25187 10.2194 5.61104 10.5668 5.68304C11.6124 5.89822 12.4199 6.75263 12.6245 7.86021V7.861C12.6828 8.17982 12.9487 8.41162 13.2549 8.41162C13.296 8.41162 13.3371 8.40766 13.3789 8.39975C13.7262 8.32618 13.9548 7.9678 13.8868 7.59914C13.5813 5.9449 12.3751 4.66723 10.8117 4.34525ZM12.0001 11.9465C12.3387 11.7404 12.7211 11.5076 13.2035 11.6159C13.6405 11.7133 15.1298 12.9893 15.5377 13.4316C15.8051 13.7211 15.9537 14.0202 15.9768 14.3192C16.0172 15.4925 14.5069 16.8318 14.232 16.9988C13.8668 17.2764 13.4418 17.4165 12.9645 17.4165C12.4767 17.4165 11.933 17.2701 11.3399 16.9782C8.12217 15.5605 3.20665 10.4744 1.907 7.10417C1.36771 5.84945 1.36398 4.81466 1.89803 4.03699C2.11091 3.67228 3.32466 2.14778 4.41144 2.19604C4.7005 2.22215 4.98134 2.37879 5.25696 2.6636C5.67374 3.09476 6.85239 4.67147 6.94352 5.13427C7.04435 5.6485 6.82326 6.05752 6.62682 6.41669C6.58492 6.4939 6.52847 6.58552 6.46662 6.6859C6.2319 7.06688 5.91948 7.57395 6.03003 7.89767C6.82252 9.95143 8.65323 11.7433 10.5997 12.5851C10.9007 12.7006 11.3809 12.3684 11.7406 12.1196C11.8343 12.0547 11.9199 11.9955 11.992 11.9514L12.0001 11.9465Z" fill="white"/>
</svg>
