<svg width="39" height="44" viewBox="0 0 39 44" fill="none" xmlns="http://www.w3.org/2000/svg">
<path fill-rule="evenodd" clip-rule="evenodd" d="M21.7207 38.8749C31.4445 37.7727 39 29.5187 39 19.5C39 8.73045 30.2696 0 19.5 0C8.73045 0 0 8.73045 0 19.5C0 29.1413 6.99697 37.1483 16.19 38.7202L19 43.5873L21.7207 38.8749Z" fill="#36DD65"/>
<g clip-path="url(#clip0_0_11829)">
<path d="M20.692 26.789L19 28.481L17.308 26.789C13.9825 26.021 11.5 23.039 11.5 19.481C11.5 15.341 14.86 11.981 19 11.981C23.14 11.981 26.5 15.341 26.5 19.481C26.5 23.039 24.0175 26.021 20.692 26.789ZM14.5172 22.043C15.6182 23.6855 17.2712 24.731 19.12 24.731C20.968 24.731 22.6217 23.6862 23.722 22.043C22.4738 20.8764 20.8285 20.2286 19.12 20.231C17.4113 20.2284 15.7656 20.8762 14.5172 22.043ZM19 18.731C19.5967 18.731 20.169 18.4939 20.591 18.0719C21.0129 17.65 21.25 17.0777 21.25 16.481C21.25 15.8842 21.0129 15.3119 20.591 14.89C20.169 14.468 19.5967 14.231 19 14.231C18.4033 14.231 17.831 14.468 17.409 14.89C16.9871 15.3119 16.75 15.8842 16.75 16.481C16.75 17.0777 16.9871 17.65 17.409 18.0719C17.831 18.4939 18.4033 18.731 19 18.731Z" fill="white"/>
</g>
<defs>
<clipPath id="clip0_0_11829">
<rect width="18" height="18" fill="white" transform="translate(10 10.481)"/>
</clipPath>
</defs>
</svg>
