<svg width="38" height="38" viewBox="0 0 38 38" fill="none" xmlns="http://www.w3.org/2000/svg">
<path d="M0 19C0 8.50659 8.50659 0 19 0C29.4934 0 38 8.50659 38 19C38 29.4934 29.4934 38 19 38H0V19Z" fill="#9BEEB2"/>
<path fill-rule="evenodd" clip-rule="evenodd" d="M18 29C23.5228 29 28 24.5228 28 19C28 13.4772 23.5228 9 18 9C12.4772 9 8 13.4772 8 19C8 24.5228 12.4772 29 18 29ZM24.4 19C24.4 22.5346 21.5346 25.4 18 25.4C14.4654 25.4 11.6 22.5346 11.6 19C11.6 15.4654 14.4654 12.6 18 12.6C21.5346 12.6 24.4 15.4654 24.4 19ZM26 19C26 23.4183 22.4183 27 18 27C13.5817 27 10 23.4183 10 19C10 14.5817 13.5817 11 18 11C22.4183 11 26 14.5817 26 19ZM18 22.6C19.9882 22.6 21.6 20.9882 21.6 19C21.6 17.0118 19.9882 15.4 18 15.4C16.0118 15.4 14.4 17.0118 14.4 19C14.4 20.9882 16.0118 22.6 18 22.6ZM18 24C20.7614 24 23 21.7614 23 19C23 16.2386 20.7614 14 18 14C15.2386 14 13 16.2386 13 19C13 21.7614 15.2386 24 18 24ZM20 19C20 20.1046 19.1046 21 18 21C16.8954 21 16 20.1046 16 19C16 17.8954 16.8954 17 18 17C19.1046 17 20 17.8954 20 19Z" fill="white"/>
</svg>
