<svg width="127" height="96" viewBox="0 0 127 96" fill="none" xmlns="http://www.w3.org/2000/svg">
<path fill-rule="evenodd" clip-rule="evenodd" d="M107.441 0.139264L26.4474 13.722C23.7126 14.1806 21.2911 15.7542 19.7611 18.0669L1.66023 45.4287C-1.13251 49.6503 -0.330419 55.2929 3.52811 58.569L9.78216 63.8791C9.54235 64.6336 9.32133 65.4035 9.12047 66.1876C5.55872 80.0894 9.68134 93.1552 18.3286 95.3706C26.2684 97.4048 35.2622 89.5842 39.4377 77.5295L118.501 64.5073C123.986 63.6038 127.682 58.3998 126.727 52.923L118.946 8.28432C118.002 2.8682 112.863 -0.770027 107.441 0.139264ZM26.8841 72.1629L21.6117 68.2965C20.221 67.2766 18.2779 68.3773 18.4376 70.0946L20.0219 87.1254C20.1737 88.7576 22.0744 89.4754 23.1567 88.2442C28.3451 82.3419 34.9832 71.3442 34.1269 58.5034C34.0617 57.5249 34.669 56.6167 35.5435 56.173C39.8116 54.0071 45.5177 47.8079 37.6766 41.5813C37.5723 41.4985 37.455 41.4236 37.3344 41.3673C32.8711 39.284 25.703 40.6162 25.703 48.5405C25.703 49.8719 26.294 52.5822 28.4751 54.2447C29.2114 54.806 29.7259 55.6804 29.5686 56.5927L26.8841 72.1629Z" fill="url(#paint0_linear_642_152)"/>
<path d="M59.2938 43.9461L50.5864 45.2448L50.0224 41.4634L58.7298 40.1647L59.2938 43.9461ZM74.9283 48.9751L70.0313 49.7055L67.7062 34.1162L63.1057 36.2389L62.5526 32.53L71.3329 27.9473L71.7821 27.8803L74.9283 48.9751ZM94.6505 37.2213C95.0754 40.0707 94.7609 42.3638 93.7067 44.1008C92.6623 45.8364 90.9762 46.8778 88.6484 47.225C86.3013 47.575 84.3695 47.0683 82.8529 45.7049C81.3364 44.3414 80.3671 42.2446 79.945 39.4146L79.3702 35.5608C78.9452 32.7114 79.2549 30.419 80.2994 28.6834C81.3535 26.9464 83.0493 25.9036 85.3867 25.555C87.7242 25.2063 89.6511 25.7138 91.1677 27.0772C92.6842 28.4407 93.6543 30.5423 94.0778 33.3819L94.6505 37.2213ZM89.1002 33.4727C88.8741 31.9563 88.5075 30.8557 88.0006 30.1711C87.4922 29.4767 86.8082 29.1937 85.9486 29.3219C85.1082 29.4472 84.5468 29.8864 84.2641 30.6395C83.9912 31.3911 83.9454 32.4741 84.1267 33.8887L84.9306 39.2783C85.1654 40.8526 85.5355 41.9773 86.041 42.6523C86.5451 43.3177 87.2269 43.5862 88.0866 43.458C88.9172 43.3341 89.478 42.8901 89.7688 42.126C90.0582 41.3521 90.0947 40.2063 89.8782 38.6884L89.1002 33.4727ZM95.9449 28.4234C95.7504 27.1194 96.0184 26.0032 96.7488 25.0748C97.4792 24.1463 98.5591 23.5755 99.9886 23.3623C101.437 23.1462 102.642 23.3763 103.602 24.0527C104.56 24.7194 105.141 25.7337 105.344 27.0956L105.5 28.1387C105.694 29.4426 105.43 30.5533 104.708 31.4706C103.986 32.388 102.91 32.9533 101.481 33.1665C100.061 33.3782 98.8578 33.1578 97.8718 32.5051C96.8941 31.8413 96.3029 30.8236 96.0983 29.452L95.9449 28.4234ZM99.2552 29.07C99.3301 29.5723 99.5314 29.9619 99.8591 30.2389C100.185 30.5062 100.595 30.6031 101.087 30.5296C102.101 30.3784 102.512 29.6556 102.319 28.3613L102.189 27.492C102.114 26.9898 101.918 26.5994 101.6 26.321C101.281 26.033 100.875 25.9257 100.382 25.9991C99.9086 26.0697 99.5557 26.2853 99.3232 26.6458C99.0892 26.9967 99.0125 27.4425 99.0932 27.9834L99.2552 29.07ZM107.74 38.7938C107.545 37.4803 107.813 36.3641 108.544 35.4453C109.286 34.525 110.367 33.959 111.786 33.7473C113.226 33.5326 114.428 33.7531 115.395 34.4087C116.362 35.0643 116.95 36.0923 117.158 37.4928L117.31 38.507C117.506 39.8206 117.242 40.9361 116.52 41.8534C115.798 42.7708 114.717 43.3368 113.278 43.5514C111.858 43.7632 110.656 43.5427 109.67 42.89C108.692 42.2262 108.101 41.2085 107.896 39.837L107.74 38.7938ZM111.036 39.4427C111.104 39.8967 111.318 40.2744 111.679 40.5761C112.039 40.868 112.441 40.9809 112.885 40.9146C113.822 40.7749 114.263 40.2549 114.207 39.3548L113.999 37.8603C113.923 37.3484 113.722 36.9588 113.396 36.6915C113.068 36.4146 112.663 36.3121 112.18 36.3841C111.716 36.4533 111.367 36.6584 111.131 36.9996C110.894 37.3312 110.804 37.7495 110.859 38.2547L111.036 39.4427ZM103.901 43.0395L101.456 42.2342L109.298 24.2103L111.743 25.0156L103.901 43.0395Z" fill="url(#paint1_linear_642_152)"/>
<defs>
<linearGradient id="paint0_linear_642_152" x1="110.139" y1="-78.0142" x2="-20.404" y2="116.964" gradientUnits="userSpaceOnUse">
<stop stop-color="white"/>
<stop offset="1" stop-color="white" stop-opacity="0"/>
</linearGradient>
<linearGradient id="paint1_linear_642_152" x1="79.1116" y1="10.9419" x2="177.526" y2="145.864" gradientUnits="userSpaceOnUse">
<stop stop-color="#030303"/>
<stop offset="1" stop-color="white" stop-opacity="0"/>
</linearGradient>
</defs>
</svg>
