<svg width="28" height="28" viewBox="0 0 28 28" fill="none" xmlns="http://www.w3.org/2000/svg">
<path d="M25.7688 6.43672L15.3289 18.6375C15.0062 19.0094 14.5305 19.25 14 19.25C13.5188 19.25 13.0812 19.0531 12.7641 18.7359L7.51406 13.4805C5.92266 11.9 8.39453 9.42266 9.98594 11.0031L13.9016 14.9242L23.1711 4.09063C23.2914 3.95391 23.4281 3.87734 23.5594 3.78984C21.0547 1.44922 17.7023 0 14 0C6.26719 0 0 6.26719 0 14C0 21.7328 6.26719 28 14 28C21.7328 28 28 21.7328 28 14C28 11.2109 27.1742 8.61875 25.7688 6.43672Z" fill="#36DD65"/>
</svg>
