<svg width="30" height="30" viewBox="0 0 30 30" fill="none" xmlns="http://www.w3.org/2000/svg">
<path fill-rule="evenodd" clip-rule="evenodd" d="M6.55151 5.625H1.875C0.750732 5.625 0 6.37596 0 7.50235V22.4977C0 23.624 0.750732 24.375 1.875 24.375H6.55701C7.11914 24.375 7.68127 24.1873 8.05664 23.624L14.0442 16.1264C14.6082 15.3755 14.6082 14.4368 14.0442 13.8795L8.05115 6.37596C7.67578 5.81274 7.11365 5.625 6.55151 5.625ZM6.55151 7.50235L12.5391 15L6.55151 22.4977H1.875V7.50235H6.55151Z" fill="#36DD65"/>
<path d="M15.163 24.3692H22.0898C22.652 24.3692 23.2141 24.1814 23.5895 23.6182L29.577 16.1264C30.1392 15.5691 30.1392 14.6304 29.577 13.8795L23.5895 6.38186C23.2141 5.81863 22.652 5.63089 22.0898 5.63089H15.163C13.6633 5.63089 12.7258 7.50235 13.6633 8.62879L18.7207 15L13.6633 21.3713C12.7313 22.4918 13.6633 24.3692 15.163 24.3692Z" fill="#36DD65"/>
</svg>
