<svg width="19" height="13" viewBox="0 0 19 13" fill="none" xmlns="http://www.w3.org/2000/svg">
<g clip-path="url(#clip0_0_378)">
<g opacity="0.8">
<path d="M2.74595 3.42116H3.58673C3.70431 3.42116 3.79987 3.31753 3.79987 3.19096V2.28293C3.79987 2.15636 3.70431 2.05273 3.58673 2.05273H2.74595C2.62876 2.05273 2.5332 2.15636 2.5332 2.28293V3.19096C2.5332 3.31753 2.62876 3.42116 2.74595 3.42116Z" fill="white"/>
<path d="M5.27962 3.42116H6.11986C6.23748 3.42116 6.33307 3.31753 6.33307 3.19096V2.28293C6.33307 2.15636 6.23748 2.05273 6.11986 2.05273H5.27962C5.162 2.05273 5.06641 2.15636 5.06641 2.28293V3.19096C5.06641 3.31753 5.162 3.42116 5.27962 3.42116Z" fill="white"/>
<path d="M7.81275 3.42116H8.65313C8.77072 3.42116 8.86628 3.31753 8.86628 3.19096V2.28293C8.86628 2.15636 8.77072 2.05273 8.65313 2.05273H7.81275C7.69517 2.05273 7.59961 2.15636 7.59961 2.28293V3.19096C7.59961 3.31753 7.69517 3.42116 7.81275 3.42116Z" fill="white"/>
<path d="M10.346 3.42116H11.1863C11.3039 3.42116 11.3995 3.31753 11.3995 3.19096V2.28293C11.3995 2.15636 11.3039 2.05273 11.1863 2.05273H10.346C10.2284 2.05273 10.1328 2.15636 10.1328 2.28293V3.19096C10.1328 3.31753 10.2288 3.42116 10.346 3.42116Z" fill="white"/>
<path d="M12.8797 3.42116H13.7198C13.8375 3.42116 13.9327 3.31753 13.9327 3.19096V2.28293C13.9327 2.15636 13.8375 2.05273 13.7198 2.05273H12.8797C12.7616 2.05273 12.666 2.15636 12.666 2.28293V3.19096C12.666 3.31753 12.7616 3.42116 12.8797 3.42116Z" fill="white"/>
<path d="M16.2528 2.05273H15.4123C15.2947 2.05273 15.1992 2.15636 15.1992 2.28293V3.19096C15.1992 3.31753 15.2947 3.42116 15.4123 3.42116H16.2528C16.37 3.42116 16.4659 3.31753 16.4659 3.19096V2.28293C16.4659 2.15594 16.37 2.05273 16.2528 2.05273Z" fill="white"/>
<path d="M3.58673 7.52637H2.74595C2.62876 7.52637 2.5332 7.63003 2.5332 7.75663V8.6641C2.5332 8.79113 2.62876 8.89479 2.74595 8.89479H3.58673C3.70431 8.89479 3.79987 8.79113 3.79987 8.6641V7.75663C3.79987 7.63003 3.70431 7.52637 3.58673 7.52637Z" fill="white"/>
<path d="M14.2078 7.52637H4.79271C4.5946 7.52637 4.43359 7.63003 4.43359 7.75663V8.6641C4.43359 8.79113 4.5946 8.89479 4.79271 8.89479H14.2085C14.4066 8.89479 14.5669 8.79113 14.5669 8.6641V7.75663C14.5676 7.63003 14.4053 7.52637 14.2078 7.52637Z" fill="white"/>
<path d="M16.2528 7.52637H15.4123C15.2947 7.52637 15.1992 7.63003 15.1992 7.75663V8.6641C15.1992 8.79113 15.2947 8.89479 15.4123 8.89479H16.2528C16.37 8.89479 16.4659 8.79113 16.4659 8.6641V7.75663C16.4659 7.63003 16.37 7.52637 16.2528 7.52637Z" fill="white"/>
<path d="M6.54706 4.78955C6.42991 4.78955 6.33398 4.89318 6.33398 5.02017V5.92778C6.33398 6.05434 6.42991 6.15797 6.54706 6.15797H7.38757C7.50473 6.15797 7.60065 6.05434 7.60065 5.92778V5.02017C7.60065 4.89318 7.50473 4.78955 7.38757 4.78955H6.54706Z" fill="white"/>
<path d="M2.79471 6.15797H4.80455C4.94908 6.15797 5.06654 6.05431 5.06654 5.92728V5.01939C5.06654 4.89279 4.94908 4.78955 4.80455 4.78955H2.79471C2.65066 4.78955 2.5332 4.89279 2.5332 5.01939V5.92728C2.5332 6.05431 2.65066 6.15797 2.79471 6.15797Z" fill="white"/>
<path d="M16.205 4.78955H14.196C14.051 4.78955 13.9336 4.89318 13.9336 5.02017V5.92778C13.9336 6.05434 14.051 6.15797 14.196 6.15797H16.205C16.349 6.15797 16.4669 6.05434 16.4669 5.92778V5.02017C16.4669 4.89318 16.349 4.78955 16.205 4.78955Z" fill="white"/>
<path d="M8.86719 5.02017V5.92778C8.86719 6.05434 8.96317 6.15797 9.0804 6.15797H9.92104C10.0383 6.15797 10.1339 6.05434 10.1339 5.92778V5.02017C10.1339 4.89318 10.0383 4.78955 9.92104 4.78955H9.0804C8.96317 4.78955 8.86719 4.89318 8.86719 5.02017Z" fill="white"/>
<path d="M11.6135 4.78955C11.4963 4.78955 11.4004 4.89318 11.4004 5.02017V5.92778C11.4004 6.05434 11.4963 6.15797 11.6135 6.15797H12.4544C12.5719 6.15797 12.6671 6.05434 12.6671 5.92778V5.02017C12.6671 4.89318 12.5719 4.78955 12.4544 4.78955H11.6135Z" fill="white"/>
</g>
<path d="M17.5801 -0.151793H9.88127C9.8211 -1.32179 9.48797 -1.97179 9.16243 -2.59716C8.83183 -3.23074 8.5196 -3.83011 8.5196 -5.05006C8.5196 -5.25532 8.36633 -5.4209 8.17633 -5.4209C7.98633 -5.4209 7.8337 -5.25532 7.8337 -5.05006C7.8337 -3.63579 8.20547 -2.92216 8.56457 -2.23385C8.8597 -1.668 9.1371 -1.12816 9.19473 -0.151793H1.51937C0.681467 -0.151793 0 0.584418 0 1.49031V9.36147C0 10.2653 0.681467 11.0015 1.51937 11.0015H17.5801C18.4173 11.0015 19.0988 10.2653 19.0988 9.36147V1.491C19.0994 0.584417 18.418 -0.151793 17.5801 -0.151793ZM18.4135 9.36147C18.4135 9.85821 18.0386 10.2605 17.5801 10.2605H1.51937C1.05957 10.2605 0.6859 9.85684 0.6859 9.36147V1.491C0.6859 0.993576 1.0602 0.589892 1.51937 0.589892H17.5801C18.0392 0.589892 18.4129 0.99426 18.4129 1.491L18.4135 9.36147Z" fill="white"/>
</g>
<defs>
<clipPath id="clip0_0_378">
<rect width="19" height="13" fill="white"/>
</clipPath>
</defs>
</svg>
