<svg width="16" height="20" viewBox="0 0 16 20" fill="none" xmlns="http://www.w3.org/2000/svg">
<path d="M7.99996 20C6.55646 18.8032 5.21847 17.4911 3.99998 16.0775C2.17142 13.9546 1.00989e-06 10.793 1.00989e-06 7.7803C-0.00161974 4.63378 1.9477 1.79641 4.93834 0.592222C7.92898 -0.611966 11.3714 0.0543808 13.6594 2.28032C15.1639 3.73625 16.0067 5.71671 16 7.7803C16 10.793 13.8285 13.9546 11.9999 16.0775C10.7814 17.4911 9.44346 18.8032 7.99996 20ZM7.99996 2.22589C4.84563 2.22956 2.28948 4.7142 2.2857 7.7803C2.2857 9.07559 2.88799 11.3185 5.75426 14.6522C6.4607 15.4721 7.21027 16.256 7.99996 17.0006C8.78972 16.2568 9.53966 15.4741 10.2468 14.6555C13.1119 11.3173 13.7142 9.07448 13.7142 7.7803C13.7104 4.7142 11.1543 2.22956 7.99996 2.22589ZM7.99996 11.1129C6.10642 11.1129 4.57141 9.62087 4.57141 7.7803C4.57141 5.93973 6.10642 4.44765 7.99996 4.44765C9.8935 4.44765 11.4285 5.93973 11.4285 7.7803C11.4285 8.66417 11.0673 9.51184 10.4243 10.1368C9.78134 10.7618 8.90927 11.1129 7.99996 11.1129Z" fill="#36DD65"/>
</svg>
