<svg width="162" height="69" viewBox="0 0 162 69" fill="none" xmlns="http://www.w3.org/2000/svg">
<path d="M27.2983 59.332V63H25.3243V53.116H28.9223C30.089 53.116 30.9663 53.396 31.5543 53.956C32.1517 54.516 32.4503 55.2767 32.4503 56.238C32.4503 57.1807 32.1423 57.932 31.5263 58.492C30.9197 59.052 30.0517 59.332 28.9223 59.332H27.2983ZM28.7123 57.75C29.8697 57.75 30.4483 57.246 30.4483 56.238C30.4483 55.7433 30.313 55.3653 30.0423 55.104C29.7717 54.8427 29.3283 54.712 28.7123 54.712H27.2983V57.75H28.7123ZM56.5525 61.012H52.5905L51.8905 63H49.8045L53.4445 53.228H55.6985L59.3245 63H57.2385L56.5525 61.012ZM56.0205 59.514L54.5645 55.342L53.1085 59.514H56.0205ZM82.3419 63L80.0319 59.15H79.1639V63H77.1899V53.116H80.9559C82.1039 53.116 82.9766 53.396 83.5739 53.956C84.1806 54.516 84.4839 55.2533 84.4839 56.168C84.4839 56.9147 84.2739 57.54 83.8539 58.044C83.4433 58.548 82.8459 58.884 82.0619 59.052L84.5259 63H82.3419ZM79.1639 57.792H80.7879C81.9173 57.792 82.4819 57.2927 82.4819 56.294C82.4819 55.818 82.3419 55.4493 82.0619 55.188C81.7913 54.9173 81.3666 54.782 80.7879 54.782H79.1639V57.792ZM109.337 53.116V54.684H106.607V63H104.633V54.684H101.917V53.116H109.337ZM134.014 60.298C134.014 60.802 133.888 61.2687 133.636 61.698C133.384 62.118 133.01 62.4587 132.516 62.72C132.021 62.972 131.419 63.098 130.71 63.098C130.01 63.098 129.384 62.9813 128.834 62.748C128.283 62.5053 127.84 62.16 127.504 61.712C127.177 61.264 126.99 60.7413 126.944 60.144H129.044C129.09 60.5453 129.249 60.8813 129.52 61.152C129.8 61.4133 130.168 61.544 130.626 61.544C131.036 61.544 131.349 61.4367 131.564 61.222C131.788 60.998 131.9 60.7133 131.9 60.368C131.9 60.06 131.811 59.808 131.634 59.612C131.456 59.4067 131.232 59.2433 130.962 59.122C130.691 59.0007 130.318 58.8607 129.842 58.702C129.226 58.4967 128.722 58.296 128.33 58.1C127.938 57.8947 127.602 57.6007 127.322 57.218C127.051 56.8353 126.916 56.336 126.916 55.72C126.916 54.8707 127.219 54.2033 127.826 53.718C128.442 53.2233 129.254 52.976 130.262 52.976C131.307 52.976 132.138 53.228 132.754 53.732C133.379 54.236 133.734 54.908 133.818 55.748H131.69C131.634 55.3933 131.484 55.104 131.242 54.88C130.999 54.6467 130.668 54.53 130.248 54.53C129.884 54.53 129.59 54.628 129.366 54.824C129.142 55.0107 129.03 55.286 129.03 55.65C129.03 55.9393 129.114 56.182 129.282 56.378C129.459 56.5647 129.678 56.7187 129.94 56.84C130.21 56.9613 130.574 57.0967 131.032 57.246C131.666 57.47 132.18 57.68 132.572 57.876C132.973 58.072 133.314 58.366 133.594 58.758C133.874 59.15 134.014 59.6633 134.014 60.298Z" fill="white"/>
<path d="M20.9186 33H15.7886L7.20859 19.98V33H2.07859V11.79H7.20859L15.7886 24.93V11.79H20.9186V33Z" fill="white"/>
<path d="M103.791 11.79V24.03C103.791 25.43 104.101 26.5 104.721 27.24C105.361 27.98 106.281 28.35 107.481 28.35C108.681 28.35 109.591 27.98 110.211 27.24C110.851 26.5 111.171 25.43 111.171 24.03V11.79H116.301V24.03C116.301 26.03 115.911 27.72 115.131 29.1C114.351 30.46 113.281 31.49 111.921 32.19C110.581 32.87 109.061 33.21 107.361 33.21C105.661 33.21 104.161 32.87 102.861 32.19C101.561 31.51 100.541 30.48 99.801 29.1C99.061 27.72 98.691 26.03 98.691 24.03V11.79H103.791Z" fill="white"/>
<path d="M161.309 11.79V15.87H155.549V33H150.389V15.87H144.689V11.79H161.309Z" fill="white"/>
<rect x="38" y="3" width="39" height="39" rx="5" fill="#36DD65"/>
<path d="M58.0141 11.46C60.0141 11.46 61.8241 11.93 63.4441 12.87C65.0841 13.79 66.3741 15.08 67.3141 16.74C68.2541 18.38 68.7241 20.24 68.7241 22.32C68.7241 24.4 68.2441 26.27 67.2841 27.93C66.3441 29.59 65.0541 30.89 63.4141 31.83C61.7941 32.75 59.9941 33.21 58.0141 33.21C56.0341 33.21 54.2241 32.75 52.5841 31.83C50.9641 30.89 49.6741 29.59 48.7141 27.93C47.7741 26.27 47.3041 24.4 47.3041 22.32C47.3041 20.24 47.7741 18.38 48.7141 16.74C49.6741 15.08 50.9641 13.79 52.5841 12.87C54.2241 11.93 56.0341 11.46 58.0141 11.46ZM58.0141 16.23C56.3341 16.23 54.9941 16.78 53.9941 17.88C53.0141 18.96 52.5241 20.44 52.5241 22.32C52.5241 24.18 53.0141 25.66 53.9941 26.76C54.9941 27.86 56.3341 28.41 58.0141 28.41C59.6741 28.41 61.0041 27.86 62.0041 26.76C63.0041 25.66 63.5041 24.18 63.5041 22.32C63.5041 20.46 63.0041 18.98 62.0041 17.88C61.0241 16.78 59.6941 16.23 58.0141 16.23Z" fill="white"/>
</svg>
