<svg width="18" height="18" viewBox="0 0 18 18" fill="none" xmlns="http://www.w3.org/2000/svg">
<path fill-rule="evenodd" clip-rule="evenodd" d="M0 9C0 4.02944 4.02944 0 9 0C13.9706 0 18 4.02944 18 9C18 13.9706 13.9706 18 9 18C4.02944 18 0 13.9706 0 9ZM11 12.0058C11.2666 12.0058 11.5222 11.8993 11.71 11.71C11.8993 11.5222 12.0058 11.2666 12.0058 11C12.0058 10.7334 11.8993 10.4778 11.71 10.29L10 8.59V5C10 4.44772 9.55229 4 9 4C8.44771 4 8 4.44772 8 5V9C7.99846 9.2658 8.10281 9.52128 8.29 9.71L10.29 11.71C10.4778 11.8993 10.7334 12.0058 11 12.0058Z" fill="#747474"/>
</svg>
