<svg width="22" height="23" viewBox="0 0 22 23" fill="none" xmlns="http://www.w3.org/2000/svg">
<path fill-rule="evenodd" clip-rule="evenodd" d="M1.83301 11.2361C1.83301 6.40719 5.69218 2.05566 11.018 2.05566C16.2247 2.05566 20.1663 6.32457 20.1663 11.2086C20.1663 16.8729 15.5463 20.389 10.9997 20.389C9.49634 20.389 7.82801 19.9851 6.48968 19.1955C6.02218 18.9109 5.62801 18.6998 5.12384 18.865L3.27217 19.4159C2.80467 19.5628 2.38301 19.1955 2.52051 18.6998L3.13467 16.6434C3.23551 16.3588 3.21717 16.0558 3.07051 15.8171C2.28217 14.3666 1.83301 12.7784 1.83301 11.2361ZM9.80815 11.2361C9.80815 11.8879 10.3306 12.4112 10.9815 12.4204C11.6323 12.4204 12.1548 11.8879 12.1548 11.2453C12.1548 10.5935 11.6323 10.0702 10.9815 10.0702C10.3398 10.061 9.80815 10.5935 9.80815 11.2361ZM14.0339 11.2453C14.0339 11.8879 14.5564 12.4204 15.2072 12.4204C15.858 12.4204 16.3805 11.8879 16.3805 11.2453C16.3805 10.5935 15.858 10.0702 15.2072 10.0702C14.5564 10.0702 14.0339 10.5935 14.0339 11.2453ZM6.75561 12.4204C6.11394 12.4204 5.58228 11.8879 5.58228 11.2453C5.58228 10.5935 6.10478 10.0702 6.75561 10.0702C7.40644 10.0702 7.92894 10.5935 7.92894 11.2453C7.92894 11.8879 7.40644 12.4112 6.75561 12.4204Z" fill="white"/>
</svg>
