<svg width="39" height="44" viewBox="0 0 39 44" fill="none" xmlns="http://www.w3.org/2000/svg">
<path fill-rule="evenodd" clip-rule="evenodd" d="M21.7207 38.8749C31.4445 37.7727 39 29.5187 39 19.5C39 8.73045 30.2696 0 19.5 0C8.73045 0 0 8.73045 0 19.5C0 29.1413 6.99697 37.1483 16.19 38.7202L19 43.5873L21.7207 38.8749Z" fill="#36DD65"/>
<path fill-rule="evenodd" clip-rule="evenodd" d="M12 14V17.7977C12 18.5934 12.3161 19.3564 12.8787 19.9191L19.7058 26.7462C20.8774 27.9178 22.7769 27.9178 23.9484 26.7462L27.7462 22.9484C28.9178 21.7769 28.9178 19.8774 27.7462 18.7058L20.9191 11.8787C20.3564 11.3161 19.5934 11 18.7977 11H15C13.3431 11 12 12.3431 12 14ZM17.3603 18.147C18.347 18.147 19.147 17.347 19.147 16.3603C19.147 15.3735 18.347 14.5735 17.3603 14.5735C16.3735 14.5735 15.5735 15.3735 15.5735 16.3603C15.5735 17.347 16.3735 18.147 17.3603 18.147Z" fill="white"/>
</svg>
