<svg width="21" height="19" viewBox="0 0 21 19" fill="none" xmlns="http://www.w3.org/2000/svg">
<path d="M10.5807 15.9862L10.4768 16.0869L10.3624 15.9862C5.42493 11.6457 2.16098 8.77562 2.16098 5.86522C2.16098 3.8511 3.72019 2.34051 5.79914 2.34051C7.39993 2.34051 8.95914 3.34757 9.51007 4.71717H11.4435C11.9944 3.34757 13.5536 2.34051 15.1544 2.34051C17.2334 2.34051 18.7926 3.8511 18.7926 5.86522C18.7926 8.77562 15.5286 11.6457 10.5807 15.9862ZM15.1544 0.326385C13.3457 0.326385 11.6098 1.1421 10.4768 2.42107C9.34375 1.1421 7.60783 0.326385 5.79914 0.326385C2.59756 0.326385 0.0820312 2.7534 0.0820312 5.86522C0.0820312 9.66183 3.61625 12.7736 8.96954 17.4766L10.4768 18.8059L11.984 17.4766C17.3373 12.7736 20.8715 9.66183 20.8715 5.86522C20.8715 2.7534 18.356 0.326385 15.1544 0.326385Z" fill="#0ACF83"/>
</svg>
