<svg width="34" height="22" viewBox="0 0 34 22" fill="none" xmlns="http://www.w3.org/2000/svg">
<g clip-path="url(#clip0_0_267)">
<path d="M0 2.76611C0 1.2503 1.24294 0.0214844 2.77617 0.0214844H30.5379C32.0712 0.0214844 33.3141 1.2503 33.3141 2.76611V19.2339C33.3141 20.7497 32.0712 21.9785 30.5379 21.9785H2.77617C1.24294 21.9785 0 20.7497 0 19.2339V2.76611Z" fill="#CCEFFF"/>
<path d="M20.3005 17.4758H13.0137V4.52905H20.3005V17.4758Z" fill="#6C6BBD"/>
<path d="M13.481 11C13.481 8.37369 14.7248 6.03424 16.6617 4.5266C15.2453 3.42414 13.4577 2.76612 11.515 2.76612C6.91572 2.76612 3.1875 6.4525 3.1875 11C3.1875 15.5475 6.91572 19.2339 11.515 19.2339C13.4577 19.2339 15.2453 18.5759 16.6617 17.4734C14.7248 15.9658 13.481 13.6263 13.481 11Z" fill="#EB001B"/>
<path d="M30.1291 11C30.1291 15.5475 26.4008 19.2339 21.8016 19.2339C19.8588 19.2339 18.0712 18.5759 16.6543 17.4734C18.5917 15.9658 19.8355 13.6263 19.8355 11C19.8355 8.37369 18.5917 6.03424 16.6543 4.5266C18.0712 3.42414 19.8588 2.76612 21.8016 2.76612C26.4008 2.76612 30.1291 6.4525 30.1291 11Z" fill="#0099DF"/>
</g>
<defs>
<clipPath id="clip0_0_267">
<rect width="33.3141" height="21.957" fill="white" transform="translate(0 0.0214844)"/>
</clipPath>
</defs>
</svg>
