<svg width="34" height="22" viewBox="0 0 34 22" fill="none" xmlns="http://www.w3.org/2000/svg">
<g clip-path="url(#clip0_0_259)">
<path d="M0 2.76611C0 1.2503 1.24294 0.0214844 2.77617 0.0214844H30.5379C32.0712 0.0214844 33.3141 1.2503 33.3141 2.76611V19.2339C33.3141 20.7497 32.0712 21.9785 30.5379 21.9785H2.77617C1.24294 21.9785 0 20.7497 0 19.2339V2.76611Z" fill="#D8E3F3"/>
<path d="M28.6704 6.90417H26.9251C26.3975 6.90417 25.9916 7.06468 25.7481 7.58632L22.4199 15.0899H24.774C24.774 15.0899 25.1799 14.0868 25.261 13.846C25.5046 13.846 27.818 13.846 28.1427 13.846C28.2239 14.1269 28.4268 15.0498 28.4268 15.0498H30.5374L28.6704 6.90417ZM25.9104 12.1607C26.1134 11.6792 26.8034 9.87351 26.8034 9.87351C26.8034 9.91363 27.0063 9.39199 27.0875 9.11111L27.2498 9.83338C27.2498 9.83338 27.6963 11.7996 27.7774 12.2008H25.9104V12.1607Z" fill="#3362AB"/>
<path d="M22.5823 12.4034C22.5823 14.0887 21.04 15.2123 18.6453 15.2123C17.6306 15.2123 16.6565 15.0116 16.1289 14.7709L16.4536 12.9251L16.7377 13.0454C17.4683 13.3664 17.9553 13.4868 18.8483 13.4868C19.4977 13.4868 20.1876 13.2461 20.1876 12.6843C20.1876 12.3232 19.9035 12.0824 19.0106 11.6812C18.1583 11.2799 17.0218 10.6379 17.0218 9.47422C17.0218 7.86917 18.6047 6.78577 20.837 6.78577C21.6894 6.78577 22.4199 6.94627 22.8664 7.1469L22.5417 8.91245L22.3794 8.75195C21.9735 8.59144 21.4458 8.43094 20.6747 8.43094C19.8224 8.47106 19.4165 8.8322 19.4165 9.15321C19.4165 9.51434 19.9035 9.79523 20.6747 10.1564C21.9735 10.7583 22.5823 11.4404 22.5823 12.4034Z" fill="#3362AB"/>
<path d="M2.77539 6.9857L2.81598 6.8252H6.30649C6.79354 6.8252 7.15882 6.9857 7.28059 7.50734L8.05174 11.1187C7.28058 9.19264 5.49474 7.62772 2.77539 6.9857Z" fill="#F9B50B"/>
<path d="M12.9629 6.90585L9.43183 15.0515H7.03718L5.00781 8.23001C6.46896 9.15291 7.68658 10.5975 8.13304 11.6006L8.37656 12.4433L10.5683 6.86572H12.9629V6.90585Z" fill="#3362AB"/>
<path d="M13.8971 6.86572H16.1294L14.7089 15.0515H12.4766L13.8971 6.86572Z" fill="#3362AB"/>
</g>
<defs>
<clipPath id="clip0_0_259">
<rect width="33.3141" height="21.957" fill="white" transform="translate(0 0.0214844)"/>
</clipPath>
</defs>
</svg>
