<svg width="39" height="44" viewBox="0 0 39 44" fill="none" xmlns="http://www.w3.org/2000/svg">
<path fill-rule="evenodd" clip-rule="evenodd" d="M21.7207 38.8749C31.4445 37.7727 39 29.5187 39 19.5C39 8.73045 30.2696 0 19.5 0C8.73045 0 0 8.73045 0 19.5C0 29.1413 6.99697 37.1483 16.19 38.7202L19 43.5873L21.7207 38.8749Z" fill="#36DD65"/>
<g clip-path="url(#clip0_969_172)">
<path d="M26.6302 20.4033C27.0198 19.9571 27.2146 19.4294 27.2146 18.8202C27.2146 18.2677 27.0125 17.7897 26.6096 17.3857C26.2058 16.9818 25.7278 16.7799 25.1753 16.7799H22.2323C22.2606 16.6808 22.289 16.5958 22.3172 16.525C22.3453 16.4541 22.3846 16.3761 22.434 16.2911C22.4834 16.2061 22.519 16.1423 22.5402 16.0999C22.6676 15.8592 22.7652 15.6607 22.8326 15.505C22.8998 15.349 22.9667 15.1366 23.0343 14.8674C23.1017 14.5984 23.1351 14.3291 23.1351 14.06C23.1351 13.89 23.1331 13.7518 23.1297 13.6456C23.1264 13.5394 23.1084 13.38 23.0768 13.1674C23.0447 12.955 23.0021 12.7779 22.9491 12.6363C22.8959 12.4947 22.8109 12.3352 22.6942 12.1582C22.5773 11.9809 22.4357 11.8377 22.2691 11.7278C22.1025 11.618 21.8901 11.526 21.6315 11.4517C21.3728 11.3773 21.0807 11.3401 20.7547 11.3401C20.5706 11.3401 20.4113 11.4074 20.2766 11.542C20.135 11.6837 20.0144 11.8607 19.9153 12.0731C19.8161 12.2857 19.747 12.4698 19.708 12.6257C19.669 12.7815 19.6247 12.9976 19.5753 13.2738C19.5113 13.5715 19.4637 13.7856 19.4317 13.9166C19.3998 14.0476 19.3377 14.2194 19.2457 14.4318C19.1535 14.6445 19.0438 14.8143 18.9163 14.9419C18.6826 15.1756 18.3249 15.6006 17.8432 16.2168C17.496 16.6701 17.1383 17.0986 16.77 17.5024C16.4016 17.9062 16.1325 18.1152 15.9625 18.1293C15.7856 18.1435 15.6333 18.2161 15.5057 18.3472C15.3782 18.4782 15.3145 18.6323 15.3145 18.8094V25.6199C15.3145 25.8041 15.3817 25.9616 15.5163 26.0927C15.6508 26.2239 15.8102 26.2929 15.9944 26.3C16.2423 26.3071 16.8019 26.4628 17.6732 26.7676C18.2185 26.9515 18.6452 27.0916 18.9533 27.1871C19.2614 27.2826 19.692 27.3854 20.2441 27.4953C20.7967 27.6051 21.3066 27.6601 21.774 27.6601H21.9546H22.7622H23.1446C24.0869 27.646 24.7843 27.3696 25.2378 26.8314C25.6485 26.3426 25.8219 25.7016 25.7584 24.9082C26.0346 24.6462 26.226 24.3134 26.3321 23.9095C26.4524 23.4777 26.4524 23.0633 26.3321 22.6667C26.6579 22.2346 26.8102 21.7494 26.7888 21.2111C26.7897 20.9842 26.7367 20.7151 26.6302 20.4033Z" fill="white"/>
<path d="M13.74 19H10.6801C10.4958 19 10.3365 19.0673 10.2019 19.2019C10.0673 19.3365 10 19.4958 10 19.68V26.4803C10 26.6642 10.0673 26.8236 10.2019 26.9584C10.3366 27.0927 10.496 27.1601 10.6802 27.1601H13.74C13.9242 27.1601 14.0835 27.0927 14.2181 26.9584C14.3527 26.8236 14.42 26.6642 14.42 26.4803V19.68C14.42 19.4958 14.3527 19.3365 14.2181 19.2019C14.0835 19.0673 13.9242 19 13.74 19ZM12.5181 25.6035C12.3835 25.7345 12.2242 25.8 12.04 25.8C11.8487 25.8 11.6876 25.7345 11.5566 25.6035C11.4256 25.4724 11.3601 25.3113 11.3601 25.12C11.3601 24.9359 11.4255 24.7765 11.5566 24.6419C11.6876 24.5073 11.8487 24.4399 12.04 24.4399C12.2242 24.4399 12.3835 24.5073 12.5181 24.6419C12.6527 24.7764 12.72 24.9359 12.72 25.12C12.72 25.3113 12.6529 25.4724 12.5181 25.6035Z" fill="white"/>
</g>
<defs>
<clipPath id="clip0_969_172">
<rect width="17" height="17" fill="white" transform="translate(10 11)"/>
</clipPath>
</defs>
</svg>
