<svg width="16" height="16" viewBox="0 0 16 16" fill="none" xmlns="http://www.w3.org/2000/svg">
<path d="M14.3089 10.2009L12.908 8.80111L15.7097 6.00154C16.6103 5.0017 15.2094 3.7019 14.3089 4.60176L11.5071 7.40133L8.60532 4.50177L11.4071 1.7022C12.3076 0.702359 11.0068 -0.59744 10.0062 0.302421L7.20446 3.10199L5.80359 1.7022C4.90303 0.902328 3.50217 2.10214 4.40272 3.10199L3.20198 4.3018C1.20074 6.3015 1.10068 9.501 3.00186 11.6007L0 14.6002L1.40087 16L4.30266 13.1004C5.20322 14.1003 8.30514 16 11.307 13.2004L12.8079 11.7007C13.9086 12.5005 15.2094 11.1008 14.3089 10.2009Z" fill="white"/>
</svg>
