<svg width="16" height="16" viewBox="0 0 16 16" fill="none" xmlns="http://www.w3.org/2000/svg">
<path fill-rule="evenodd" clip-rule="evenodd" d="M16 8.00008C16 8.73646 15.403 9.33341 14.6667 9.33341H1.33333C0.596954 9.33341 0 8.73646 0 8.00008C0 7.2637 0.596953 6.66675 1.33333 6.66675H14.6667C15.403 6.66675 16 7.2637 16 8.00008Z" fill="#414141"/>
<path fill-rule="evenodd" clip-rule="evenodd" d="M7.99984 1.58998e-08C8.73622 2.46811e-08 9.33317 0.596953 9.33317 1.33333L9.33317 14.6667C9.33317 15.403 8.73622 16 7.99984 16C7.26346 16 6.6665 15.403 6.6665 14.6667L6.6665 1.33333C6.6665 0.596953 7.26346 7.1186e-09 7.99984 1.58998e-08Z" fill="#414141"/>
</svg>
