<svg width="89" height="24" viewBox="0 0 89 24" fill="none" xmlns="http://www.w3.org/2000/svg">
<path d="M26.2534 20.6453C24.9119 20.6453 23.8671 20.2729 23.119 19.528C22.3795 18.783 22.0098 17.727 22.0098 16.3598V11.2592H24.5637V16.2809C24.5637 17.7533 25.1355 18.4894 26.2792 18.4894C27.4142 18.4894 27.9818 17.7533 27.9818 16.2809V11.2592H30.497V16.3598C30.497 17.727 30.1229 18.783 29.3748 19.528C28.6353 20.2729 27.5948 20.6453 26.2534 20.6453Z" fill="black"/>
<path d="M38.3455 18.6735H34.5275L33.8181 20.4613H31.2126L35.1983 11.2592H37.7135L41.712 20.4613H39.0549L38.3455 18.6735ZM37.5974 16.7542L36.4365 13.8095L35.2756 16.7542H37.5974Z" fill="black"/>
<path d="M46.6409 18.0162H45.2479V20.4613H42.694V11.2592H46.8215C47.6384 11.2592 48.3478 11.3995 48.9497 11.6799C49.5517 11.9516 50.016 12.346 50.3428 12.863C50.6695 13.3713 50.8329 13.9717 50.8329 14.664C50.8329 15.3301 50.6781 15.9129 50.3686 16.4124C50.0676 16.9032 49.6334 17.2888 49.0658 17.5692L51.0135 20.4613H48.279L46.6409 18.0162ZM48.2532 14.664C48.2532 14.2346 48.1199 13.9015 47.8534 13.6649C47.5868 13.4283 47.1912 13.31 46.6667 13.31H45.2479V16.0049H46.6667C47.1912 16.0049 47.5868 15.8909 47.8534 15.6631C48.1199 15.4265 48.2532 15.0934 48.2532 14.664Z" fill="black"/>
<path d="M61.0902 11.2592V20.4613H58.9878L55.0022 15.5579V20.4613H52.4998V11.2592H54.6023L58.5879 16.1626V11.2592H61.0902Z" fill="black"/>
<path d="M67.3159 20.6453C65.9744 20.6453 64.9296 20.2729 64.1815 19.528C63.442 18.783 63.0723 17.727 63.0723 16.3598V11.2592H65.6262V16.2809C65.6262 17.7533 66.198 18.4894 67.3417 18.4894C68.4767 18.4894 69.0443 17.7533 69.0443 16.2809V11.2592H71.5595V16.3598C71.5595 17.727 71.1854 18.783 70.4373 19.528C69.6978 20.2729 68.6573 20.6453 67.3159 20.6453Z" fill="black"/>
<path d="M75.3309 13.3231H72.5577V11.2592H80.645V13.3231H77.8848V20.4613H75.3309V13.3231Z" fill="black"/>
<path d="M85.0023 20.6453C84.2714 20.6453 83.562 20.5533 82.874 20.3693C82.1861 20.1852 81.6272 19.9399 81.1972 19.6331L82.0356 17.7138C82.4398 17.9855 82.9084 18.2046 83.4416 18.3711C83.9747 18.5376 84.4993 18.6209 85.0152 18.6209C85.9955 18.6209 86.4856 18.3711 86.4856 17.8716C86.4856 17.6087 86.3437 17.4159 86.06 17.2932C85.7848 17.1617 85.3376 17.0259 84.7185 16.8856C84.0392 16.7367 83.4717 16.5789 83.0159 16.4124C82.5602 16.2371 82.1689 15.9611 81.8422 15.5842C81.5154 15.2074 81.352 14.6991 81.352 14.0593C81.352 13.4984 81.5025 12.9945 81.8035 12.5475C82.1044 12.0918 82.5516 11.7325 83.1449 11.4696C83.7468 11.2067 84.4821 11.0752 85.3505 11.0752C85.9439 11.0752 86.5286 11.1453 87.1047 11.2855C87.6809 11.417 88.1882 11.6142 88.6268 11.8771L87.84 13.8095C86.98 13.3363 86.146 13.0997 85.3377 13.0997C84.8303 13.0997 84.4606 13.1785 84.2284 13.3363C83.9962 13.4853 83.8801 13.6824 83.8801 13.9278C83.8801 14.1732 84.0177 14.3573 84.2929 14.48C84.568 14.6027 85.0109 14.7297 85.6214 14.8612C86.3093 15.0102 86.8769 15.1723 87.324 15.3476C87.7798 15.5141 88.171 15.7858 88.4978 16.1626C88.8331 16.5307 89.0008 17.0346 89.0008 17.6744C89.0008 18.2265 88.8503 18.7261 88.5494 19.173C88.2484 19.62 87.797 19.9793 87.195 20.251C86.5931 20.5139 85.8622 20.6453 85.0023 20.6453Z" fill="black"/>
<path d="M20.0957 1.57709H21.0725V2.09129C21.2427 1.69781 21.5535 1.50513 21.9991 1.50513C22.2401 1.50513 22.4389 1.55852 22.5966 1.66995C22.7554 1.7779 22.8548 1.9195 22.8993 2.09129C22.9428 2.26076 22.9667 2.52192 22.9667 2.87246V5.33203H21.9328V2.87246C21.9328 2.61826 21.902 2.46272 21.8414 2.40236C21.7774 2.34433 21.6872 2.31531 21.5821 2.31531C21.397 2.31531 21.2736 2.37103 21.2176 2.4871C21.1559 2.60317 21.1285 2.81674 21.1285 3.13478V5.33319H20.0968V1.57709H20.0957Z" fill="#FF2C38"/>
<path d="M15.5321 19.7503C17.9367 17.7375 19.1403 14.8098 19.1403 10.9711C19.1403 7.81318 18.2569 5.27867 16.4962 3.38924C14.7343 1.49345 12.45 0.548096 9.65204 0.548096C6.62702 0.548096 4.26084 1.5507 2.55601 3.55337C0.851176 5.55732 0 8.11854 0 11.2307C0 14.3479 0.877232 16.8952 2.6379 18.8584C4.39609 20.8229 6.72131 21.8039 9.62226 21.8039C10.2886 21.8039 11.105 21.7225 11.7936 21.5799C11.6571 20.9552 11.8197 22.3472 12.6795 22.8141C13.5431 23.2811 14.5171 23.5165 15.619 23.5165C16.2381 23.5165 17.0942 23.4605 18.1812 23.3485L18.1638 23.29C17.5273 23.421 17.8759 20.6397 17.402 20.6397C16.3523 20.6397 15.7257 20.347 15.5321 19.7503ZM13.5407 17.997C13.151 18.4271 12.8421 18.6637 12.7403 18.7401C12.7068 18.7617 12.6771 18.7808 12.6386 18.7948C12.1125 19.0327 11.3159 19.7847 10.4523 20.8585C10.3332 21.0112 10.1496 21.0926 9.96099 21.0786C9.76991 21.0748 9.59869 20.9718 9.49322 20.8089C9.33564 20.571 7.76357 19.3979 6.36521 18.4131L6.31062 18.3686C3.05729 15.4931 3.13794 10.8261 3.23968 9.46596C3.24216 9.39725 3.26326 9.34 3.28435 9.28274C3.07714 8.89722 2.78928 8.1898 2.73468 7.76738C2.39595 5.19215 5.18399 2.80905 8.95844 2.45788C12.7304 2.10672 16.0731 3.91472 16.4106 6.48867C16.5111 7.22918 16.3101 8.09055 15.9304 8.77635C15.9962 8.86668 16.0458 8.96593 16.0557 9.0868C16.4478 14.0044 14.6586 16.7756 13.5407 17.997Z" fill="#FF2C38"/>
</svg>
