<svg width="38" height="38" viewBox="0 0 38 38" fill="none" xmlns="http://www.w3.org/2000/svg">
<path d="M0 19C0 8.50659 8.50659 0 19 0C29.4934 0 38 8.50659 38 19C38 29.4934 29.4934 38 19 38H0V19Z" fill="#9BEEB2"/>
<ellipse cx="15" cy="16" rx="3" ry="3.5" fill="white"/>
<path d="M20.6875 24.5C20.6875 26 19 25.5 15.625 25.5C12.25 25.5 10.5625 26 10.5625 24.5C10.5625 23 12.25 21 15.625 21C19 21 20.6875 23 20.6875 24.5Z" fill="white"/>
<path fill-rule="evenodd" clip-rule="evenodd" d="M19.5 16C19.5 16.8726 19.2862 17.7367 18.8959 18.4948C19.4374 19.1165 20.1803 19.5 21 19.5C22.6569 19.5 24 17.933 24 16C24 14.067 22.6569 12.5 21 12.5C20.1803 12.5 19.4374 12.8835 18.8959 13.5052C19.2862 14.2633 19.5 15.1274 19.5 16ZM24.4 25.5476C26.425 25.6238 27.4375 25.6619 27.4375 24.5C27.4375 23 25.75 21 22.375 21C21.7154 21 21.1203 21.0764 20.5896 21.2105C21.6066 22.1135 22.1875 23.2847 22.1875 24.5C22.1875 24.8247 22.1395 25.1706 22.0124 25.5019C22.131 25.5007 22.2519 25.5 22.375 25.5C23.1357 25.5 23.8107 25.5254 24.4 25.5476H24.4ZM19 25.5792C20.125 25.5654 20.6875 25.366 20.6875 24.5C20.6875 23.634 20.125 22.6013 19 21.883C17.875 22.6013 17.3125 23.634 17.3125 24.5C17.3125 25.366 17.875 25.5654 19 25.5792Z" fill="white"/>
</svg>
